<!--
  - Copyright (c) 2022 Manuel Schneider
  -->

<svg height="400" viewBox="0 0 400 400" width="400" xmlns="http://www.w3.org/2000/svg"><g fill="none" fill-rule="evenodd"><circle cx="200" cy="200" fill="#c0c0c0" r="200"/><path d="m93.180908 204.0511c13.161982 5.76921 22.517242 18.23764 22.517242 40.19529v25.65405c0 18.57652 16.66133 24.50334 30.92671 24.93682v27.44314c-38.90272 0-61.869196-13.32749-61.869196-49.30621v-28.57018c0-18.26914-14.517589-26.45794-29.295263-26.45794v-27.78203c14.777674 0 29.295263-8.18092 29.295263-26.45007v-28.57018c0-35.978713 22.966476-49.306205 61.869196-49.306205v27.443135c-14.27326.43324-30.92671 6.35637-30.92671 24.93684v25.64615c0 21.95767-9.35526 34.42608-22.517242 40.19528zm194.592412-40.19526v-25.64617c0-18.57652-16.66132-24.50335-30.92671-24.93683v-27.443142c38.90272 0 61.86921 13.327502 61.86921 49.306212v28.57018c0 18.26914 14.51758 26.45006 29.29525 26.45006v27.78204c-14.77767 0-29.29525 8.18091-29.29525 26.45794v28.57017c0 35.97874-22.96649 49.30622-61.86921 49.30622v-27.44313c14.27327-.43325 30.92671-6.35638 30.92671-24.93684v-25.65405c0-21.95765 9.35527-34.42606 22.51724-40.19527-13.16197-5.7692-22.51724-18.23762-22.51724-40.19527z" fill="#404040" stroke-width=".926068"/></g></svg>