<svg xmlns="http://www.w3.org/2000/svg" xmlns:xlink="http://www.w3.org/1999/xlink" viewBox="0 0 500 500" xmlns:v="https://vecta.io/nano"><use xlink:href="#B" fill="#aa734d"/><path d="M133.71 55.87h30v57h-30zm282.12 0h-30a10 10 0 0 1 10 10V482.1a10 10 0 0 1-10 10h30a10 10 0 0 0 10-10V65.87a10 10 0 0 0-10-10z" fill="#7f543c"/><use xlink:href="#C" fill="#ffc612"/><path d="M326.29 34.33h-30a10 10 0 0 1 10 10v68.53h30V44.33a10 10 0 0 0-10-10z" fill="#f2a203"/><path d="M336.29 90.76v22.1H163.71v-22.1h-54.58V457.2H320.3l70.57-70.57V90.76h-54.58z" fill="#ffecc7"/><path d="M360.87 90.76v325.87l30-30V90.76h-30zm-227.16 0h30v29.64h-30z" fill="#ffd48f"/><g fill="none" stroke="#000" stroke-linejoin="round" stroke-width="15"><path d="M336.29 90.76v22.1H163.71v-22.1h-54.58V457.2H320.3l70.57-70.57V90.76h-54.58z"/><use xlink:href="#B"/></g><path d="M319.96 457.2v-70.57h70.58l-70.58 70.57z" fill="#ffc97b"/><g fill="none" stroke="#000" stroke-linejoin="round" stroke-width="15"><path d="M319.96 457.2v-70.57h70.58l-70.58 70.57z"/><use xlink:href="#C"/></g><defs ><path id="B" d="M336.29,55.87v57H163.71v-57H84.17a10,10,0,0,0-10,10V482.1a10,10,0,0,0,10,10H415.83a10,10,0,0,0,10-10V65.87a10,10,0,0,0-10-10Z"/><path id="C" d="M326.29 34.33h-39.14a39.32 39.32 0 0 0-74.3 0h-39.14a10 10 0 0 0-10 10v68.53h172.58V44.33a10 10 0 0 0-10-10zM250 65.76a12.9 12.9 0 1 1 12.89-12.89A12.9 12.9 0 0 1 250 65.76z"/></defs></svg>