<svg xmlns="http://www.w3.org/2000/svg" xmlns:xlink="http://www.w3.org/1999/xlink" width="128" height="128" viewBox="0 0 512 512"><defs><linearGradient xlink:href="#a" id="f" x1="1012.513" x2="1006.808" y1="484.417" y2="20.626" gradientTransform="translate(-830.864 592.678)scale(1.03178)" gradientUnits="userSpaceOnUse"/><linearGradient id="a" x1="45.448" x2="45.448" y1="92.54" y2="7.017" gradientTransform="matrix(1.00587 0 0 .99417 100 0)" gradientUnits="userSpaceOnUse"><stop offset="0" style="stop-color:#000;stop-opacity:1"/><stop offset="1" style="stop-color:#000;stop-opacity:.58823532"/></linearGradient><linearGradient xlink:href="#a" id="g" x1="1012.513" x2="1006.808" y1="484.417" y2="20.626" gradientTransform="translate(-837.951 592.518)scale(1.04025)" gradientUnits="userSpaceOnUse"/><linearGradient xlink:href="#a" id="h" x1="1012.513" x2="1006.808" y1="484.417" y2="20.626" gradientTransform="translate(-823.777 592.838)scale(1.0233)" gradientUnits="userSpaceOnUse"/><linearGradient xlink:href="#a" id="i" x1="1012.513" x2="1006.808" y1="484.417" y2="20.626" gradientTransform="translate(-816.69 592.997)scale(1.01483)" gradientUnits="userSpaceOnUse"/><linearGradient xlink:href="#a" id="j" x1="1012.513" x2="1006.808" y1="484.417" y2="20.626" gradientTransform="translate(-810.489 593.137)scale(1.00742)" gradientUnits="userSpaceOnUse"/><linearGradient xlink:href="#b" id="l" x1="993.439" x2="988.786" y1="51.512" y2="363.738" gradientTransform="translate(-753.587 -30.144)" gradientUnits="userSpaceOnUse"/><linearGradient id="b"><stop offset="0" style="stop-color:#fff;stop-opacity:1"/><stop offset="1" style="stop-color:#fff;stop-opacity:0"/></linearGradient><linearGradient xlink:href="#c" id="m" x1="1764.649" x2="1763.69" y1="155.597" y2="-55.941" gradientTransform="translate(-1532.187 330.416)" gradientUnits="userSpaceOnUse"/><linearGradient id="c"><stop offset="0" style="stop-color:#000;stop-opacity:1"/><stop offset="1" style="stop-color:#fff;stop-opacity:.2"/></linearGradient><linearGradient xlink:href="#d" id="k" x1="38.51" x2="38.51" y1="-955.513" y2="-1003.513" gradientTransform="translate(12.065 9887.866)scale(9.83332)" gradientUnits="userSpaceOnUse"/><linearGradient id="d"><stop offset="0" style="stop-color:#4b5967;stop-opacity:1"/><stop offset="1" style="stop-color:#677a8d;stop-opacity:1"/></linearGradient></defs><g transform="translate(-11.985 -592.117)"><rect width="487" height="487" x="31.985" y="612.117" ry="101.458" style="color:#000;display:inline;overflow:visible;visibility:visible;opacity:.1;fill:url(#f);fill-opacity:1;fill-rule:nonzero;stroke:none;stroke-width:1.5;marker:none"/><rect width="491" height="491" x="31.985" y="612.117" ry="102.292" style="color:#000;display:inline;overflow:visible;visibility:visible;opacity:.08;fill:url(#g);fill-opacity:1;fill-rule:nonzero;stroke:none;stroke-width:1.5;marker:none"/><rect width="483" height="483" x="31.985" y="612.117" ry="100.625" style="color:#000;display:inline;overflow:visible;visibility:visible;opacity:.2;fill:url(#h);fill-opacity:1;fill-rule:nonzero;stroke:none;stroke-width:1.5;marker:none"/><rect width="479" height="479" x="31.985" y="612.117" ry="99.792" style="color:#000;display:inline;overflow:visible;visibility:visible;opacity:.25;fill:url(#i);fill-opacity:1;fill-rule:nonzero;stroke:none;stroke-width:1.5;marker:none"/><rect width="475.5" height="475.5" x="31.985" y="612.117" ry="99.063" style="color:#000;display:inline;overflow:visible;visibility:visible;opacity:.25;fill:url(#j);fill-opacity:1;fill-rule:nonzero;stroke:none;stroke-width:1.5;marker:none"/></g><path d="M118.344 20C63.867 20 20 63.867 20 118.344v275.312C20 448.133 63.867 492 118.344 492h275.312C448.133 492 492 448.133 492 393.656V118.344C492 63.867 448.133 20 393.656 20Z" style="color:#000;display:inline;overflow:visible;visibility:visible;fill:url(#k);fill-opacity:1;fill-rule:nonzero;stroke:none;marker:none"/><path d="M240.438 102.563c-1.027.032-1.938.973-1.938 2V221.28l-65-48.625c-.76-.56-1.923-.476-2.594.188l-18.969 18.875c-.803.8-.709 2.306.188 3l69.188 69.062-65.938 52.813c-.877.693-.97 2.17-.187 2.969l20.437 20.875L238.5 403.28v4.156c.006.896.689 1.742 1.563 1.938L322.375 492h71.281C448.133 492 492 448.133 492 393.656v-65.031L357.969 194.781a2 2 0 0 0-.594-.781L241.75 103a2.02 2.02 0 0 0-1.312-.437m31.375 60.75 39.656 33.25-39.656 30.03zm0 125.375 40.906 29.593-40.938 26.75c0-20.28.031-36.459.031-56.344" style="color:#000;font-style:normal;font-variant:normal;font-weight:400;font-stretch:normal;font-size:medium;line-height:normal;font-family:Sans;-inkscape-font-specification:Sans;text-indent:0;text-align:start;text-decoration:none;text-decoration-line:none;letter-spacing:normal;word-spacing:normal;text-transform:none;writing-mode:lr-tb;direction:ltr;baseline-shift:baseline;text-anchor:start;display:inline;overflow:visible;visibility:visible;opacity:.9;fill:#000;fill-opacity:.235294;fill-rule:evenodd;stroke:none;stroke-width:4;marker:none"/><path d="M118.313 20C63.836 20 20 63.836 20 118.312v275.344C20 448.133 63.836 492 118.312 492h2.938C67.927 492 25 449.072 25 395.75v-269.5C25 72.927 67.927 30 121.25 30h269.5C444.073 30 487 72.927 487 126.25v269.5c0 53.322-42.927 96.25-96.25 96.25h2.906C448.133 492 492 448.133 492 393.656V118.312C492 63.836 448.133 20 393.656 20Z" style="color:#000;display:inline;overflow:visible;visibility:visible;opacity:.5;fill:url(#l);fill-opacity:1;fill-rule:nonzero;stroke:none;stroke-width:1.5;marker:none"/><path d="M118.313 492C63.836 492 20 448.164 20 393.687V118.344C20 63.867 63.836 20 118.312 20h2.938C67.927 20 25 62.927 25 116.25v269.5C25 439.072 67.927 482 121.25 482h269.5c53.323 0 96.25-42.928 96.25-96.25v-269.5C487 62.927 444.073 20 390.75 20h2.906C448.133 20 492 63.867 492 118.344v275.342c0 54.477-43.867 98.313-98.344 98.313z" style="color:#000;display:inline;overflow:visible;visibility:visible;opacity:.2;fill:url(#m);fill-opacity:1;fill-rule:nonzero;stroke:none;stroke-width:1.5;marker:none"/><path d="M240.438 102.563a2 2 0 0 0-1.938 2V221.28l-65-48.625a2 2 0 0 0-2.594.188l-18.969 18.875a2 2 0 0 0 .188 3L231 256.03l-75.625 60.563a2 2 0 0 0-.187 2.969l20.437 20.875a2 2 0 0 0 2.688.156l60.187-48.688v115.532a2 2 0 0 0 3.219 1.593l118.125-88.156a2 2 0 0 0 .062-3.156L283.563 257l73.843-59.875a2 2 0 0 0-.031-3.125L241.75 103a2 2 0 0 0-1.312-.437m31.375 60.75 39.656 33.25-39.656 30.03zm0 125.375 40.906 29.593-40.938 26.75c0-20.28.031-36.459.031-56.344" style="color:#000;font-style:normal;font-variant:normal;font-weight:400;font-stretch:normal;font-size:medium;line-height:normal;font-family:Sans;-inkscape-font-specification:Sans;text-indent:0;text-align:start;text-decoration:none;text-decoration-line:none;letter-spacing:normal;word-spacing:normal;text-transform:none;writing-mode:lr-tb;direction:ltr;baseline-shift:baseline;text-anchor:start;display:inline;overflow:visible;visibility:visible;opacity:.9;fill:#fff;fill-opacity:1;fill-rule:evenodd;stroke:none;stroke-width:4;marker:none"/></svg>