<!--
  - Copyright (c) 2022 Manuel Schneider
  -->

<svg height="96" width="96" xmlns="http://www.w3.org/2000/svg" xmlns:xlink="http://www.w3.org/1999/xlink"><linearGradient id="a" gradientUnits="userSpaceOnUse" x1="48" x2="48" y1="90" y2="5.987717"><stop offset="0" stop-color="#e6e6e6"/><stop offset="1" stop-color="#f5f5f5"/></linearGradient><linearGradient id="b" gradientTransform="matrix(1.0058652 0 0 .994169 100 0)" gradientUnits="userSpaceOnUse" x1="45.447727" x2="45.447727" y1="92.539597" y2="7.01654"><stop offset="0"/><stop offset="1" stop-opacity=".588235"/></linearGradient><linearGradient id="c" gradientTransform="matrix(1.0238095 0 0 1.0119048 -1.142857 -98.071429)" gradientUnits="userSpaceOnUse" x1="32.251034" x2="32.251034" xlink:href="#b" y1="6.131708" y2="90.238609"/><linearGradient id="d" gradientTransform="translate(0 -97)" gradientUnits="userSpaceOnUse" x1="32.251034" x2="32.251034" xlink:href="#b" y1="6.131708" y2="90.238609"/><radialGradient id="e" cx="48" cy="90.171875" gradientTransform="matrix(1.1573129 0 0 .99590774 -7.551021 .197132)" gradientUnits="userSpaceOnUse" r="42" xlink:href="#f"/><linearGradient id="f"><stop offset="0" stop-color="#fff"/><stop offset="1" stop-color="#fff" stop-opacity="0"/></linearGradient><linearGradient id="g" gradientUnits="userSpaceOnUse" x1="36.357143" x2="36.357143" xlink:href="#f" y1="6" y2="63.893143"/><clipPath id="h"><path d="m-88 6c-3.324 0-6 2.676-6 6v72c0 3.324 2.676 6 6 6h72c3.324 0 6-2.676 6-6v-72c0-3.324-2.676-6-6-6zm14.78125 18h4.40625c.944132.000013 1.646705.342872 2.15625 1.09375.404619.605567.656238 1.330757.65625 2.09375v5.6875c-.000012.763003-.25163 1.449916-.65625 2.03125-.509546.738777-1.212119 1.09375-2.15625 1.09375h-4.40625c-.929155 0-1.677969-.35497-2.1875-1.09375-.404633-.581336-.59375-1.268246-.59375-2.03125v-5.6875c.000001-.762992.189117-1.488183.59375-2.09375.509531-.750878 1.258345-1.093738 2.1875-1.09375zm11.25 0h4.09375v11h3.875v1h-10v-1h3.875v-10h-1.84375zm12.75 0h4.40625c.944132.000013 1.646705.342872 2.15625 1.09375.404619.605567.656238 1.330757.65625 2.09375v5.6875c-.000012.763003-.25163 1.449916-.65625 2.03125-.509546.738777-1.212119 1.09375-2.15625 1.09375h-4.40625c-.929155 0-1.677969-.35497-2.1875-1.09375-.404633-.581336-.59375-1.268246-.59375-2.03125v-5.6875c.000001-.762992.189117-1.488183.59375-2.09375.509531-.750878 1.258345-1.093738 2.1875-1.09375zm12 0h4.40625c.944132.000013 1.646705.342872 2.15625 1.09375.404619.605567.656238 1.330757.65625 2.09375v5.6875c-.000012.763003-.25163 1.449916-.65625 2.03125-.509546.738777-1.212119 1.09375-2.15625 1.09375h-4.40625c-.929155 0-1.677969-.35497-2.1875-1.09375-.404633-.581336-.59375-1.268246-.59375-2.03125v-5.6875c.000001-.762992.189117-1.488183.59375-2.09375.509531-.750878 1.258345-1.093738 2.1875-1.09375zm-34.875 1c-.614442.000012-1.107805.260482-1.4375.78125-.254769.411788-.406252.897591-.40625 1.40625v5.6875c-.000002.363335.100134.704251.25 1.03125l4.53125-8.78125c-.209815-.08476-.432739-.124989-.6875-.125zm24 0c-.614442.000012-1.107805.260482-1.4375.78125-.254769.411788-.406252.897591-.40625 1.40625v5.6875c-.000002.363335.100134.704251.25 1.03125l4.53125-8.78125c-.209815-.08476-.432739-.124989-.6875-.125zm12 0c-.614442.000012-1.107805.260482-1.4375.78125-.254769.411788-.406252.897591-.40625 1.40625v5.6875c-.000002.363335.100134.704251.25 1.03125l4.53125-8.78125c-.209815-.08476-.432739-.124989-.6875-.125zm-32.15625 1.15625-4.5 8.75c.194818.07266.43145.125001.65625.125h2.25c.614432.000002 1.06028-.260469 1.375-.78125.254761-.399664.406243-.878441.40625-1.375v-5.6875c-.000007-.351212-.05263-.692128-.1875-1.03125zm24 0-4.5 8.75c.194818.07266.43145.125001.65625.125h2.25c.614432.000002 1.06028-.260469 1.375-.78125.254761-.399664.406243-.878441.40625-1.375v-5.6875c-.000007-.351212-.05263-.692128-.1875-1.03125zm12 0-4.5 8.75c.194818.07266.43145.125001.65625.125h2.25c.614432.000002 1.06028-.260469 1.375-.78125.254761-.399664.406243-.878441.40625-1.375v-5.6875c-.000007-.351212-.05263-.692128-.1875-1.03125zm-41.71875 15.84375h4.09375v11h3.875v1h-10v-1h3.875v-10h-1.84375zm12 0h4.09375v11h3.875v1h-10v-1h3.875v-10h-1.84375zm12.75 0h4.40625c.944132.000013 1.646705.342872 2.15625 1.09375.404619.605567.656238 1.330757.65625 2.09375v5.6875c-.000012.763003-.25163 1.449916-.65625 2.03125-.509546.738777-1.212119 1.09375-2.15625 1.09375h-4.40625c-.929155 0-1.677969-.35497-2.1875-1.09375-.404633-.581336-.59375-1.268246-.59375-2.03125v-5.6875c.000001-.762992.189117-1.488183.59375-2.09375.509531-.750878 1.258345-1.093738 2.1875-1.09375zm11.25 0h4.09375v11h3.875v1h-10v-1h3.875v-10h-1.84375zm-10.125 1c-.614442.000012-1.107805.260482-1.4375.78125-.254769.411788-.406252.897591-.40625 1.40625v5.6875c-.000002.363335.100134.704251.25 1.03125l4.53125-8.78125c-.209815-.08476-.432739-.124989-.6875-.125zm3.84375 1.15625-4.5 8.75c.194818.07266.43145.125001.65625.125h2.25c.614432.000002 1.06028-.260469 1.375-.78125.254761-.399664.406243-.878441.40625-1.375v-5.6875c-.000007-.351212-.05263-.692128-.1875-1.03125zm-29.71875 15.84375h4.09375v11h3.875v1h-10v-1h3.875v-10h-1.84375zm12.75 0h4.40625c.944132.000013 1.646705.342872 2.15625 1.09375.404619.605567.656238 1.330757.65625 2.09375v5.6875c-.000012.763003-.25163 1.449916-.65625 2.03125-.509546.738777-1.212119 1.09375-2.15625 1.09375h-4.40625c-.929155 0-1.677969-.35497-2.1875-1.09375-.404633-.581336-.59375-1.268246-.59375-2.03125v-5.6875c.000001-.762992.189117-1.488183.59375-2.09375.509531-.750878 1.258345-1.093738 2.1875-1.09375zm12 0h4.40625c.944132.000013 1.646705.342872 2.15625 1.09375.404619.605567.656238 1.330757.65625 2.09375v5.6875c-.000012.763003-.25163 1.449916-.65625 2.03125-.509546.738777-1.212119 1.09375-2.15625 1.09375h-4.40625c-.929155 0-1.677969-.35497-2.1875-1.09375-.404633-.581336-.59375-1.268246-.59375-2.03125v-5.6875c.000001-.762992.189117-1.488183.59375-2.09375.509531-.750878 1.258345-1.093738 2.1875-1.09375zm11.25 0h4.09375v11h3.875v1h-10v-1h3.875v-10h-1.84375zm-22.125 1c-.614442.000012-1.107805.260482-1.4375.78125-.254769.411788-.406252.897591-.40625 1.40625v5.6875c-.000002.363335.100134.704251.25 1.03125l4.53125-8.78125c-.209815-.08476-.432739-.124989-.6875-.125zm12 0c-.614442.000012-1.107805.260482-1.4375.78125-.254769.411788-.406252.897591-.40625 1.40625v5.6875c-.000002.363335.100134.704251.25 1.03125l4.53125-8.78125c-.209815-.08476-.432739-.124989-.6875-.125zm-8.15625 1.15625-4.5 8.75c.194818.07266.43145.125001.65625.125h2.25c.614432.000002 1.06028-.260469 1.375-.78125.254761-.399664.406243-.878441.40625-1.375v-5.6875c-.000007-.351212-.05263-.692128-.1875-1.03125zm12 0-4.5 8.75c.194818.07266.43145.125001.65625.125h2.25c.614432.000002 1.06028-.260469 1.375-.78125.254761-.399664.406243-.878441.40625-1.375v-5.6875c-.000007-.351212-.05263-.692128-.1875-1.03125z"/></clipPath><filter id="i" color-interpolation-filters="sRGB" height="1.282" width="1.294261" x="-.14713" y="-.141"><feGaussianBlur stdDeviation="2.82"/></filter><linearGradient id="j" gradientUnits="userSpaceOnUse" x1="42" x2="42" y1="72" y2="24"><stop offset="0" stop-color="#949494"/><stop offset="1" stop-color="#b3b3b3"/></linearGradient><clipPath id="k"><rect height="84" rx="6" width="84" x="6" y="6"/></clipPath><filter id="l" color-interpolation-filters="sRGB" height="1.384" width="1.384" x="-.192" y="-.192"><feGaussianBlur stdDeviation="5.28"/></filter><linearGradient id="m" gradientUnits="userSpaceOnUse" x1="48" x2="48" xlink:href="#f" y1="20.220806" y2="138.66119"/><g fill="url(#c)"><path d="m12-95.03125c-5.5110903 0-10.03125 4.52016-10.03125 10.03125v71c0 5.5110902 4.5201598 10.03125 10.03125 10.03125h72c5.51109 0 10.03125-4.5201597 10.03125-10.03125v-71c0-5.51109-4.52016-10.03125-10.03125-10.03125z" opacity=".08" transform="scale(1 -1)"/><path d="m12-94.03125c-4.971633 0-9.03125 4.059617-9.03125 9.03125v71c0 4.9716329 4.0596171 9.03125 9.03125 9.03125h72c4.971633 0 9.03125-4.059617 9.03125-9.03125v-71c0-4.971633-4.059617-9.03125-9.03125-9.03125z" opacity=".1" transform="scale(1 -1)"/><path d="m12-93c-4.4091333 0-8 3.590867-8 8v71c0 4.4091333 3.5908667 8 8 8h72c4.409133 0 8-3.5908667 8-8v-71c0-4.409133-3.590867-8-8-8z" opacity=".2" transform="scale(1 -1)"/><rect height="85" opacity=".3" rx="7" transform="scale(1 -1)" width="86" x="5" y="-92"/></g><rect fill="url(#d)" height="84" opacity=".45" rx="6" transform="scale(1 -1)" width="84" x="6" y="-91"/><g><rect fill="url(#a)" height="84" rx="6" width="84" x="6" y="6"/><path d="m-73.21875 24c-.929155.000012-1.677969.342872-2.1875 1.09375-.404633.605567-.593749 1.330758-.59375 2.09375v5.6875c0 .763004.189117 1.449914.59375 2.03125.509531.73878 1.258345 1.09375 2.1875 1.09375h4.40625c.944131 0 1.646704-.354973 2.15625-1.09375.40462-.581334.656238-1.268247.65625-2.03125v-5.6875c-.000012-.762993-.251631-1.488183-.65625-2.09375-.509545-.750878-1.212118-1.093737-2.15625-1.09375zm11.25 0v1h1.84375v10h-3.875v1h10v-1h-3.875v-11zm12.75 0c-.929155.000012-1.677969.342872-2.1875 1.09375-.404633.605567-.593749 1.330758-.59375 2.09375v5.6875c0 .763004.189117 1.449914.59375 2.03125.509531.73878 1.258345 1.09375 2.1875 1.09375h4.40625c.944131 0 1.646704-.354973 2.15625-1.09375.40462-.581334.656238-1.268247.65625-2.03125v-5.6875c-.000012-.762993-.251631-1.488183-.65625-2.09375-.509545-.750878-1.212118-1.093737-2.15625-1.09375zm12 0c-.929155.000012-1.677969.342872-2.1875 1.09375-.404633.605567-.593749 1.330758-.59375 2.09375v5.6875c0 .763004.189117 1.449914.59375 2.03125.509531.73878 1.258345 1.09375 2.1875 1.09375h4.40625c.944131 0 1.646704-.354973 2.15625-1.09375.40462-.581334.656238-1.268247.65625-2.03125v-5.6875c-.000012-.762993-.251631-1.488183-.65625-2.09375-.509545-.750878-1.212118-1.093737-2.15625-1.09375zm-34.875 1h2.25c.254761.000011.477685.04024.6875.125l-4.53125 8.78125c-.149866-.326999-.250002-.667915-.25-1.03125v-5.6875c-.000002-.508659.151481-.994462.40625-1.40625.329695-.520768.823058-.781238 1.4375-.78125zm24 0h2.25c.254761.000011.477685.04024.6875.125l-4.53125 8.78125c-.149866-.326999-.250002-.667915-.25-1.03125v-5.6875c-.000002-.508659.151481-.994462.40625-1.40625.329695-.520768.823058-.781238 1.4375-.78125zm12 0h2.25c.254761.000011.477685.04024.6875.125l-4.53125 8.78125c-.149866-.326999-.250002-.667915-.25-1.03125v-5.6875c-.000002-.508659.151481-.994462.40625-1.40625.329695-.520768.823058-.781238 1.4375-.78125zm-32.15625 1.15625c.134869.339122.187493.680038.1875 1.03125v5.6875c-.000007.496559-.151489.975336-.40625 1.375-.31472.520781-.760568.781252-1.375.78125h-2.25c-.2248.000001-.461432-.05234-.65625-.125zm24 0c .134869.339122.187493.680038.1875 1.03125v5.6875c-.000007.496559-.151489.975336-.40625 1.375-.31472.520781-.760568.781252-1.375.78125h-2.25c-.2248.000001-.461432-.05234-.65625-.125zm12 0c .134869.339122.187493.680038.1875 1.03125v5.6875c-.000007.496559-.151489.975336-.40625 1.375-.31472.520781-.760568.781252-1.375.78125h-2.25c-.2248.000001-.461432-.05234-.65625-.125zm-41.71875 15.84375v1h1.84375v10h-3.875v1h10v-1h-3.875v-11zm12 0v1h1.84375v10h-3.875v1h10v-1h-3.875v-11zm12.75 0c-.929155.000012-1.677969.342872-2.1875 1.09375-.404633.605567-.593749 1.330758-.59375 2.09375v5.6875c0 .763004.189117 1.449914.59375 2.03125.509531.73878 1.258345 1.09375 2.1875 1.09375h4.40625c.944131 0 1.646704-.354973 2.15625-1.09375.40462-.581334.656238-1.268247.65625-2.03125v-5.6875c-.000012-.762993-.251631-1.488183-.65625-2.09375-.509545-.750878-1.212118-1.093737-2.15625-1.09375zm11.25 0v1h1.84375v10h-3.875v1h10v-1h-3.875v-11zm-10.125 1h2.25c.254761.000011.477685.04024.6875.125l-4.53125 8.78125c-.149866-.326999-.250002-.667915-.25-1.03125v-5.6875c-.000002-.508659.151481-.994462.40625-1.40625.329695-.520768.823058-.781238 1.4375-.78125zm3.84375 1.15625c.134869.339122.187493.680038.1875 1.03125v5.6875c-.000007.496559-.151489.975336-.40625 1.375-.31472.520781-.760568.781252-1.375.78125h-2.25c-.2248.000001-.461432-.05234-.65625-.125zm-29.71875 15.84375v1h1.84375v10h-3.875v1h10v-1h-3.875v-11zm12.75 0c-.929155.000012-1.677969.342872-2.1875 1.09375-.404633.605567-.593749 1.330758-.59375 2.09375v5.6875c0 .763004.189117 1.449914.59375 2.03125.509531.73878 1.258345 1.09375 2.1875 1.09375h4.40625c.944131 0 1.646704-.354973 2.15625-1.09375.40462-.581334.656238-1.268247.65625-2.03125v-5.6875c-.000012-.762993-.251631-1.488183-.65625-2.09375-.509545-.750878-1.212118-1.093737-2.15625-1.09375zm12 0c-.929155.000012-1.677969.342872-2.1875 1.09375-.404633.605567-.593749 1.330758-.59375 2.09375v5.6875c0 .763004.189117 1.449914.59375 2.03125.509531.73878 1.258345 1.09375 2.1875 1.09375h4.40625c.944131 0 1.646704-.354973 2.15625-1.09375.40462-.581334.656238-1.268247.65625-2.03125v-5.6875c-.000012-.762993-.251631-1.488183-.65625-2.09375-.509545-.750878-1.212118-1.093737-2.15625-1.09375zm11.25 0v1h1.84375v10h-3.875v1h10v-1h-3.875v-11zm-22.125 1h2.25c.254761.000011.477685.04024.6875.125l-4.53125 8.78125c-.149866-.326999-.250002-.667915-.25-1.03125v-5.6875c-.000002-.508659.151481-.994462.40625-1.40625.329695-.520768.823058-.781238 1.4375-.78125zm12 0h2.25c.254761.000011.477685.04024.6875.125l-4.53125 8.78125c-.149866-.326999-.250002-.667915-.25-1.03125v-5.6875c-.000002-.508659.151481-.994462.40625-1.40625.329695-.520768.823058-.781238 1.4375-.78125zm-8.15625 1.15625c.134869.339122.187493.680038.1875 1.03125v5.6875c-.000007.496559-.151489.975336-.40625 1.375-.31472.520781-.760568.781252-1.375.78125h-2.25c-.2248.000001-.461432-.05234-.65625-.125zm12 0c .134869.339122.187493.680038.1875 1.03125v5.6875c-.000007.496559-.151489.975336-.40625 1.375-.31472.520781-.760568.781252-1.375.78125h-2.25c-.2248.000001-.461432-.05234-.65625-.125z" style="opacity:.6;fill:none;stroke:#fff;stroke-width:2;clip-path:url(#h);filter:url(#i)" transform="translate(100)"/><g fill="url(#j)" transform="translate(6)"><path d="m20.782258 24c-.929155.000012-1.667888.351484-2.177419 1.102362-.404633.605567-.604838 1.315748-.604839 2.07874v5.700788c0 .763004.200206 1.434412.604839 2.015748.509531.73878 1.248264 1.102362 2.177419 1.102362h4.395161c.944131 0 1.667874-.363585 2.17742-1.102362.40462-.581334.645149-1.252745.645161-2.015748v-5.700788c-.000012-.762993-.240542-1.473173-.645161-2.07874-.509545-.750878-1.233288-1.102349-2.17742-1.102362zm1.109674 1.007874h2.27927c.254761.000011.475669.04122.685484.125984l-4.537334 8.787402c-.149866-.326999-.241938-.676035-.241936-1.03937v-5.700788c-.000002-.508659.148457-.974038.403226-1.385826.329695-.520768.796848-.78739 1.41129-.787402zm3.85185 1.133858c.134869.339122.201606.688158.201613 1.03937v5.700788c-.000007.496559-.148464.954666-.403225 1.35433-.31472.520781-.756536.787404-1.370968.787402h-2.27927c-.2248.000001-.450343-.05332-.645161-.125984z"/><path d="m40 36h-10v-.996979h3.860465v-9.987915h-1.825459v-1.015106h4.076237v11.003021h3.888757z"/><path d="m44.782258 24c-.929155.000012-1.667888.351484-2.177419 1.102362-.404633.605567-.604838 1.315748-.604839 2.07874v5.700788c0 .763004.200206 1.434412.604839 2.015748.509531.73878 1.248264 1.102362 2.177419 1.102362h4.395161c.944131 0 1.667874-.363585 2.17742-1.102362.40462-.581334.645149-1.252745.645161-2.015748v-5.700788c-.000012-.762993-.240542-1.473173-.645161-2.07874-.509545-.750878-1.233288-1.102349-2.17742-1.102362zm1.109674 1.007874h2.27927c.254761.000011.475669.04122.685484.125984l-4.537334 8.787402c-.149866-.326999-.241938-.676035-.241936-1.03937v-5.700788c-.000002-.508659.148457-.974038.403226-1.385826.329695-.520768.796848-.78739 1.41129-.787402zm3.85185 1.133858c.134869.339122.201606.688158.201613 1.03937v5.700788c-.000007.496559-.148464.954666-.403225 1.35433-.31472.520781-.756536.787404-1.370968.787402h-2.27927c-.2248.000001-.450343-.05332-.645161-.125984z"/><path d="m56.782258 24c-.929155.000012-1.667888.351484-2.177419 1.102362-.404633.605567-.604838 1.315748-.604839 2.07874v5.700788c0 .763004.200206 1.434412.604839 2.015748.509531.73878 1.248264 1.102362 2.177419 1.102362h4.395161c.944131 0 1.667874-.363585 2.17742-1.102362.40462-.581334.645149-1.252745.645161-2.015748v-5.700788c-.000012-.762993-.240542-1.473173-.645161-2.07874-.509545-.750878-1.233288-1.102349-2.17742-1.102362zm1.109674 1.007874h2.27927c.254761.000011.475669.04122.685484.125984l-4.537334 8.787402c-.149866-.326999-.241938-.676035-.241936-1.03937v-5.700788c-.000002-.508659.148457-.974038.403226-1.385826.329695-.520768.796848-.78739 1.41129-.787402zm3.85185 1.133858c.134869.339122.201606.688158.201613 1.03937v5.700788c-.000007.496559-.148464.954666-.403225 1.35433-.31472.520781-.756536.787404-1.370968.787402h-2.27927c-.2248.000001-.450343-.05332-.645161-.125984z"/><path d="m28 54h-10v-.996979h3.860465v-9.987915h-1.825459v-1.015106h4.076237v11.003021h3.888757z"/><path d="m40 54h-10v-.996979h3.860465v-9.987915h-1.825459v-1.015106h4.076237v11.003021h3.888757z"/><path d="m44.782258 42c-.929155.000012-1.667888.351484-2.177419 1.102362-.404633.605567-.604838 1.315748-.604839 2.07874v5.700788c0 .763004.200206 1.434412.604839 2.015748.509531.73878 1.248264 1.102362 2.177419 1.102362h4.395161c.944131 0 1.667874-.363585 2.17742-1.102362.40462-.581334.645149-1.252745.645161-2.015748v-5.700788c-.000012-.762993-.240542-1.473173-.645161-2.07874-.509545-.750878-1.233288-1.102349-2.17742-1.102362zm1.109674 1.007874h2.27927c.254761.000011.475669.04122.685484.125984l-4.537334 8.787402c-.149866-.326999-.241938-.676035-.241936-1.03937v-5.700788c-.000002-.508659.148457-.974038.403226-1.385826.329695-.520768.796848-.78739 1.41129-.787402zm3.85185 1.133858c.134869.339122.201606.688158.201613 1.03937v5.700788c-.000007.496559-.148464.954666-.403225 1.35433-.31472.520781-.756536.787404-1.370968.787402h-2.27927c-.2248.000001-.450343-.05332-.645161-.125984z"/><path d="m64 54h-10v-.996979h3.860465v-9.987915h-1.825459v-1.015106h4.076237v11.003021h3.888757z"/><path d="m28 72h-10v-.996979h3.860465v-9.987915h-1.825459v-1.015106h4.076237v11.003021h3.888757z"/><path d="m32.782258 60c-.929155.000012-1.667888.351484-2.177419 1.102362-.404633.605567-.604838 1.315748-.604839 2.07874v5.700788c0 .763004.200206 1.434412.604839 2.015748.509531.73878 1.248264 1.102362 2.177419 1.102362h4.395161c.944131 0 1.667874-.363585 2.17742-1.102362.40462-.581334.645149-1.252745.645161-2.015748v-5.700788c-.000012-.762993-.240542-1.473173-.645161-2.07874-.509545-.750878-1.233288-1.102349-2.17742-1.102362zm1.109674 1.007874h2.27927c.254761.000011.475669.04122.685484.125984l-4.537334 8.787402c-.149866-.326999-.241938-.676035-.241936-1.03937v-5.700788c-.000002-.508659.148457-.974038.403226-1.385826.329695-.520768.796848-.78739 1.41129-.787402zm3.85185 1.133858c.134869.339122.201606.688158.201613 1.03937v5.700788c-.000007.496559-.148464.954666-.403225 1.35433-.31472.520781-.756536.787404-1.370968.787402h-2.27927c-.2248.000001-.450343-.05332-.645161-.125984z"/><path d="m44.782258 60c-.929155.000012-1.667888.351484-2.177419 1.102362-.404633.605567-.604838 1.315748-.604839 2.07874v5.700788c0 .763004.200206 1.434412.604839 2.015748.509531.73878 1.248264 1.102362 2.177419 1.102362h4.395161c.944131 0 1.667874-.363585 2.17742-1.102362.40462-.581334.645149-1.252745.645161-2.015748v-5.700788c-.000012-.762993-.240542-1.473173-.645161-2.07874-.509545-.750878-1.233288-1.102349-2.17742-1.102362zm1.109674 1.007874h2.27927c.254761.000011.475669.04122.685484.125984l-4.537334 8.787402c-.149866-.326999-.241938-.676035-.241936-1.03937v-5.700788c-.000002-.508659.148457-.974038.403226-1.385826.329695-.520768.796848-.78739 1.41129-.787402zm3.85185 1.133858c.134869.339122.201606.688158.201613 1.03937v5.700788c-.000007.496559-.148464.954666-.403225 1.35433-.31472.520781-.756536.787404-1.370968.787402h-2.27927c-.2248.000001-.450343-.05332-.645161-.125984z"/><path d="m64 72h-10v-.996979h3.860465v-9.987915h-1.825459v-1.015106h4.076237v11.003021h3.888757z"/></g><path d="m12 6c-3.324 0-6 2.676-6 6v2 68 2c0 .334721.04135.6507.09375.96875.0487.295596.09704.596915.1875.875.0099.03038.02089.0636.03125.09375.09886.287771.23488.547452.375.8125.144592.273507.315616.535615.5.78125s.373776.473472.59375.6875c.439947.428056.94291.814526 1.5 1.09375.278545.139612.573473.246947.875.34375-.256202-.100222-.486711-.236272-.71875-.375-.0074-.0044-.02387.0045-.03125 0-.03193-.0193-.06229-.04251-.09375-.0625-.120395-.0767-.231023-.163513-.34375-.25-.106173-.0808-.213281-.161112-.3125-.25-.17793-.161433-.34746-.345388-.5-.53125-.107579-.130255-.218394-.265285-.3125-.40625-.02509-.03838-.03845-.08587-.0625-.125-.06476-.103032-.130228-.204517-.1875-.3125-.101008-.194706-.205675-.415701-.28125-.625-.008-.02181-.02359-.04055-.03125-.0625-.03183-.09195-.0358-.186831-.0625-.28125-.030332-.106618-.070389-.203031-.09375-.3125-.072879-.341512-.125-.698205-.125-1.0625v-2-68-2c0-2.781848 2.218152-5 5-5h2 68 2c2.781848 0 5 2.218152 5 5v2 68 2c0 .364295-.05212.720988-.125 1.0625-.04415.206893-.08838.397658-.15625.59375-.0077.02195-.0233.04069-.03125.0625-.06274.173739-.138383.367449-.21875.53125-.04158.0828-.07904.169954-.125.25-.0546.09721-.126774.18835-.1875.28125-.09411.140965-.204921.275995-.3125.40625-.143174.17445-.303141.346998-.46875.5-.01117.0102-.01998.02115-.03125.03125-.138386.125556-.285091.234436-.4375.34375-.102571.07315-.204318.153364-.3125.21875-.0074.0045-.02384-.0044-.03125 0-.232039.138728-.462548.274778-.71875.375.301527-.0968.596455-.204138.875-.34375.55709-.279224 1.060053-.665694 1.5-1.09375.219973-.214028.409366-.441865.59375-.6875s.355408-.507743.5-.78125c.14012-.265048.276135-.524729.375-.8125.01041-.03078.02133-.06274.03125-.09375.09046-.278085.1388-.579404.1875-.875.0524-.31805.09375-.634029.09375-.96875v-2-68-2c0-3.324-2.676-6-6-6z" fill="url(#g)" opacity=".5"/><path d="m12 90c-3.324 0-6-2.676-6-6v-2-68-2c0-.334721.04135-.6507.09375-.96875.0487-.295596.09704-.596915.1875-.875.00988-.03038.020892-.0636.03125-.09375.098865-.287771.2348802-.547452.375-.8125.1445918-.273507.3156161-.535615.5-.78125s.3737765-.473472.59375-.6875c.439947-.428056.94291-.814526 1.5-1.09375.278545-.139612.5734731-.246947.875-.34375-.2562018.100222-.4867109.236272-.71875.375-.00741.0044-.023866-.0045-.03125 0-.031933.0193-.062293.04251-.09375.0625-.120395.0767-.2310226.163513-.34375.25-.1061728.0808-.2132809.161112-.3125.25-.1779299.161433-.3474596.345388-.5.53125-.1075789.130255-.2183939.265285-.3125.40625-.025089.03838-.038446.08587-.0625.125-.064763.103032-.1302275.204517-.1875.3125-.1010083.194706-.2056748.415701-.28125.625-.00796.02181-.023589.04055-.03125.0625-.0318251.09195-.0358045.186831-.0625.28125-.0303323.106618-.0703894.203031-.09375.3125-.0728786.341512-.125.698205-.125 1.0625v2 68 2c0 2.781848 2.2181517 5 5 5h2 68 2c2.781848 0 5-2.218152 5-5v-2-68-2c0-.364295-.05212-.720988-.125-1.0625-.04415-.206893-.08838-.397658-.15625-.59375-.0077-.02195-.0233-.04069-.03125-.0625-.06274-.173739-.138383-.367449-.21875-.53125-.04158-.0828-.07904-.169954-.125-.25-.0546-.09721-.126774-.18835-.1875-.28125-.09411-.140965-.204921-.275995-.3125-.40625-.143174-.17445-.303141-.346998-.46875-.5-.01117-.0102-.01998-.02115-.03125-.03125-.138386-.125556-.285091-.234436-.4375-.34375-.102571-.07315-.204318-.153364-.3125-.21875-.0074-.0045-.02384.0044-.03125 0-.232039-.138728-.462548-.274778-.71875-.375.301527.0968.596455.204138.875.34375.55709.279224 1.060053.665694 1.5 1.09375.219973.214028.409366.441865.59375.6875s.355408.507743.5.78125c.14012.265048.276135.524729.375.8125.01041.03078.02133.06274.03125.09375.09046.278085.1388.579404.1875.875.0524.31805.09375.634029.09375.96875v2 68 2c0 3.324-2.676 6-6 6z" fill="url(#e)" opacity=".4"/><rect fill="#f0f" height="84" rx="6" width="84" x="-94" y="6"/><path d="m112 8h16v16h-16z" fill="#fff" stroke="#000" stroke-dashoffset="8.6" stroke-linecap="round" stroke-width=".5"/><text font-family="Liberation Sans" font-size="4" x="131.39261" y="11.969256"><tspan x="131.39261" y="11.969256">Width: 2px</tspan><tspan x="131.39261" y="16.969257">Blur: 12</tspan><tspan x="131.39261" y="21.969257">Opacity: 60</tspan></text></g><rect height="66" rx="12" style="opacity:.5;stroke:#fff;stroke-width:.5;stroke-linecap:round;clip-path:url(#k);fill:url(#m);filter:url(#l)" width="66" x="15" y="15"/></svg>