<?xml version="1.0" encoding="UTF-8"?>
<svg version="1.1" viewBox="0 0 512 512" xmlns="http://www.w3.org/2000/svg">
<linearGradient id="b" x1="48.714" x2="48.714" y1="76.203" y2="18.702" gradientTransform="matrix(7.6411,0,0,7.6411,-111.31,-112.94)" gradientUnits="userSpaceOnUse">
<stop stop-color="#dcdcdc" offset="0"/>
<stop stop-color="#f0f0f0" offset="1"/>
</linearGradient>
<linearGradient id="a" x1="11.087" x2="10.541" y1="15.373" y2="4.9937" gradientTransform="matrix(42.748,2.2528,-2.252,42.757,-179.91,-206.05)" gradientUnits="userSpaceOnUse">
<stop stop-color="#ff9604" offset="0"/>
<stop stop-color="#fff580" offset="1"/>
</linearGradient>
<path d="m249.97 14.817c0.0345-0.0024-0.65668 0.20807-0.95514 0.23879-0.0712 0.0073-0.24686 0.0011-0.23878 0-0.33087 0.06725-1.7281 0.25315-1.6715 0.23878 0.0642-0.0161-1.9726 0.50088-1.9103 0.47757 0.0626-0.02369-1.7309 0.98517-1.6715 0.95514 0.0594-0.0298-1.7273 0.99151-1.6715 0.95514 0.0559-0.03667-1.4841 0.9974-1.4327 0.95514 0.0511-0.04203-1.4792 1.4804-1.4327 1.4327 0.0467-0.04737-1.235 1.4852-1.1939 1.4327 0.0411-0.05271-1.2289 1.4894-1.1939 1.4327a9.5232 9.5232 0 0 0 0 0.23878c-15.882 26.534-28.621 54.229-42.504 79.995-0.099 0.18378-0.37845 0.29403-0.47757 0.47757a9.5232 9.5232 0 0 0-0.23688 0.22923 9.5232 9.5232 0 0 0-0.48138 1.192 9.5232 9.5232 0 0 0-0.23687 0.23688l-27.222 52.055c-48.752 8.6696-97.646 17.214-146.37 26.027 0.04204-8e-3 -1.2351 0.24941-1.1939 0.23879 0.04126-0.0106-1.2343 0.25231-1.1939 0.23879 0.0405-0.0136-1.2332 0.49392-1.1939 0.47757 0.03897-0.0162-0.9932 0.4966-0.95514 0.47756 0.03821-0.0183-1.2305 0.738-1.1939 0.71637 0.03667-0.0214-0.99014 0.50171-0.95514 0.47758 0.03514-0.0245-0.98838 0.74294-0.95514 0.71634 0.02903-0.0228-0.78857 0.57461-0.95514 0.71637v0.23879c-8.4091 7.7336-9.4445 18.573-6.686 26.982 1.5612 4.7589 4.8887 7.3474 7.8795 10.268a9.5232 9.5232 0 0 0 0 0.23878 9.5232 9.5232 0 0 0 2.1491 3.8206l96.706 100.05c-6.7616 48.605-13.918 97.172-20.296 146.14 0.0076-0.0612-0.0015 1.7332 0 1.6715 0.0015-0.062 0.0046 1.9717 0 1.9103-0.0046-0.0613 0.24971 1.7322 0.23879 1.6715-0.01058-0.0603 0.49461 1.7307 0.47757 1.6715a9.5232 9.5232 0 0 0 0 0.23879c1.9103 6.281 5.7996 11.019 11.706 14.098 5.0075 2.6108 10.102 3.1051 13.85 2.8654 4.9295-0.31528 8.1829-2.5279 11.7-4.2982 0.0634-0.0319 0.17598 0.0321 0.23879 0a9.5232 9.5232 0 0 0 4.7757-1.4289l0.23879-0.23881 0.95514-0.47755 122.02-59.456c43.082 21.109 86.368 42.455 129.9 63.278 0.25704 0.1229 0.45924 0.35465 0.71636 0.47757 0.12051 0.0656 0.24934 0.24405 0.23876 0.23881-0.0375-0.018 1.2328 0.49367 1.194 0.47757a9.5232 9.5232 0 0 0 0.71828 0.23687c10.962 3.4461 21.621-0.77879 27.461-9.313 3.7281-5.4479 4.1826-11.803 3.343-17.67a9.5232 9.5232 0 0 0 0-3.5818l-19.813-139.69c34.012-34.877 68.877-69.552 102.68-105.3 0.19453-0.20577 0.28312-0.5105 0.47759-0.71636 0.24404-0.23963 0.49367-0.49483 0.47757-0.47757-0.0367 0.0397 0.98815-1.2364 0.95513-1.1939-0.0329 0.0429 0.98433-1.2392 0.95514-1.194-0.0289 0.0451 0.74136-1.2416 0.71636-1.1939a9.5232 9.5232 0 0 0 0.47759-0.71634c4.2704-9.7043 1.869-20.25-4.7757-27.222-4.2943-4.5159-9.5744-5.983-14.564-6.6936a9.5232 9.5232 0 0 0-3.3392-1.192l-138.26-24.36c-23.252-43.616-46.023-87.858-69.962-131.57 4e-3 0.0062 0.0297-0.18508 0-0.23879-0.11911-0.21502-0.49132-0.73974-0.47757-0.71636 0.018 0.02903-0.49635-0.74463-0.47755-0.71636 0.0179 0.02827-0.49798-0.98227-0.47759-0.95514 0.0206 0.02749-0.49942-0.74234-0.47758-0.71636a9.5232 9.5232 0 0 0-0.24451-0.23687c-5.2877-5.899-12.042-7.091-16.001-7.4043-1.4929-0.11927-2.6859-0.20944-3.5818-0.23878-0.89593-0.02903-2.5352-0.2504-0.71636 0v0.23878c-0.29846-0.03056-0.9893-0.24115-0.95514-0.23878 0.0421 3e-3 -1.4751 0-1.4327 0 0.0421 0-1.2363 3e-3 -1.1939 0z" opacity=".05" stroke-width="7.6412"/>
<path d="m250.21 24.369a7.7038 7.7038 0 0 0-5.4921 3.5818c-15.92 26.597-28.969 54.985-43.459 81.669a7.7038 7.7038 0 0 0-0.23877 0l-29.373 56.346c-50.279 8.957-100.73 17.667-150.91 26.744a7.7038 7.7038 0 0 0-3.8206 1.9103c-5.0629 4.5748-5.7497 12.039-4.0594 17.193 1.4796 4.5105 4.5184 7.6048 8.1187 10.268l-0.23688 0.23687 100.05 103.39c-6.9458 50.187-14.449 100.31-21.013 150.68a7.7038 7.7038 0 0 0 0.23688 3.1023c1.0912 3.5874 3.8629 6.9999 6.9248 8.5963s6.1206 1.8451 8.8347 1.6715c4.948-0.3165 8.9455-2.2913 12.417-4.5369v0.23878l1.1939-0.71635 127.27-62.084c44.776 21.902 89.378 44.363 134.44 65.905a7.7038 7.7038 0 0 0 0.95516 0.47755c6.3669 2.0016 13.518-1.0589 16.715-5.7308 2.8346-4.1421 3.0332-9.313 1.4327-14.327h0.47757l-20.536-144.71c35.249-36.224 71.416-72.003 106.26-108.89a7.7038 7.7038 0 0 0 1.6811-2.1471c2.5674-5.8455 0.95514-12.707-2.8654-16.719-3.278-3.4385-8.1072-4.5159-12.891-4.5388l0.23687-0.71827-142.8-25.071c-24.093-45.083-47.482-90.907-72.109-135.87a7.7038 7.7038 0 0 0-0.95514-1.4327c-2.8723-3.1993-6.9715-4.092-9.5514-4.2981-2.58-0.20616-4.3647-0.18224-4.7757-0.23879a7.7038 7.7038 0 0 0-2.1491 0z" opacity=".1" stroke-width="7.6412"/>
<path d="m251.37 31.994c-15.65 26.146-28.694 54.358-43.33 81.309-10.355 19.826-20.71 39.651-31.065 59.476-51.57 9.1999-103.38 18.224-154.8 27.524-5.53 4.9969-1.2718 13.401 4.1536 16.766 34.183 35.306 68.366 70.613 102.55 105.92-7.0946 51.436-14.817 102.82-21.522 154.29 2.2698 7.4622 12.867 4.4294 17.507 1.1429 43.945-21.428 87.888-42.857 131.83-64.285 45.963 22.446 91.74 45.556 137.82 67.587 6.8396 2.1502 11.229-5.4909 8.5138-11.467-6.9611-49.553-13.93-99.106-20.891-148.66 36.135-37.212 73.179-73.714 108.75-111.36 2.8884-6.5638-3.1176-12.149-9.6813-11.339-48.72-8.6116-97.447-17.223-146.17-25.827-24.765-46.252-48.857-92.97-74.043-138.94-2.4987-2.7814-6.3498-1.6887-9.6202-2.1395z" opacity=".15" stroke-width="7.6412"/>
<path d="m26.229 205.79 155.57-26.878 73.696-139.63 73.661 139.68 155.56 26.964-110.09 113.2 22.418 156.31-141.65-69.718-141.68 69.626 22.518-156.25-110-113.29z" opacity=".3" stroke-width="7.6412"/>
<path d="m26.229 198.15 155.57-26.878 73.696-139.63 73.661 139.68 155.56 26.964-110.09 113.2 22.418 156.31-141.65-69.718-141.68 69.626 22.518-156.25-110-113.29z" fill="url(#a)" stroke-width="7.6412"/>
<g transform="matrix(7.6411,0,0,7.6411,-111.31,-112.94)" fill="#a40">
<path d="m48 23.728-7.999 15.193-16.934 2.935 11.973 12.311-2.467 17.012 15.427-7.584 15.401 7.584-2.441-17.012 11.973-12.311-16.908-2.935zm0.02598 4.0516 6.3631 12.129a1.8459 1.8456 1.5484 0 0 1.2467 0.96096l13.583 2.3115-9.5577 9.6876a1.8459 1.8456 1.5484 0 0-0.49347 1.4285l1.896 13.66-12.207-6.025a1.8459 1.8456 1.5484 0 0-1.6103 0.05194l-12.259 5.921 1.87-13.453a1.8459 1.8456 1.5484 0 0-0.49347-1.4804l-9.5317-9.8434 13.531-2.4933a1.8459 1.8456 1.5484 0 0 1.3505-0.93499l6.3112-11.921z" opacity=".1"/>
<path d="m48 22.299-8.481 16.109-17.953 3.111 12.694 13.052-2.616 18.036 16.356-8.04 16.329 8.04-2.589-18.036 12.694-13.052-17.925-3.111zm0.02754 4.2956 6.7463 12.859a1.9571 1.9567 1.5484 0 0 1.3217 1.0188l14.401 2.4507-10.133 10.271a1.9571 1.9567 1.5484 0 0-0.52318 1.5145l2.0101 14.484-12.942-6.3883a1.9571 1.9567 1.5484 0 0-1.7072 0.05507l-12.997 6.2782 1.9826-14.264a1.9571 1.9567 1.5484 0 0-0.524-1.571l-10.106-10.436 14.346-2.643a1.9571 1.9567 1.5484 0 0 1.4319-0.99129l6.6912-12.639z" opacity=".2"/>
<path d="m48 20.513-9.083 17.252-19.228 3.333 13.595 13.978-2.801 19.317 17.517-8.611 17.488 8.611-2.772-19.317 13.595-13.978-19.198-3.333zm0.02949 4.6005 7.2252 13.772a2.096 2.0956 1.5484 0 0 1.4156 1.0912l15.424 2.6247-10.853 11a2.096 2.0956 1.5484 0 0-0.56032 1.622l2.1528 15.512-13.861-6.8418a2.096 2.0956 1.5484 0 0-1.8284 0.05898l-13.92 6.724 2.123-15.276a2.096 2.0956 1.5484 0 0-0.56-1.681l-10.823-11.177 15.365-2.831a2.096 2.0956 1.5484 0 0 1.5335-1.0617l7.1662-13.536z" opacity=".4"/>
</g>
<path d="m255.46 31.528-73.546 139.7-155.69 26.981 110.08 113.18-22.679 156.41 141.83-69.725 141.6 69.725-22.442-156.41 110.08-113.18-155.45-26.981zm0.23879 37.251 58.502 111.51a16.972 16.968 1.5484 0 0 11.462 8.8347l124.89 21.252-87.873 89.065a16.972 16.968 1.5484 0 0-4.5312 13.143l17.431 125.61-112.23-55.398a16.972 16.968 1.5484 0 0-14.805 0.47757l-112.71 54.443 17.193-123.69a16.972 16.968 1.5484 0 0-4.5388-13.609l-87.636-90.502 124.41-22.923a16.972 16.968 1.5484 0 0 12.417-8.5963l58.025-109.6z" fill="url(#b)" stroke-width="7.6412"/>
</svg>
