<svg xmlns="http://www.w3.org/2000/svg" xmlns:xlink="http://www.w3.org/1999/xlink" width="512" height="512"><defs><linearGradient xlink:href="#a" id="i" x1="1012.513" x2="1006.808" y1="484.417" y2="20.626" gradientTransform="matrix(1.03178 0 0 1.03178 -830.864 592.678)" gradientUnits="userSpaceOnUse"/><linearGradient id="a" x1="45.448" x2="45.448" y1="92.54" y2="7.017" gradientTransform="matrix(1.00587 0 0 .99417 100 0)" gradientUnits="userSpaceOnUse"><stop offset="0" style="stop-color:#000;stop-opacity:1"/><stop offset="1" style="stop-color:#000;stop-opacity:.58823532"/></linearGradient><linearGradient xlink:href="#a" id="j" x1="1012.513" x2="1006.808" y1="484.417" y2="20.626" gradientTransform="matrix(1.04025 0 0 1.04025 -837.951 592.518)" gradientUnits="userSpaceOnUse"/><linearGradient xlink:href="#a" id="k" x1="1012.513" x2="1006.808" y1="484.417" y2="20.626" gradientTransform="matrix(1.0233 0 0 1.0233 -823.777 592.838)" gradientUnits="userSpaceOnUse"/><linearGradient xlink:href="#a" id="l" x1="1012.513" x2="1006.808" y1="484.417" y2="20.626" gradientTransform="translate(-816.69 592.997)scale(1.01483)" gradientUnits="userSpaceOnUse"/><linearGradient xlink:href="#a" id="m" x1="1012.513" x2="1006.808" y1="484.417" y2="20.626" gradientTransform="matrix(1.00742 0 0 1.00742 -810.489 593.137)" gradientUnits="userSpaceOnUse"/><linearGradient xlink:href="#b" id="K" x1="993.439" x2="988.786" y1="51.512" y2="363.738" gradientTransform="translate(778.6 -360.56)" gradientUnits="userSpaceOnUse"/><linearGradient id="b"><stop offset="0" style="stop-color:#fff;stop-opacity:1"/><stop offset="1" style="stop-color:#fff;stop-opacity:0"/></linearGradient><linearGradient xlink:href="#c" id="L" x1="1764.649" x2="1763.69" y1="155.597" y2="-55.941" gradientUnits="userSpaceOnUse"/><linearGradient id="c"><stop offset="0" style="stop-color:#000;stop-opacity:1"/><stop offset="1" style="stop-color:#fff;stop-opacity:.2"/></linearGradient><linearGradient id="f"><stop offset="0" style="stop-color:#fff;stop-opacity:1"/><stop offset="1" style="stop-color:#fff;stop-opacity:0"/></linearGradient><linearGradient xlink:href="#f" id="o" x1="49" x2="49" y1="46" y2="6" gradientTransform="matrix(1 0 0 .875 0 10.75)" gradientUnits="userSpaceOnUse" spreadMethod="reflect"/><linearGradient xlink:href="#f" id="p" x1="49" x2="49" y1="46" y2="6" gradientTransform="matrix(1 0 0 .875 6 10.75)" gradientUnits="userSpaceOnUse" spreadMethod="reflect"/><linearGradient xlink:href="#f" id="q" x1="49" x2="49" y1="46" y2="6" gradientTransform="matrix(1 0 0 .875 12 10.75)" gradientUnits="userSpaceOnUse" spreadMethod="reflect"/><linearGradient xlink:href="#f" id="r" x1="49" x2="49" y1="46" y2="6" gradientTransform="matrix(1 0 0 .875 14 10.75)" gradientUnits="userSpaceOnUse" spreadMethod="reflect"/><linearGradient xlink:href="#f" id="s" x1="49" x2="49" y1="46" y2="6" gradientTransform="matrix(1 0 0 .875 18 10.75)" gradientUnits="userSpaceOnUse" spreadMethod="reflect"/><linearGradient xlink:href="#f" id="t" x1="49" x2="49" y1="46" y2="9" gradientTransform="matrix(1 0 0 .875 22 10.75)" gradientUnits="userSpaceOnUse" spreadMethod="reflect"/><linearGradient xlink:href="#f" id="x" x1="49" x2="49" y1="46" y2="6" gradientTransform="matrix(1 0 0 .875 -4 10.75)" gradientUnits="userSpaceOnUse" spreadMethod="reflect"/><linearGradient xlink:href="#f" id="y" x1="49" x2="49" y1="46" y2="6" gradientTransform="matrix(1 0 0 .875 -8 10.75)" gradientUnits="userSpaceOnUse" spreadMethod="reflect"/><linearGradient xlink:href="#f" id="z" x1="49" x2="49" y1="46" y2="6" gradientTransform="matrix(1 0 0 .875 -10 10.75)" gradientUnits="userSpaceOnUse" spreadMethod="reflect"/><linearGradient xlink:href="#f" id="A" x1="49" x2="49" y1="46" y2="6" gradientTransform="matrix(1 0 0 .875 -16 10.75)" gradientUnits="userSpaceOnUse" spreadMethod="reflect"/><linearGradient xlink:href="#f" id="B" x1="49" x2="49" y1="46" y2="6" gradientTransform="matrix(1 0 0 .875 -20 10.75)" gradientUnits="userSpaceOnUse" spreadMethod="reflect"/><linearGradient xlink:href="#f" id="C" x1="49" x2="49" y1="46" y2="6" gradientTransform="matrix(1 0 0 .875 -22 10.75)" gradientUnits="userSpaceOnUse" spreadMethod="reflect"/><linearGradient xlink:href="#f" id="D" x1="49" x2="49" y1="46" y2="6" gradientTransform="matrix(1 0 0 .875 -24 10.75)" gradientUnits="userSpaceOnUse" spreadMethod="reflect"/><linearGradient xlink:href="#f" id="I" x1="49" x2="49" y1="46" y2="6" gradientTransform="matrix(1 0 0 .875 -2 10.75)" gradientUnits="userSpaceOnUse" spreadMethod="reflect"/><linearGradient id="g"><stop offset="0" style="stop-color:#465868;stop-opacity:1"/><stop offset="1" style="stop-color:#153451;stop-opacity:1"/></linearGradient><linearGradient id="h"><stop offset="0" style="stop-color:#fff;stop-opacity:1"/><stop offset="1" style="stop-color:#fff;stop-opacity:0"/></linearGradient><radialGradient xlink:href="#f" id="u" cx="77" cy="46" r="1" fx="77" fy="46" gradientTransform="matrix(15.00008 -.00003 .0001 33.25017 -1078.01 -1478.505)" gradientUnits="userSpaceOnUse" spreadMethod="pad"/><radialGradient xlink:href="#f" id="v" cx="83" cy="46" r="1" fx="83" fy="46" gradientTransform="matrix(13.00007 .00002 -.00005 28.00015 -996.004 -1237.008)" gradientUnits="userSpaceOnUse" spreadMethod="pad"/><radialGradient xlink:href="#f" id="w" cx="85" cy="46" r="1" fx="85" fy="46" gradientTransform="matrix(19.0001 -.00001 .00002 26.25014 -1530.01 -1156.505)" gradientUnits="userSpaceOnUse" spreadMethod="pad"/><radialGradient xlink:href="#f" id="E" cx="19" cy="46" r="1" fx="19" fy="46" gradientTransform="matrix(15.00008 -.00003 .0001 33.25017 -266.006 -1478.507)" gradientUnits="userSpaceOnUse" spreadMethod="pad"/><radialGradient xlink:href="#f" id="F" cx="17" cy="46" r="1" fx="17" fy="46" gradientTransform="matrix(19.0001 .00001 -.00003 30.62516 -306 -1357.758)" gradientUnits="userSpaceOnUse" spreadMethod="pad"/><radialGradient xlink:href="#f" id="G" cx="13" cy="46" r="1" fx="13" fy="46" gradientTransform="matrix(27.00014 0 0 28.00018 -338.002 -1237.008)" gradientUnits="userSpaceOnUse"/><radialGradient xlink:href="#f" id="H" cx="9" cy="46" r="1" fx="9" fy="46" gradientTransform="matrix(15.00008 -.00001 .00003 26.25014 -126.002 -1156.506)" gradientUnits="userSpaceOnUse" spreadMethod="pad"/><radialGradient xlink:href="#f" id="J" cx="79" cy="46" r="1" fx="79" fy="46" gradientTransform="matrix(11.09498 -.00001 .00005 31.50018 -797.506 -1398.007)" gradientUnits="userSpaceOnUse" spreadMethod="pad"/><radialGradient xlink:href="#g" id="n" cx="178.048" cy="103.942" r="21" fx="178.048" fy="103.942" gradientTransform="matrix(9.74307 .23482 .91472 9.2084 -1673.25 -842.508)" gradientUnits="userSpaceOnUse"/><radialGradient xlink:href="#h" id="P" cx="24.5" cy="12.5" r="2.5" fx="24.5" fy="12.5" gradientTransform="matrix(-11.05898 0 0 11.32302 644.098 124.877)" gradientUnits="userSpaceOnUse"/><radialGradient xlink:href="#h" id="O" cx="24.5" cy="12.5" r="2.5" fx="24.5" fy="12.5" gradientTransform="matrix(-11.05898 0 0 11.32302 564.275 82.621)" gradientUnits="userSpaceOnUse"/><radialGradient xlink:href="#h" id="N" cx="24.5" cy="12.5" r="2.5" fx="24.5" fy="12.5" gradientTransform="matrix(-11.05898 0 0 11.32302 611.199 26.313)" gradientUnits="userSpaceOnUse"/><radialGradient xlink:href="#h" id="M" cx="24.5" cy="12.5" r="2.5" fx="24.5" fy="12.5" gradientTransform="matrix(-11.05898 0 0 11.32302 498.582 45.082)" gradientUnits="userSpaceOnUse"/></defs><g transform="translate(-11.985 -592.117)"><rect width="487" height="487" x="31.985" y="612.117" ry="101.458" style="opacity:.1;color:#000;fill:url(#i);fill-opacity:1;fill-rule:nonzero;stroke:none;stroke-width:1.5;marker:none;visibility:visible;display:inline;overflow:visible"/><rect width="491" height="491" x="31.985" y="612.117" ry="102.292" style="opacity:.07999998;color:#000;fill:url(#j);fill-opacity:1;fill-rule:nonzero;stroke:none;stroke-width:1.5;marker:none;visibility:visible;display:inline;overflow:visible"/><rect width="483" height="483" x="31.985" y="612.117" ry="100.625" style="opacity:.2;color:#000;fill:url(#k);fill-opacity:1;fill-rule:nonzero;stroke:none;stroke-width:1.5;marker:none;visibility:visible;display:inline;overflow:visible"/><rect width="479" height="479" x="31.985" y="612.117" ry="99.792" style="opacity:.25;color:#000;fill:url(#l);fill-opacity:1;fill-rule:nonzero;stroke:none;stroke-width:1.5;marker:none;visibility:visible;display:inline;overflow:visible"/><rect width="475.5" height="475.5" x="31.985" y="612.117" ry="99.063" style="opacity:.25;color:#000;fill:url(#m);fill-opacity:1;fill-rule:nonzero;stroke:none;stroke-width:1.5;marker:none;visibility:visible;display:inline;overflow:visible"/></g><path d="M118.344 20C63.867 20 20 63.867 20 118.344v275.312C20 448.133 63.867 492 118.344 492h275.312C448.133 492 492 448.133 492 393.656V118.344C492 63.867 448.133 20 393.656 20z" style="fill:#e2e2e2;stroke:none;color:#000;fill-opacity:1;fill-rule:nonzero;marker:none;visibility:visible;display:inline;overflow:visible"/><path d="M141.656 60C96.413 60 60 96.413 60 141.656v174.219c0 22.88 9.318 43.513 24.375 58.313l46.438 46.437c.5 9.674 4.629 18.22 10.843 23.938L189.062 492h204.594C448.133 492 492 448.133 492 393.656V147.781l-63.156-63.156C414.029 69.429 393.34 60 370.344 60zm11.688 20h205.312C399.283 80 432 112.057 432 151.844V305c0 39.787-32.717 71.844-73.344 71.844H153.344C112.717 376.844 80 344.787 80 305V151.844C80 112.057 112.717 80 153.344 80" style="opacity:.85;color:#000;fill:#000;fill-opacity:.23529412;fill-rule:nonzero;stroke:none;stroke-width:2;marker:none;visibility:visible;display:inline;overflow:visible"/><path d="M141.656 60C96.413 60 60 96.413 60 141.656v174.219c0 41.552 30.72 75.679 70.781 80.969v21.781c0 18.49 13.135 33.375 29.438 33.375H351.78c16.303 0 29.438-14.885 29.438-33.375v-21.781C421.28 391.554 452 357.427 452 315.875V141.656C452 96.413 415.587 60 370.344 60zm11.688 20h205.312C399.283 80 432 112.057 432 151.844V305c0 39.787-32.717 71.844-73.344 71.844H153.344C112.717 376.844 80 344.787 80 305V151.844C80 112.057 112.717 80 153.344 80" style="opacity:.85;color:#000;fill:#000;fill-opacity:1;fill-rule:nonzero;stroke:none;stroke-width:2;marker:none;visibility:visible;display:inline;overflow:visible"/><path d="M141.688 60h228.625C415.556 60 452 95.845 452 140.344v171.312C452 356.155 415.556 392 370.313 392H141.688C96.444 392 60 356.155 60 311.656V140.344C60 95.845 96.444 60 141.688 60" style="opacity:.84999999999999998;color:#000;fill:url(#n);fill-opacity:1;fill-rule:evenodd;stroke:none;stroke-width:1;marker:none;visibility:visible;display:inline;overflow:visible" transform="matrix(.89796 0 0 .89412 26.122 26.353)"/><g style="opacity:.8;display:inline"><path d="M48 16h2v70h-2z" style="opacity:.15;color:#000;fill:url(#o);fill-opacity:1;fill-rule:nonzero;stroke:none;stroke-width:2;marker:none;visibility:visible;display:inline;overflow:visible" transform="matrix(4.28258 0 0 4.13652 54.719 17.46)"/><path d="M54 16h2v70h-2z" style="opacity:.2;color:#000;fill:url(#p);fill-opacity:1;fill-rule:nonzero;stroke:none;stroke-width:2;marker:none;visibility:visible;display:inline;overflow:visible" transform="matrix(4.28258 0 0 4.13652 54.719 17.46)"/><path d="M60 16h2v70h-2z" style="opacity:.12000002;color:#000;fill:url(#q);fill-opacity:1;fill-rule:nonzero;stroke:none;stroke-width:2;marker:none;visibility:visible;display:inline;overflow:visible" transform="matrix(4.28258 0 0 4.13652 54.719 17.46)"/><path d="M62 16h2v70h-2z" style="opacity:.16000001;color:#000;fill:url(#r);fill-opacity:1;fill-rule:nonzero;stroke:none;stroke-width:2;marker:none;visibility:visible;display:inline;overflow:visible" transform="matrix(4.28258 0 0 4.13652 54.719 17.46)"/><path d="M66 16h2v70h-2z" style="opacity:.07999998;color:#000;fill:url(#s);fill-opacity:1;fill-rule:nonzero;stroke:none;stroke-width:2;marker:none;visibility:visible;display:inline;overflow:visible" transform="matrix(4.28258 0 0 4.13652 54.719 17.46)"/><path d="M70 16h2v70h-2z" style="opacity:.2;color:#000;fill:url(#t);fill-opacity:1;fill-rule:nonzero;stroke:none;stroke-width:2;marker:none;visibility:visible;display:inline;overflow:visible" transform="matrix(4.28258 0 0 4.13652 54.719 17.46)"/><path d="M76 16h2v70h-2z" style="opacity:.15;color:#000;fill:url(#u);fill-opacity:1;fill-rule:nonzero;stroke:none;stroke-width:2;marker:none;visibility:visible;display:inline;overflow:visible" transform="matrix(4.28258 0 0 4.13652 54.719 17.46)"/><path d="M82 16h2v70h-2z" style="opacity:.12000002;color:#000;fill:url(#v);fill-opacity:1;fill-rule:nonzero;stroke:none;stroke-width:2;marker:none;visibility:visible;display:inline;overflow:visible" transform="matrix(4.28258 0 0 4.13652 54.719 17.46)"/><path d="M84 16h2v70h-2z" style="opacity:.06000001;color:#000;fill:url(#w);fill-opacity:1;fill-rule:nonzero;stroke:none;stroke-width:2;marker:none;visibility:visible;display:inline;overflow:visible" transform="matrix(4.28258 0 0 4.13652 54.719 17.46)"/><path d="M44 16h2v70h-2z" style="opacity:.1;color:#000;fill:url(#x);fill-opacity:1;fill-rule:nonzero;stroke:none;stroke-width:2;marker:none;visibility:visible;display:inline;overflow:visible" transform="matrix(4.28258 0 0 4.13652 54.719 17.46)"/><path d="M40 16h2v70h-2z" style="opacity:.2;color:#000;fill:url(#y);fill-opacity:1;fill-rule:nonzero;stroke:none;stroke-width:2;marker:none;visibility:visible;display:inline;overflow:visible" transform="matrix(4.28258 0 0 4.13652 54.719 17.46)"/><path d="M38 16h2v70h-2z" style="opacity:.15;color:#000;fill:url(#z);fill-opacity:1;fill-rule:nonzero;stroke:none;stroke-width:2;marker:none;visibility:visible;display:inline;overflow:visible" transform="matrix(4.28258 0 0 4.13652 54.719 17.46)"/><path d="M32 16h2v70h-2z" style="opacity:.1;color:#000;fill:url(#A);fill-opacity:1;fill-rule:nonzero;stroke:none;stroke-width:2;marker:none;visibility:visible;display:inline;overflow:visible" transform="matrix(4.28258 0 0 4.13652 54.719 17.46)"/><path d="M28 16h2v70h-2z" style="opacity:.16000001;color:#000;fill:url(#B);fill-opacity:1;fill-rule:nonzero;stroke:none;stroke-width:2;marker:none;visibility:visible;display:inline;overflow:visible" transform="matrix(4.28258 0 0 4.13652 54.719 17.46)"/><path d="M26 16h2v70h-2z" style="opacity:.1;color:#000;fill:url(#C);fill-opacity:1;fill-rule:nonzero;stroke:none;stroke-width:2;marker:none;visibility:visible;display:inline;overflow:visible" transform="matrix(4.28258 0 0 4.13652 54.719 17.46)"/><path d="M24 16h2v70h-2z" style="opacity:.06000001;color:#000;fill:url(#D);fill-opacity:1;fill-rule:nonzero;stroke:none;stroke-width:2;marker:none;visibility:visible;display:inline;overflow:visible" transform="matrix(4.28258 0 0 4.13652 54.719 17.46)"/><path d="M18 16h2v70h-2z" style="opacity:.2;color:#000;fill:url(#E);fill-opacity:1;fill-rule:nonzero;stroke:none;stroke-width:2;marker:none;visibility:visible;display:inline;overflow:visible" transform="matrix(4.28258 0 0 4.13652 54.719 17.46)"/><path d="M16 16h2v70h-2z" style="opacity:.15;color:#000;fill:url(#F);fill-opacity:1;fill-rule:nonzero;stroke:none;stroke-width:2;marker:none;visibility:visible;display:inline;overflow:visible" transform="matrix(4.28258 0 0 4.13652 54.719 17.46)"/><path d="M12 16h2v70h-2z" style="opacity:.15;color:#000;fill:url(#G);fill-opacity:1;fill-rule:nonzero;stroke:none;stroke-width:2;marker:none;visibility:visible;display:inline;overflow:visible" transform="matrix(4.28258 0 0 4.13652 54.719 17.46)"/><path d="M8 16h2v70H8z" style="opacity:.1;color:#000;fill:url(#H);fill-opacity:1;fill-rule:nonzero;stroke:none;stroke-width:2;marker:none;visibility:visible;display:inline;overflow:visible" transform="matrix(4.28258 0 0 4.13652 54.719 17.46)"/><path d="M46 16h2v70h-2z" style="opacity:.05;color:#000;fill:url(#I);fill-opacity:1;fill-rule:nonzero;stroke:none;stroke-width:2;marker:none;visibility:visible;display:inline;overflow:visible" transform="matrix(4.28258 0 0 4.13652 54.719 17.46)"/><path d="M78 16h2v70h-2z" style="opacity:.05;color:#000;fill:url(#J);fill-opacity:1;fill-rule:nonzero;stroke:none;stroke-width:2;marker:none;visibility:visible;display:inline;overflow:visible" transform="matrix(4.28258 0 0 4.13652 54.719 17.46)"/></g><path d="M1650.5-310.416c-54.477 0-98.313 43.836-98.313 98.312V63.24c0 54.477 43.836 98.344 98.312 98.344h2.938c-53.323 0-96.25-42.928-96.25-96.25v-269.5c0-53.323 42.927-96.25 96.25-96.25h269.5c53.323 0 96.25 42.927 96.25 96.25v269.5c0 53.322-42.927 96.25-96.25 96.25h2.906c54.477 0 98.344-43.867 98.344-98.344v-275.344c0-54.476-43.867-98.312-98.344-98.312z" style="opacity:.5;color:#000;fill:url(#K);fill-opacity:1;fill-rule:nonzero;stroke:none;stroke-width:1.5;marker:none;visibility:visible;display:inline;overflow:visible" transform="translate(-1532.187 330.416)"/><path d="M1650.5 161.584c-54.477 0-98.313-43.836-98.313-98.313v-275.343c0-54.477 43.836-98.344 98.312-98.344h2.938c-53.323 0-96.25 42.927-96.25 96.25v269.5c0 53.322 42.927 96.25 96.25 96.25h269.5c53.323 0 96.25-42.928 96.25-96.25v-269.5c0-53.323-42.927-96.25-96.25-96.25h2.906c54.477 0 98.344 43.867 98.344 98.344V63.27c0 54.477-43.867 98.313-98.344 98.313z" style="opacity:.2;color:#000;fill:url(#L);fill-opacity:1;fill-rule:nonzero;stroke:none;stroke-width:1.5;marker:none;visibility:visible;display:inline;overflow:visible" transform="translate(-1532.187 330.416)"/><path d="M155.527 402.708c-3.113 0-5.625 2.374-5.625 5.328v21.343c0 2.954 2.512 5.329 5.625 5.329s5.625-2.375 5.625-5.33v-21.342c0-2.954-2.512-5.328-5.625-5.328m22.469 0c-3.113 0-5.625 2.374-5.625 5.328v21.343c0 2.954 2.512 5.329 5.625 5.329s5.625-2.375 5.625-5.33v-21.342c0-2.954-2.512-5.328-5.625-5.328m22.469 0c-3.113 0-5.625 2.374-5.625 5.328v21.343c0 2.954 2.512 5.329 5.625 5.329s5.625-2.375 5.625-5.33v-21.342c0-2.954-2.512-5.328-5.625-5.328m22.468 0c-3.112 0-5.593 2.374-5.593 5.328v21.343c0 2.954 2.48 5.329 5.593 5.329s5.625-2.375 5.625-5.33v-21.342c0-2.954-2.512-5.328-5.625-5.328m22.5 0c-3.112 0-5.625 2.374-5.625 5.328v21.343c0 2.954 2.513 5.329 5.625 5.329s5.625-2.375 5.625-5.33v-21.342c0-2.954-2.512-5.328-5.625-5.328m22.47 0c-3.114 0-5.626 2.374-5.626 5.328v21.343c0 2.954 2.512 5.329 5.625 5.329s5.625-2.375 5.625-5.33v-21.342c0-2.954-2.512-5.328-5.625-5.328m22.468 0c-3.113 0-5.625 2.374-5.625 5.328v21.343c0 2.954 2.512 5.329 5.625 5.329s5.625-2.375 5.625-5.33v-21.342c0-2.954-2.512-5.328-5.625-5.328m22.469 0c-3.113 0-5.594 2.374-5.594 5.328v21.343c0 2.954 2.48 5.329 5.594 5.329 3.113 0 5.625-2.375 5.625-5.33v-21.342c0-2.954-2.512-5.328-5.625-5.328" style="opacity:.85;color:#000;fill:#000;fill-opacity:1;fill-rule:nonzero;stroke:none;stroke-width:1;marker:none;visibility:visible;display:inline;overflow:visible" transform="translate(0 2)"/><path d="M362.098 418.708c0 6.77-5.032 12.26-11.238 12.26-6.207 0-11.238-5.49-11.238-12.26 0-6.771 5.031-12.26 11.238-12.26s11.238 5.489 11.238 12.26" style="opacity:.85;color:#000;fill:#e2e2e2;fill-opacity:1;fill-rule:nonzero;stroke:none;stroke-width:2;marker:none;visibility:visible;display:inline;overflow:visible" transform="translate(0 2)"/><path d="M130.781 584.844v21.781c0 18.49 13.135 33.375 29.438 33.375H351.78c16.303 0 29.438-14.885 29.438-33.375v-21.781z" style="opacity:.85;color:#000;fill:#000;fill-opacity:1;fill-rule:nonzero;stroke:none;stroke-width:2;marker:none;visibility:visible;display:inline;overflow:visible"/><path d="m227.584 153.774 4.745 28.154 28.155 3.976-28.155 5.409-5.16 28.154-4.224-28.154-28.155-4.372 28.155-5.013z" style="fill:url(#M);fill-opacity:1;fill-rule:evenodd;stroke:none"/><path d="m340.2 135.004 4.746 28.154 28.154 3.977-28.154 5.408-5.16 28.154-4.225-28.154-28.154-4.371 28.154-5.014z" style="fill:url(#N);fill-opacity:1;fill-rule:evenodd;stroke:none"/><path d="m293.277 191.313 4.745 28.154 28.155 3.976-28.155 5.409-5.16 28.154-4.224-28.154-28.154-4.372 28.154-5.013z" style="fill:url(#O);fill-opacity:1;fill-rule:evenodd;stroke:none"/><path d="M149.438 177.531a3.8 3.8 0 0 0-1.47.406c-24.844 12.497-41.905 38.303-41.905 67.97 0 21.456 8.915 40.851 23.218 54.687L280.656 452h71.125c16.303 0 29.438-14.885 29.438-33.375v-17l-129.5-129.312c-.932-1.688-3.273-2.42-5-1.563-.506.255-1.02.508-1.531.75l-92.157-91.969a3.83 3.83 0 0 0-2.218-1.812 3.8 3.8 0 0 0-1.375-.188" style="font-size:medium;font-style:normal;font-variant:normal;font-weight:400;font-stretch:normal;text-indent:0;text-align:start;text-decoration:none;line-height:normal;letter-spacing:normal;word-spacing:normal;text-transform:none;direction:ltr;block-progression:tb;writing-mode:lr-tb;text-anchor:start;baseline-shift:baseline;opacity:.9;color:#000;fill:#000;fill-opacity:.23529412;fill-rule:nonzero;stroke:none;stroke-width:.99998039;marker:none;visibility:visible;display:inline;overflow:visible;font-family:Sans;-inkscape-font-specification:Sans"/><path d="m373.1 233.568 4.746 28.155L406 265.699l-28.154 5.408-5.16 28.154-4.225-28.154-28.154-4.371 28.154-5.013z" style="fill:url(#P);fill-opacity:1;fill-rule:evenodd;stroke:none"/><path d="M149.437 177.531a3.8 3.8 0 0 0-1.468.407c-24.845 12.496-41.907 38.302-41.907 67.968 0 41.893 33.89 76 75.782 76 31.412 0 58.548-19.125 70.093-46.406a3.789 3.789 0 0 0-5.218-4.75c-9.23 4.642-19.487 7.125-30.532 7.125-37.797 0-68.218-30.64-68.218-68.437 0-9.475 1.77-18.383 5.218-26.532a3.79 3.79 0 0 0-2.375-5.187 3.8 3.8 0 0 0-1.375-.188" style="font-size:medium;font-style:normal;font-variant:normal;font-weight:400;font-stretch:normal;text-indent:0;text-align:start;text-decoration:none;line-height:normal;letter-spacing:normal;word-spacing:normal;text-transform:none;direction:ltr;block-progression:tb;writing-mode:lr-tb;text-anchor:start;baseline-shift:baseline;opacity:.9;color:#000;fill:#eeeeec;fill-opacity:1;fill-rule:nonzero;stroke:none;stroke-width:.99998039;marker:none;visibility:visible;display:inline;overflow:visible;font-family:Sans;-inkscape-font-specification:Sans"/></svg>