<svg xmlns="http://www.w3.org/2000/svg" xmlns:xlink="http://www.w3.org/1999/xlink" width="512" height="512"><defs><linearGradient xlink:href="#a" id="f" x1="1012.513" x2="1006.808" y1="484.417" y2="20.626" gradientTransform="matrix(1.03178 0 0 1.03178 -830.864 592.678)" gradientUnits="userSpaceOnUse"/><linearGradient id="a" x1="45.448" x2="45.448" y1="92.54" y2="7.017" gradientTransform="matrix(1.00587 0 0 .99417 100 0)" gradientUnits="userSpaceOnUse"><stop offset="0" style="stop-color:#000;stop-opacity:1"/><stop offset="1" style="stop-color:#000;stop-opacity:.58823532"/></linearGradient><linearGradient xlink:href="#a" id="g" x1="1012.513" x2="1006.808" y1="484.417" y2="20.626" gradientTransform="matrix(1.04025 0 0 1.04025 -837.951 592.518)" gradientUnits="userSpaceOnUse"/><linearGradient xlink:href="#a" id="h" x1="1012.513" x2="1006.808" y1="484.417" y2="20.626" gradientTransform="matrix(1.0233 0 0 1.0233 -823.777 592.838)" gradientUnits="userSpaceOnUse"/><linearGradient xlink:href="#a" id="i" x1="1012.513" x2="1006.808" y1="484.417" y2="20.626" gradientTransform="translate(-816.69 592.997)scale(1.01483)" gradientUnits="userSpaceOnUse"/><linearGradient xlink:href="#a" id="j" x1="1012.513" x2="1006.808" y1="484.417" y2="20.626" gradientTransform="matrix(1.00742 0 0 1.00742 -810.489 593.137)" gradientUnits="userSpaceOnUse"/><linearGradient xlink:href="#b" id="k" x1="993.439" x2="988.786" y1="51.512" y2="363.738" gradientTransform="translate(778.6 -360.56)" gradientUnits="userSpaceOnUse"/><linearGradient id="b"><stop offset="0" style="stop-color:#fff;stop-opacity:1"/><stop offset="1" style="stop-color:#fff;stop-opacity:0"/></linearGradient><linearGradient xlink:href="#c" id="l" x1="1764.649" x2="1763.69" y1="155.597" y2="-55.941" gradientUnits="userSpaceOnUse"/><linearGradient id="c"><stop offset="0" style="stop-color:#000;stop-opacity:1"/><stop offset="1" style="stop-color:#fff;stop-opacity:.2"/></linearGradient></defs><g transform="translate(-11.985 -592.117)"><rect width="487" height="487" x="31.985" y="612.117" ry="101.458" style="opacity:.1;color:#000;fill:url(#f);fill-opacity:1;fill-rule:nonzero;stroke:none;stroke-width:1.5;marker:none;visibility:visible;display:inline;overflow:visible"/><rect width="491" height="491" x="31.985" y="612.117" ry="102.292" style="opacity:.07999998;color:#000;fill:url(#g);fill-opacity:1;fill-rule:nonzero;stroke:none;stroke-width:1.5;marker:none;visibility:visible;display:inline;overflow:visible"/><rect width="483" height="483" x="31.985" y="612.117" ry="100.625" style="opacity:.2;color:#000;fill:url(#h);fill-opacity:1;fill-rule:nonzero;stroke:none;stroke-width:1.5;marker:none;visibility:visible;display:inline;overflow:visible"/><rect width="479" height="479" x="31.985" y="612.117" ry="99.792" style="opacity:.25;color:#000;fill:url(#i);fill-opacity:1;fill-rule:nonzero;stroke:none;stroke-width:1.5;marker:none;visibility:visible;display:inline;overflow:visible"/><rect width="475.5" height="475.5" x="31.985" y="612.117" ry="99.063" style="opacity:.25;color:#000;fill:url(#j);fill-opacity:1;fill-rule:nonzero;stroke:none;stroke-width:1.5;marker:none;visibility:visible;display:inline;overflow:visible"/></g><path d="M118.344 20C63.867 20 20 63.867 20 118.344v275.312C20 448.133 63.867 492 118.344 492h275.312C448.133 492 492 448.133 492 393.656V118.344C492 63.867 448.133 20 393.656 20z" style="fill:#6fa91f;stroke:none;color:#000;fill-opacity:1;fill-rule:nonzero;stroke-width:1;stroke-linecap:butt;stroke-linejoin:miter;stroke-miterlimit:4;stroke-opacity:1;stroke-dasharray:none;stroke-dashoffset:0;marker:none;visibility:visible;display:inline;overflow:visible"/><path d="M220.906 121.094C146.511 121.094 86 181.604 86 256c0 37.556 15.435 71.578 40.281 96.063L266.22 492h127.437C448.133 492 492 448.133 492 393.656v-70.281L368.813 200.188c-.577-.583-1.397-.916-2.188-.844-.264.023-.497.05-.75.156a2.76 2.76 0 0 0-1.687 2.531v7.031l-45.782-45.78c-25.163-26.242-60.5-42.188-97.5-42.188" style="fill:#000;fill-opacity:.23529412;overflow:visible;filter:url(#filter1111)"/><path d="M220.92 121.08C146.525 121.08 86 181.605 86 256s60.525 134.92 134.92 134.92c53.121 0 101.504-31.435 123.2-80.109.374-.836.243-1.845-.253-2.614-.5-.763-1.362-1.18-2.277-1.18h-49.752c-.844 0-1.682.34-2.192 1.012-16.31 21.463-41.998 34.32-68.725 34.32-47.614 0-86.35-38.736-86.35-86.349s38.736-86.349 86.35-86.349c27.888 0 54.265 13.655 70.495 36.597.508.715 1.316 1.18 2.193 1.18h49.077c.904 0 1.69-.424 2.193-1.18.499-.753.606-1.696.252-2.53-20.91-49.405-70.82-82.638-124.21-82.638m145.714 78.253a2.4 2.4 0 0 0-.759.169 2.76 2.76 0 0 0-1.686 2.53v29.682h-97.143a2.7 2.7 0 0 0-2.698 2.699v45.62a2.696 2.696 0 0 0 2.698 2.698h97.143v29.682a2.63 2.63 0 0 0 1.602 2.446c.99.426 2.166.23 2.952-.506l56.413-53.125c.526-.5.833-1.211.843-1.94a2.67 2.67 0 0 0-.758-1.94l-56.414-57.172c-.577-.582-1.401-.915-2.193-.843z" style="fill:#fff;overflow:visible;filter:url(#filter1111)"/><path d="M1650.5-310.416c-54.477 0-98.313 43.836-98.313 98.312V63.24c0 54.477 43.836 98.344 98.312 98.344h2.938c-53.323 0-96.25-42.928-96.25-96.25v-269.5c0-53.323 42.927-96.25 96.25-96.25h269.5c53.323 0 96.25 42.927 96.25 96.25v269.5c0 53.322-42.927 96.25-96.25 96.25h2.906c54.477 0 98.344-43.867 98.344-98.344v-275.344c0-54.476-43.867-98.312-98.344-98.312z" style="opacity:.5;color:#000;fill:url(#k);fill-opacity:1;fill-rule:nonzero;stroke:none;stroke-width:1.5;marker:none;visibility:visible;display:inline;overflow:visible" transform="translate(-1532.187 330.416)"/><path d="M1650.5 161.584c-54.477 0-98.313-43.836-98.313-98.313v-275.343c0-54.477 43.836-98.344 98.312-98.344h2.938c-53.323 0-96.25 42.927-96.25 96.25v269.5c0 53.322 42.927 96.25 96.25 96.25h269.5c53.323 0 96.25-42.928 96.25-96.25v-269.5c0-53.323-42.927-96.25-96.25-96.25h2.906c54.477 0 98.344 43.867 98.344 98.344V63.27c0 54.477-43.867 98.313-98.344 98.313z" style="opacity:.2;color:#000;fill:url(#l);fill-opacity:1;fill-rule:nonzero;stroke:none;stroke-width:1.5;marker:none;visibility:visible;display:inline;overflow:visible" transform="translate(-1532.187 330.416)"/></svg>