<svg xmlns="http://www.w3.org/2000/svg" xmlns:xlink="http://www.w3.org/1999/xlink" width="512" height="512"><defs><linearGradient xlink:href="#a" id="d" x1="1012.513" x2="1006.808" y1="484.417" y2="20.626" gradientTransform="matrix(1.03178 0 0 1.03178 -830.864 592.678)" gradientUnits="userSpaceOnUse"/><linearGradient id="a" x1="45.448" x2="45.448" y1="92.54" y2="7.017" gradientTransform="matrix(1.00587 0 0 .99417 100 0)" gradientUnits="userSpaceOnUse"><stop offset="0" style="stop-color:#000;stop-opacity:1"/><stop offset="1" style="stop-color:#000;stop-opacity:.58823532"/></linearGradient><linearGradient xlink:href="#a" id="e" x1="1012.513" x2="1006.808" y1="484.417" y2="20.626" gradientTransform="matrix(1.04025 0 0 1.04025 -837.951 592.518)" gradientUnits="userSpaceOnUse"/><linearGradient xlink:href="#a" id="f" x1="1012.513" x2="1006.808" y1="484.417" y2="20.626" gradientTransform="matrix(1.0233 0 0 1.0233 -823.777 592.838)" gradientUnits="userSpaceOnUse"/><linearGradient xlink:href="#a" id="g" x1="1012.513" x2="1006.808" y1="484.417" y2="20.626" gradientTransform="translate(-816.69 592.997)scale(1.01483)" gradientUnits="userSpaceOnUse"/><linearGradient xlink:href="#a" id="h" x1="1012.513" x2="1006.808" y1="484.417" y2="20.626" gradientTransform="matrix(1.00742 0 0 1.00742 -810.489 593.137)" gradientUnits="userSpaceOnUse"/><linearGradient xlink:href="#b" id="i" x1="993.439" x2="988.786" y1="51.512" y2="363.738" gradientTransform="translate(778.6 -360.56)" gradientUnits="userSpaceOnUse"/><linearGradient id="b"><stop offset="0" style="stop-color:#fff;stop-opacity:1"/><stop offset="1" style="stop-color:#fff;stop-opacity:0"/></linearGradient><linearGradient xlink:href="#c" id="j" x1="1764.649" x2="1763.69" y1="155.597" y2="-55.941" gradientUnits="userSpaceOnUse"/><linearGradient id="c"><stop offset="0" style="stop-color:#000;stop-opacity:1"/><stop offset="1" style="stop-color:#fff;stop-opacity:.2"/></linearGradient></defs><g transform="translate(-11.985 -592.117)"><rect width="487" height="487" x="31.985" y="612.117" ry="101.458" style="opacity:.1;color:#000;fill:url(#d);fill-opacity:1;fill-rule:nonzero;stroke:none;stroke-width:1.5;marker:none;visibility:visible;display:inline;overflow:visible"/><rect width="491" height="491" x="31.985" y="612.117" ry="102.292" style="opacity:.07999998;color:#000;fill:url(#e);fill-opacity:1;fill-rule:nonzero;stroke:none;stroke-width:1.5;marker:none;visibility:visible;display:inline;overflow:visible"/><rect width="483" height="483" x="31.985" y="612.117" ry="100.625" style="opacity:.2;color:#000;fill:url(#f);fill-opacity:1;fill-rule:nonzero;stroke:none;stroke-width:1.5;marker:none;visibility:visible;display:inline;overflow:visible"/><rect width="479" height="479" x="31.985" y="612.117" ry="99.792" style="opacity:.25;color:#000;fill:url(#g);fill-opacity:1;fill-rule:nonzero;stroke:none;stroke-width:1.5;marker:none;visibility:visible;display:inline;overflow:visible"/><rect width="475.5" height="475.5" x="31.985" y="612.117" ry="99.063" style="opacity:.25;color:#000;fill:url(#h);fill-opacity:1;fill-rule:nonzero;stroke:none;stroke-width:1.5;marker:none;visibility:visible;display:inline;overflow:visible"/></g><path d="M118.344 20C63.867 20 20 63.867 20 118.344v275.312C20 448.133 63.867 492 118.344 492h275.312C448.133 492 492 448.133 492 393.656V118.344C492 63.867 448.133 20 393.656 20z" style="fill:#dc322f;stroke:none;color:#000;fill-opacity:1;fill-rule:evenodd;stroke-width:1;stroke-linecap:butt;stroke-linejoin:miter;stroke-miterlimit:4;stroke-opacity:1;stroke-dasharray:none;stroke-dashoffset:0;marker:none;visibility:visible;display:inline;overflow:visible"/><path d="M231 106v33.656l-25-27.75c-58.276 20.77-100 76.798-100 142.719 0 42.716 17.55 81.29 45.75 108.813L280.313 492h113.343C448.133 492 492 448.133 492 393.656V277.563L362.219 147.78c-15.685-15.867-34.831-28.252-56.219-35.875V133l-25-27z" style="fill:#000;fill-opacity:.23529412"/><path d="M231 106v151.406h50V106zm-25 5.906c-58.276 20.77-100 76.798-100 142.719C106 338.225 173.163 406 256 406s150-67.775 150-151.375c0-65.921-41.724-121.948-100-142.719v55.969c29.846 17.457 50 49.435 50 86.75 0 55.733-44.775 100.906-100 100.906s-100-45.173-100-100.906c0-37.315 20.154-69.293 50-86.75z" style="fill:#fff;fill-opacity:1"/><path d="M1650.5-310.416c-54.477 0-98.313 43.836-98.313 98.312V63.24c0 54.477 43.836 98.344 98.312 98.344h2.938c-53.323 0-96.25-42.928-96.25-96.25v-269.5c0-53.323 42.927-96.25 96.25-96.25h269.5c53.323 0 96.25 42.927 96.25 96.25v269.5c0 53.322-42.927 96.25-96.25 96.25h2.906c54.477 0 98.344-43.867 98.344-98.344v-275.344c0-54.476-43.867-98.312-98.344-98.312z" style="opacity:.5;color:#000;fill:url(#i);fill-opacity:1;fill-rule:nonzero;stroke:none;stroke-width:1.5;marker:none;visibility:visible;display:inline;overflow:visible" transform="translate(-1532.187 330.416)"/><path d="M1650.5 161.584c-54.477 0-98.313-43.836-98.313-98.313v-275.343c0-54.477 43.836-98.344 98.312-98.344h2.938c-53.323 0-96.25 42.927-96.25 96.25v269.5c0 53.322 42.927 96.25 96.25 96.25h269.5c53.323 0 96.25-42.928 96.25-96.25v-269.5c0-53.323-42.927-96.25-96.25-96.25h2.906c54.477 0 98.344 43.867 98.344 98.344V63.27c0 54.477-43.867 98.313-98.344 98.313z" style="opacity:.2;color:#000;fill:url(#j);fill-opacity:1;fill-rule:nonzero;stroke:none;stroke-width:1.5;marker:none;visibility:visible;display:inline;overflow:visible" transform="translate(-1532.187 330.416)"/></svg>