<svg xmlns="http://www.w3.org/2000/svg" xmlns:xlink="http://www.w3.org/1999/xlink" width="512" height="512"><defs><linearGradient xlink:href="#a" id="e" x1="1012.513" x2="1006.808" y1="484.417" y2="20.626" gradientTransform="matrix(1.03178 0 0 1.03178 -830.864 592.678)" gradientUnits="userSpaceOnUse"/><linearGradient id="a" x1="45.448" x2="45.448" y1="92.54" y2="7.017" gradientTransform="matrix(1.00587 0 0 .99417 100 0)" gradientUnits="userSpaceOnUse"><stop offset="0" style="stop-color:#000;stop-opacity:1"/><stop offset="1" style="stop-color:#000;stop-opacity:.58823532"/></linearGradient><linearGradient xlink:href="#a" id="f" x1="1012.513" x2="1006.808" y1="484.417" y2="20.626" gradientTransform="matrix(1.04025 0 0 1.04025 -837.951 592.518)" gradientUnits="userSpaceOnUse"/><linearGradient xlink:href="#a" id="g" x1="1012.513" x2="1006.808" y1="484.417" y2="20.626" gradientTransform="matrix(1.0233 0 0 1.0233 -823.777 592.838)" gradientUnits="userSpaceOnUse"/><linearGradient xlink:href="#a" id="h" x1="1012.513" x2="1006.808" y1="484.417" y2="20.626" gradientTransform="translate(-816.69 592.997)scale(1.01483)" gradientUnits="userSpaceOnUse"/><linearGradient xlink:href="#a" id="i" x1="1012.513" x2="1006.808" y1="484.417" y2="20.626" gradientTransform="matrix(1.00742 0 0 1.00742 -810.489 593.137)" gradientUnits="userSpaceOnUse"/><linearGradient xlink:href="#b" id="k" x1="993.439" x2="988.786" y1="51.512" y2="363.738" gradientTransform="translate(778.6 -360.56)" gradientUnits="userSpaceOnUse"/><linearGradient id="b"><stop offset="0" style="stop-color:#fff;stop-opacity:1"/><stop offset="1" style="stop-color:#fff;stop-opacity:0"/></linearGradient><linearGradient xlink:href="#c" id="l" x1="1764.649" x2="1763.69" y1="155.597" y2="-55.941" gradientUnits="userSpaceOnUse"/><linearGradient id="c"><stop offset="0" style="stop-color:#000;stop-opacity:1"/><stop offset="1" style="stop-color:#fff;stop-opacity:.2"/></linearGradient><linearGradient xlink:href="#d" id="j" x1="511" x2="511" y1="515" y2="24" gradientTransform="translate(0 -4)" gradientUnits="userSpaceOnUse"/><linearGradient id="d"><stop offset="0" style="stop-color:#21759b;stop-opacity:1"/><stop offset="1" style="stop-color:#478aa9;stop-opacity:1"/></linearGradient></defs><g transform="translate(-11.985 -592.117)"><rect width="487" height="487" x="31.985" y="612.117" ry="101.458" style="opacity:.1;color:#000;fill:url(#e);fill-opacity:1;fill-rule:nonzero;stroke:none;stroke-width:1.5;marker:none;visibility:visible;display:inline;overflow:visible"/><rect width="491" height="491" x="31.985" y="612.117" ry="102.292" style="opacity:.07999998;color:#000;fill:url(#f);fill-opacity:1;fill-rule:nonzero;stroke:none;stroke-width:1.5;marker:none;visibility:visible;display:inline;overflow:visible"/><rect width="483" height="483" x="31.985" y="612.117" ry="100.625" style="opacity:.2;color:#000;fill:url(#g);fill-opacity:1;fill-rule:nonzero;stroke:none;stroke-width:1.5;marker:none;visibility:visible;display:inline;overflow:visible"/><rect width="479" height="479" x="31.985" y="612.117" ry="99.792" style="opacity:.25;color:#000;fill:url(#h);fill-opacity:1;fill-rule:nonzero;stroke:none;stroke-width:1.5;marker:none;visibility:visible;display:inline;overflow:visible"/><rect width="475.5" height="475.5" x="31.985" y="612.117" ry="99.063" style="opacity:.25;color:#000;fill:url(#i);fill-opacity:1;fill-rule:nonzero;stroke:none;stroke-width:1.5;marker:none;visibility:visible;display:inline;overflow:visible"/></g><path d="M118.344 20C63.867 20 20 63.867 20 118.344v275.312C20 448.133 63.867 492 118.344 492h275.312C448.133 492 492 448.133 492 393.656V118.344C492 63.867 448.133 20 393.656 20z" style="fill:url(#j);stroke:none;color:#bebebe;fill-opacity:1;fill-rule:nonzero;stroke-width:0;marker:none;visibility:visible;display:inline;overflow:visible"/><path d="M1650.5-310.416c-54.477 0-98.313 43.836-98.313 98.312V63.24c0 54.477 43.836 98.344 98.312 98.344h2.938c-53.323 0-96.25-42.928-96.25-96.25v-269.5c0-53.323 42.927-96.25 96.25-96.25h269.5c53.323 0 96.25 42.927 96.25 96.25v269.5c0 53.322-42.927 96.25-96.25 96.25h2.906c54.477 0 98.344-43.867 98.344-98.344v-275.344c0-54.476-43.867-98.312-98.344-98.312z" style="opacity:.5;color:#000;fill:url(#k);fill-opacity:1;fill-rule:nonzero;stroke:none;stroke-width:1.5;marker:none;visibility:visible;display:inline;overflow:visible" transform="translate(-1532.187 330.416)"/><path d="M1650.5 161.584c-54.477 0-98.313-43.836-98.313-98.313v-275.343c0-54.477 43.836-98.344 98.312-98.344h2.938c-53.323 0-96.25 42.927-96.25 96.25v269.5c0 53.322 42.927 96.25 96.25 96.25h269.5c53.323 0 96.25-42.928 96.25-96.25v-269.5c0-53.323-42.927-96.25-96.25-96.25h2.906c54.477 0 98.344 43.867 98.344 98.344V63.27c0 54.477-43.867 98.313-98.344 98.313z" style="opacity:.2;color:#000;fill:url(#l);fill-opacity:1;fill-rule:nonzero;stroke:none;stroke-width:1.5;marker:none;visibility:visible;display:inline;overflow:visible" transform="translate(-1532.187 330.416)"/><path d="M263.969 96c-1.466.064-2.823.587-5.219 1.875-29.438 18.752-59.486 40.464-85.125 56.781-14.117 8.888-14.937 9.627-14.937 13.875 0 2.845.936 4.595 3.812 6.594l155.781 155.844c-1.601 1.856-3.174 3.556-4.437 4.781-4.144 4.018-11.675 10-14.875 11.781-.766.426-2.809 1.561-4.531 2.531-7.385 4.16-19.074 7.673-29.844 8.97-2.134.256-4.373.378-6.688.406L170.22 271.78c-1.297-1.09-3.714-1.219-25.781-1.219-23.011 0-24.482.106-26.125 1.375l-1.72 1.344.157 11.344c.213 14.667 2.319 25.341 8.188 41.594 1.533 4.247 9.49 20.384 12.312 24.937 4.266 6.883 14.007 19.127 19.781 24.875L273 492h120.656C448.133 492 492 448.133 492 393.656v-78.562l-135.25-135.25c-6.181-6.284-13.072-12.75-16.062-14.75-2.282-1.526-4.31-2.953-4.5-3.188-.192-.234-3.484-2.312-7.313-4.594-.103-.061-.18-.095-.281-.156l-59.406-59.5c-.492-.673-2.139-1.397-3.657-1.594A9 9 0 0 0 263.97 96" style="fill:#000;fill-opacity:.23529412"/><path d="M230.76 414.581c-10.29-2.008-17.264-4.065-27.843-8.208-4.81-1.884-19.297-9.512-23.97-12.623-7.752-5.158-15.923-11.767-21.88-17.697-5.773-5.748-15.515-18.004-19.78-24.886-2.822-4.553-10.8-20.671-12.333-24.918-5.87-16.253-7.975-26.958-8.188-41.624l-.165-11.344 1.74-1.344c1.644-1.27 3.093-1.345 26.104-1.345 22.067 0 24.498.113 25.795 1.203 2.026 1.701 3.09 4.57 3.105 8.37.022 5.95 2.586 18.997 4.884 24.853 1.717 4.375 7.253 15.24 8.599 16.877.867 1.055 2.533 3.327 3.703 5.05 4.088 6.018 16.264 17.007 22.827 20.6.766.42 2.802 1.557 4.525 2.527 12.296 6.926 32.11 10.726 46.74 8.965 10.77-1.296 22.446-4.805 29.83-8.965 1.723-.97 3.76-2.113 4.525-2.539 3.2-1.78 10.743-7.736 14.887-11.753 4.06-3.937 11.155-12.732 13.023-16.144a599 599 0 0 1 2.527-4.525c5.421-9.626 9.457-25.67 9.555-37.99.043-5.426-1.741-18.17-3.084-22.026-.571-1.64-1.043-3.375-1.049-3.858-.015-1.33-5.07-12.379-7.89-17.248-1.95-3.369-7.56-10.762-8.165-10.762a.67.67 0 0 1-.661-.673c0-1.22-9.303-9.769-14.262-13.107-2.675-1.801-5.282-3.666-5.793-4.145-.51-.479-1.23-.87-1.598-.87-.37 0-1.508-.548-2.53-1.218s-2.969-1.639-4.326-2.153c-6.882-2.609-13.918-4.796-16.563-5.15l-2.959-.396v21.38c0 16.316-.212 21.67-.894 22.603-.492.673-2.19 1.397-3.771 1.61-2.395.32-3.558-.002-6.937-1.924-32.834-22.006-57.96-38.76-93.372-62.436-4.983-2.8-6.401-4.615-6.401-8.191 0-4.248.817-5.008 14.934-13.896l85.115-56.773c3.194-1.717 4.582-2.086 6.777-1.801 1.518.197 3.163.908 3.655 1.581.678.928.894 5.976.894 20.93v19.705h3.97c7.225 0 26.805 5.18 36.752 9.724 8.932 4.08 11.808 5.559 18.098 9.308 3.829 2.282 7.118 4.34 7.31 4.575.19.235 2.214 1.676 4.496 3.202 5.4 3.613 23.6 21.803 27.166 27.152 1.526 2.29 3.005 4.332 3.286 4.54.97.714 7.286 11.653 10.282 17.808a818 818 0 0 0 3.944 8.02c1.95 3.832 7.11 21.447 8.533 29.134 1.26 6.805 1.481 10.59 1.472 25.235-.012 18.19-.93 26.123-4.222 36.461-.747 2.348-1.358 4.734-1.358 5.302 0 .885-1.229 4.363-3.504 9.921-.943 2.303-8.298 17.247-9.593 19.49-5.24 9.08-14.363 20.698-22.512 28.67-5.58 5.46-17.136 14.88-20.013 16.313-.993.495-2.33 1.331-2.97 1.858-1.99 1.64-18.298 10.024-23.2 11.927-8.66 3.363-15.528 5.324-25.918 7.4-7.769 1.553-10.089 1.697-26.451 1.65-14.794-.044-19.156-.29-24.897-1.412" style="fill:#fff"/></svg>