<?xml version="1.0" encoding="UTF-8"?>
<svg version="1.1" viewBox="0 0 512 512" xmlns="http://www.w3.org/2000/svg" xmlns:cc="http://creativecommons.org/ns#" xmlns:dc="http://purl.org/dc/elements/1.1/" xmlns:rdf="http://www.w3.org/1999/02/22-rdf-syntax-ns#" xmlns:xlink="http://www.w3.org/1999/xlink">
<defs>
<linearGradient id="h" x1="993.44" x2="988.79" y1="51.512" y2="363.74" gradientTransform="translate(778.6 -360.56)" gradientUnits="userSpaceOnUse">
<stop stop-color="#fff" offset="0"/>
<stop stop-color="#fff" stop-opacity="0" offset="1"/>
</linearGradient>
<linearGradient id="g" x1="1764.6" x2="1763.7" y1="155.6" y2="-55.941" gradientUnits="userSpaceOnUse">
<stop offset="0"/>
<stop stop-color="#fff" stop-opacity=".2" offset="1"/>
</linearGradient>
<linearGradient id="d" x1="1012.5" x2="1006.8" y1="484.42" y2="20.626" gradientTransform="matrix(1.0318 0 0 1.0318 -830.86 592.68)" gradientUnits="userSpaceOnUse" xlink:href="#a"/>
<linearGradient id="a" x1="45.448" x2="45.448" y1="92.54" y2="7.0165" gradientTransform="matrix(1.0059 0 0 .99417 100 0)" gradientUnits="userSpaceOnUse">
<stop offset="0"/>
<stop stop-opacity=".58824" offset="1"/>
</linearGradient>
<linearGradient id="e" x1="1012.5" x2="1006.8" y1="484.42" y2="20.626" gradientTransform="matrix(1.0403 0 0 1.0403 -837.95 592.52)" gradientUnits="userSpaceOnUse" xlink:href="#a"/>
<linearGradient id="f" x1="1012.5" x2="1006.8" y1="484.42" y2="20.626" gradientTransform="matrix(1.0233 0 0 1.0233 -823.78 592.84)" gradientUnits="userSpaceOnUse" xlink:href="#a"/>
<linearGradient id="c" x1="1012.5" x2="1006.8" y1="484.42" y2="20.626" gradientTransform="matrix(1.0148 0 0 1.0148 -816.69 593)" gradientUnits="userSpaceOnUse" xlink:href="#a"/>
<linearGradient id="b" x1="1012.5" x2="1006.8" y1="484.42" y2="20.626" gradientTransform="matrix(1.0074 0 0 1.0074 -810.49 593.14)" gradientUnits="userSpaceOnUse" xlink:href="#a"/>
</defs>
<metadata>
<rdf:RDF>
<cc:Work rdf:about="">
<dc:format>image/svg+xml</dc:format>
<dc:type rdf:resource="http://purl.org/dc/dcmitype/StillImage"/>
<dc:title/>
</cc:Work>
</rdf:RDF>
</metadata>
<g transform="translate(-11.985 -592.12)">
<rect x="31.985" y="612.12" width="487" height="487" ry="101.46" color="#000000" fill="url(#d)" opacity=".1"/>
<rect x="31.985" y="612.12" width="491" height="491" ry="102.29" color="#000000" fill="url(#e)" opacity=".08"/>
<rect x="31.985" y="612.12" width="483" height="483" ry="100.63" color="#000000" fill="url(#f)" opacity=".2"/>
<rect x="31.985" y="612.12" width="479" height="479" ry="99.792" color="#000000" fill="url(#c)" opacity=".25"/>
<rect x="31.985" y="612.12" width="475.5" height="475.5" ry="99.062" color="#000000" fill="url(#b)" opacity=".25"/>
</g>
<rect x="20" y="20" width="472" height="472" ry="98.333" color="#000000" fill="#2e3436"/>
<path d="m89.25 120.09v38.875c0-0.0141 45.188 44.906 45.188 44.906v0.03125l-45.188 14.531v37.625c0-0.00484 123.17 123.17 235.94 235.94h68.469c46.044 0 84.51-31.315 95.312-73.906l-66.219-66.219h-15.469l-180.78-180.88-137.25-50.906z" fill-opacity=".31373"/>
<g transform="translate(-666.96 -142.41)" fill="#73d216">
<path d="m756.21 262.49v38.87l91.627 30.041-91.627 29.452v37.609l136.63-47.751 0.6093-37.316-137.24-50.906z"/>
<path d="m954.35 494.29v40.035h135.36v-40.035h-135.36z"/>
</g>
<g transform="translate(-605.52 -353.97)">
<g transform="translate(-926.67 684.38)">
<path d="m1650.5-310.42c-54.477 0-98.312 43.836-98.312 98.312v275.34c0 54.477 43.836 98.344 98.312 98.344h2.9375c-53.322 0-96.25-42.928-96.25-96.25v-269.5c0-53.322 42.928-96.25 96.25-96.25h269.5c53.322 0 96.25 42.928 96.25 96.25v269.5c0 53.323-42.928 96.25-96.25 96.25h2.9062c54.477 0 98.344-43.867 98.344-98.344v-275.34c0-54.477-43.867-98.312-98.344-98.312h-275.34z" color="#000000" fill="url(#h)" opacity=".3"/>
<path d="m1650.5 161.58c-54.477 0-98.312-43.836-98.312-98.313v-275.34c0-54.477 43.836-98.344 98.312-98.344h2.9375c-53.322 0-96.25 42.928-96.25 96.25v269.5c0 53.323 42.928 96.25 96.25 96.25h269.5c53.322 0 96.25-42.928 96.25-96.25v-269.5c0-53.322-42.928-96.25-96.25-96.25h2.9062c54.477 0 98.344 43.867 98.344 98.344v275.34c0 54.477-43.867 98.313-98.344 98.313h-275.34z" color="#000000" fill="url(#g)" opacity=".2"/>
</g>
</g>
</svg>
