<?xml version="1.0" encoding="UTF-8"?>
<!-- Generator: Adobe Illustrator 16.0.0, SVG Export Plug-In . SVG Version: 6.00 Build 0)  -->
<!DOCTYPE svg PUBLIC "-//W3C//DTD SVG 1.1//EN" "http://www.w3.org/Graphics/SVG/1.1/DTD/svg11.dtd">
<svg version="1.1" id="bang" xmlns="http://www.w3.org/2000/svg" xmlns:xlink="http://www.w3.org/1999/xlink" x="0px" y="0px" width="260px" height="210px" viewBox="0 0 260 210" enable-background="new 0 0 260 210" xml:space="preserve">
<path id="spike_outline" fill-rule="evenodd" clip-rule="evenodd" fill="#9B3D24" d="M244.086,62.289l-36.387,21.573  c8.74,8.149,14.212,19.758,14.212,32.65c0,3.588-0.435,7.072-1.234,10.416l39.291,13.096l-42.118-4.91  c-6.63,14.438-20.729,24.723-37.354,25.912l21.639,33.928l-36.86-33.318c-7.223,7.947-16.706,13.805-27.435,16.557l-4.213,31.834  l-4.764-30.314c-1.631,0.143-3.277,0.23-4.945,0.23c-12.955,0-24.87-4.422-34.346-11.822l-29.044,26.818l21.827-32.799  c-1.038,0.074-2.082,0.123-3.138,0.123c-14.838,0-27.942-7.395-35.85-18.695l-43.396,9.236l39.072-16.973  c-2.29-5.307-3.564-11.156-3.564-17.305c0-13.188,5.845-25.002,15.075-33.021L10.122,64.459l42.595,11.827  c-0.254-1.97-0.399-3.974-0.399-6.013c0-17.416,9.563-32.588,23.719-40.581L61.006,0.021l21.022,26.833  c5.233-2.035,10.918-3.164,16.871-3.164c15.103,0,28.509,7.202,37.02,18.344c6.604-3.868,14.286-6.095,22.492-6.095  c7.853,0,15.226,2.037,21.634,5.602l26.638-28.306l-19.741,33.034c8.63,7.196,14.495,17.591,15.779,29.365L244.086,62.289z"/>
<path id="cloud" fill-rule="evenodd" clip-rule="evenodd" fill="#FFFFFF" d="M214.886,116.536c0,20.791-16.854,37.646-37.646,37.646  c-4.614,0-9.032-0.833-13.117-2.353c-8.816,12.768-23.544,21.14-40.234,21.14c-15.41,0-29.145-7.14-38.102-18.283  c-2.142,0.389-4.344,0.603-6.598,0.603c-20.29,0-36.738-16.448-36.738-36.737c0-14.266,8.137-26.623,20.017-32.709  c-2.041-4.772-3.173-10.026-3.173-15.544c0-21.858,17.72-39.578,39.578-39.578c15.253,0,28.483,8.635,35.09,21.278  c6.569-5.624,15.095-9.028,24.42-9.028c20.754,0,37.578,16.825,37.578,37.579c0,1.095-0.057,2.175-0.148,3.246  C207.199,90.268,214.886,102.5,214.886,116.536z"/>
<path id="shadow" fill-rule="evenodd" clip-rule="evenodd" fill="#D8DDDF" d="M177.24,154.182c-4.614,0-9.032-0.834-13.117-2.354  c-8.816,12.768-23.544,21.141-40.234,21.141c-15.41,0-29.145-7.141-38.102-18.283c-2.142,0.389-4.344,0.602-6.598,0.602  c-20.29,0-36.738-16.447-36.738-36.736c0-1.197,0.062-2.381,0.174-3.549c1.785,18.625,17.472,33.191,36.564,33.191  c0.722,0,1.438-0.027,2.149-0.068c-4.016-7.098-6.319-15.291-6.319-24.027c0-1.193,0.058-2.373,0.142-3.547  c1.819,25.332,22.932,45.322,48.728,45.322c25.796,0,46.909-19.99,48.729-45.322c0.084,1.174,0.142,2.354,0.142,3.547  c0,7.814-1.844,15.195-5.105,21.746c3.062,0.805,6.272,1.242,9.587,1.242c19.595,0,35.686-14.971,37.475-34.098  c0.109,1.168,0.171,2.35,0.171,3.547C214.886,137.326,198.031,154.182,177.24,154.182z"/>
<path id="exclamation_outline" fill-rule="evenodd" clip-rule="evenodd" fill="#323E48" d="M168.731,12.185l-27.771,81.961  c-0.367,1.306-1.729,2.365-3.042,2.365h-23.186c-1.757,0-2.376-1.872-2.01-3.178l18.186-81.961c0.367-1.306,1.729-2.365,3.042-2.365  h32.771C168.627,9.007,169.246,10.583,168.731,12.185z M139.454,121.199c0,10.337-8.433,19.042-18.77,19.042  c-10.338,0-19.042-8.705-19.042-19.042c0-10.065,8.704-18.771,19.042-18.771C131.021,102.429,139.454,111.134,139.454,121.199z"/>
<path fill-rule="evenodd" clip-rule="evenodd" fill="#D8DDDF" d="M134.581,89.415h-14.267l15.826-73.314h23.777L134.581,89.415z   M131.79,121.246c0,6.461-5.271,11.902-11.731,11.902s-11.902-5.441-11.902-11.902c0-6.291,5.441-11.731,11.902-11.731  S131.79,114.955,131.79,121.246z"/>
</svg>