<svg xmlns="http://www.w3.org/2000/svg" width="1024" height="1024" viewBox="0 0 64 64"><path fill="#fff" fill-opacity=".925" d="M31.46.861c-5.532.241-11.358 2.035-15.069 6.356-2.041 2.373-3.37 5.385-3.715 8.495-.062 2.137 1.955 3.836 4.02 3.8 2.41.243 4.818.545 7.23.753-4.783 1.319-9.192 4.554-11.165 9.202-1.858 4.367-1.883 9.517-.057 13.898 1.698 4.076 5.655 6.965 9.984 7.634 3.428.513 7.027.305 10.303-.871 2.048-.77 3.892-2.008 5.524-3.454 1.164 1.508 2.501 2.96 4.137 3.953 1.332.606 2.99.415 4.129-.51.44-.294 1.134-.962 1.665-1.41 1.662-1.518 3.454-2.899 5.078-4.453 1.314-1.547.864-3.882-.42-5.299-1.264-1.546-2.314-3.4-2.214-5.463-.042-5.874.063-11.75-.047-17.622-.105-3.805-1.287-7.779-4.193-10.392C42.628 1.74 36.78.644 31.46.86zm.787 13.174c1.232.034 2.457.855 2.566 2.159.126.75.15 1.511.142 2.27-3.091.326-6.197.631-9.231 1.33 1.337-.705 1.862-2.198 2.195-3.573.66-1.707 2.644-2.33 4.328-2.186m2.706 15.81c.057 2.722-.263 5.797-2.406 7.735-1.153 1.133-3.531 1.4-4.337-.266-.78-1.862-.65-4.307.766-5.839 1.585-1.517 3.886-1.84 5.977-2.043z"/><path fill="#ff9000" d="M54.095 52.975c1.056-.441 1.796.296.75 1.63-1.053 1.347-9.472 9.066-23.621 9.066-14.141 0-24.974-9.658-28.28-13.665-.905-1.04.138-1.51.753-1.13 9.921 6.04 25.423 15.982 50.399 4.099zm7.014-3.873c.51.665-.016 3.653-.88 5.795-.87 2.131-2.165 3.636-2.882 4.217-.725.582-1.26.357-.873-.516.4-.873 2.59-6.287 1.722-7.424-.864-1.128-5.009-.605-6.488-.458-1.476.133-1.77.265-1.913-.03-.28-.788 2.944-2.1 5.091-2.356 2.145-.264 5.553-.1 6.224.772z"/><path fill-rule="evenodd" d="M43.483 48.426c-2.657-2.206-3.13-3.23-4.594-5.335-4.39 4.48-7.499 5.82-13.196 5.82-6.734 0-11.981-4.154-11.981-12.472 0-6.495 3.525-10.918 8.535-13.08 4.346-1.913 10.415-2.25 15.054-2.78v-1.036c0-1.902.146-4.153-.968-5.797-.98-1.474-2.85-2.082-4.494-2.082-3.05 0-5.775 1.565-6.44 4.806-.135.721-.664 1.43-1.385 1.464l-7.77-.833c-.652-.147-1.373-.676-1.192-1.678 1.79-9.41 10.29-12.247 17.902-12.247 3.895 0 8.985 1.036 12.059 3.985 3.895 3.636 3.524 8.488 3.524 13.766v12.471c0 3.749 1.553 5.392 3.018 7.418.518.72.63 1.588-.023 2.128-1.633 1.361-4.538 3.895-6.137 5.313l-.022-.022c-.529.472-1.295.506-1.891.19zm-6.181-21.431c-5.789 0-11.902 1.239-11.902 8.06 0 3.455 1.79 5.796 4.864 5.796 2.252 0 4.268-1.384 5.54-3.635 1.576-2.77 1.498-5.37 1.498-8.488z"/><path fill="#fff" fill-opacity=".925" d="M31.871 1.026c-5.532.24-11.358 2.034-15.069 6.355-2.041 2.374-3.37 5.386-3.715 8.496-.062 2.137 1.955 3.835 4.02 3.8 2.41.243 4.818.545 7.23.752-4.783 1.32-9.192 4.555-11.165 9.202-1.858 4.367-1.883 9.517-.057 13.898 1.698 4.076 5.655 6.966 9.984 7.635 3.428.513 7.027.305 10.303-.871 2.048-.77 3.892-2.009 5.524-3.454 1.164 1.508 2.501 2.96 4.137 3.953 1.332.606 2.99.415 4.129-.51.44-.294 1.134-.962 1.665-1.41 1.662-1.518 3.454-2.899 5.078-4.453 1.314-1.547.864-3.882-.42-5.299-1.264-1.546-2.314-3.401-2.214-5.464-.042-5.873.063-11.75-.047-17.622-.105-3.804-1.287-7.778-4.193-10.392-4.022-3.737-9.87-4.833-15.19-4.616zm.787 13.174c1.232.034 2.457.855 2.566 2.158.126.75.15 1.512.142 2.271-3.091.326-6.197.63-9.231 1.33 1.337-.705 1.862-2.198 2.195-3.573.66-1.708 2.644-2.33 4.328-2.186m2.706 15.81c.057 2.721-.263 5.797-2.406 7.735-1.153 1.133-3.531 1.4-4.337-.266-.78-1.862-.65-4.307.766-5.84 1.585-1.516 3.885-1.839 5.977-2.043z"/><path fill="#ff9000" d="M54.506 53.139c1.056-.441 1.796.296.75 1.63-1.053 1.347-9.472 9.066-23.621 9.066-14.141 0-24.974-9.658-28.28-13.665-.905-1.04.138-1.51.753-1.13 9.921 6.04 25.423 15.982 50.399 4.099zm7.014-3.873c.51.665-.016 3.653-.88 5.795-.87 2.131-2.165 3.636-2.882 4.217-.725.582-1.26.357-.873-.516.4-.873 2.59-6.287 1.722-7.424-.864-1.128-5.009-.605-6.488-.458-1.476.133-1.77.265-1.913-.03-.28-.788 2.944-2.1 5.091-2.356 2.145-.264 5.553-.1 6.224.772z"/><path fill-rule="evenodd" d="M43.894 48.591c-2.657-2.206-3.13-3.23-4.594-5.335-4.39 4.48-7.499 5.82-13.196 5.82-6.734 0-11.981-4.154-11.981-12.472 0-6.495 3.525-10.918 8.535-13.08 4.346-1.913 10.415-2.25 15.054-2.78v-1.036c0-1.902.146-4.153-.968-5.797-.98-1.474-2.85-2.082-4.494-2.082-3.05 0-5.775 1.565-6.44 4.806-.135.721-.664 1.43-1.385 1.464l-7.77-.833c-.652-.147-1.373-.676-1.192-1.678 1.79-9.41 10.29-12.247 17.902-12.247 3.895 0 8.985 1.036 12.059 3.985 3.895 3.636 3.524 8.488 3.524 13.766v12.471c0 3.749 1.553 5.392 3.018 7.418.518.72.63 1.588-.023 2.128-1.633 1.361-4.538 3.895-6.137 5.313l-.022-.022c-.529.472-1.295.506-1.891.19zM37.713 27.16c-5.789 0-11.902 1.239-11.902 8.06 0 3.455 1.79 5.796 4.864 5.796 2.252 0 4.268-1.384 5.54-3.635 1.576-2.77 1.498-5.37 1.498-8.488z"/><path fill="#fff" fill-opacity=".925" d="M31.871 1.026c-5.532.24-11.358 2.034-15.069 6.355-2.041 2.374-3.37 5.386-3.715 8.496-.062 2.137 1.955 3.835 4.02 3.8 2.41.243 4.818.545 7.23.752-4.783 1.32-9.192 4.555-11.165 9.202-1.858 4.367-1.883 9.517-.057 13.898 1.698 4.076 5.655 6.966 9.984 7.635 3.428.513 7.027.305 10.303-.871 2.048-.77 3.892-2.009 5.524-3.454 1.164 1.508 2.501 2.96 4.137 3.953 1.332.606 2.99.415 4.129-.51.44-.294 1.134-.962 1.665-1.41 1.662-1.518 3.454-2.899 5.078-4.453 1.314-1.547.864-3.882-.42-5.299-1.264-1.546-2.314-3.401-2.214-5.464-.042-5.873.063-11.75-.047-17.622-.105-3.804-1.287-7.778-4.193-10.392-4.022-3.737-9.87-4.833-15.19-4.616zm.787 13.174c1.232.034 2.457.855 2.566 2.158.126.75.15 1.512.142 2.271-3.091.326-6.197.63-9.231 1.33 1.337-.705 1.862-2.198 2.195-3.573.66-1.708 2.644-2.33 4.328-2.186m2.706 15.81c.057 2.721-.263 5.797-2.406 7.735-1.153 1.133-3.531 1.4-4.337-.266-.78-1.862-.65-4.307.766-5.84 1.585-1.516 3.885-1.839 5.977-2.043z"/><path fill="#ff9000" d="M54.506 53.139c1.056-.441 1.796.296.75 1.63-1.053 1.347-9.472 9.066-23.621 9.066-14.141 0-24.974-9.658-28.28-13.665-.905-1.04.138-1.51.753-1.13 9.921 6.04 25.423 15.982 50.399 4.099zm7.014-3.873c.51.665-.016 3.653-.88 5.795-.87 2.131-2.165 3.636-2.882 4.217-.725.582-1.26.357-.873-.516.4-.873 2.59-6.287 1.722-7.424-.864-1.128-5.009-.605-6.488-.458-1.476.133-1.77.265-1.913-.03-.28-.788 2.944-2.1 5.091-2.356 2.145-.264 5.553-.1 6.224.772z"/><path fill-rule="evenodd" d="M43.894 48.591c-2.657-2.206-3.13-3.23-4.594-5.335-4.39 4.48-7.499 5.82-13.196 5.82-6.734 0-11.981-4.154-11.981-12.472 0-6.495 3.525-10.918 8.535-13.08 4.346-1.913 10.415-2.25 15.054-2.78v-1.036c0-1.902.146-4.153-.968-5.797-.98-1.474-2.85-2.082-4.494-2.082-3.05 0-5.775 1.565-6.44 4.806-.135.721-.664 1.43-1.385 1.464l-7.77-.833c-.652-.147-1.373-.676-1.192-1.678 1.79-9.41 10.29-12.247 17.902-12.247 3.895 0 8.985 1.036 12.059 3.985 3.895 3.636 3.524 8.488 3.524 13.766v12.471c0 3.749 1.553 5.392 3.018 7.418.518.72.63 1.588-.023 2.128-1.633 1.361-4.538 3.895-6.137 5.313l-.022-.022c-.529.472-1.295.506-1.891.19zM37.713 27.16c-5.789 0-11.902 1.239-11.902 8.06 0 3.455 1.79 5.796 4.864 5.796 2.252 0 4.268-1.384 5.54-3.635 1.576-2.77 1.498-5.37 1.498-8.488z"/><path fill="#fff" fill-opacity=".925" d="M31.871 1.026c-5.532.24-11.358 2.034-15.069 6.355-2.041 2.374-3.37 5.386-3.715 8.496-.062 2.137 1.955 3.835 4.02 3.8 2.41.243 4.818.545 7.23.752-4.783 1.32-9.192 4.555-11.165 9.202-1.858 4.367-1.883 9.517-.057 13.898 1.698 4.076 5.655 6.966 9.984 7.635 3.428.513 7.027.305 10.303-.871 2.048-.77 3.892-2.009 5.524-3.454 1.164 1.508 2.501 2.96 4.137 3.953 1.332.606 2.99.415 4.129-.51.44-.294 1.134-.962 1.665-1.41 1.662-1.518 3.454-2.899 5.078-4.453 1.314-1.547.864-3.882-.42-5.299-1.264-1.546-2.314-3.401-2.214-5.464-.042-5.873.063-11.75-.047-17.622-.105-3.804-1.287-7.778-4.193-10.392-4.022-3.737-9.87-4.833-15.19-4.616zm.787 13.174c1.232.034 2.457.855 2.566 2.158.126.75.15 1.512.142 2.271-3.091.326-6.197.63-9.231 1.33 1.337-.705 1.862-2.198 2.195-3.573.66-1.708 2.644-2.33 4.328-2.186m2.706 15.81c.057 2.721-.263 5.797-2.406 7.735-1.153 1.133-3.531 1.4-4.337-.266-.78-1.862-.65-4.307.766-5.84 1.585-1.516 3.885-1.839 5.977-2.043z"/><path fill="#ff9000" d="M54.506 53.139c1.056-.441 1.796.296.75 1.63-1.053 1.347-9.472 9.066-23.621 9.066-14.141 0-24.974-9.658-28.28-13.665-.905-1.04.138-1.51.753-1.13 9.921 6.04 25.423 15.982 50.399 4.099zm7.014-3.873c.51.665-.016 3.653-.88 5.795-.87 2.131-2.165 3.636-2.882 4.217-.725.582-1.26.357-.873-.516.4-.873 2.59-6.287 1.722-7.424-.864-1.128-5.009-.605-6.488-.458-1.476.133-1.77.265-1.913-.03-.28-.788 2.944-2.1 5.091-2.356 2.145-.264 5.553-.1 6.224.772z"/><path fill-rule="evenodd" d="M43.894 48.591c-2.657-2.206-3.13-3.23-4.594-5.335-4.39 4.48-7.499 5.82-13.196 5.82-6.734 0-11.981-4.154-11.981-12.472 0-6.495 3.525-10.918 8.535-13.08 4.346-1.913 10.415-2.25 15.054-2.78v-1.036c0-1.902.146-4.153-.968-5.797-.98-1.474-2.85-2.082-4.494-2.082-3.05 0-5.775 1.565-6.44 4.806-.135.721-.664 1.43-1.385 1.464l-7.77-.833c-.652-.147-1.373-.676-1.192-1.678 1.79-9.41 10.29-12.247 17.902-12.247 3.895 0 8.985 1.036 12.059 3.985 3.895 3.636 3.524 8.488 3.524 13.766v12.471c0 3.749 1.553 5.392 3.018 7.418.518.72.63 1.588-.023 2.128-1.633 1.361-4.538 3.895-6.137 5.313l-.022-.022c-.529.472-1.295.506-1.891.19zM37.713 27.16c-5.789 0-11.902 1.239-11.902 8.06 0 3.455 1.79 5.796 4.864 5.796 2.252 0 4.268-1.384 5.54-3.635 1.576-2.77 1.498-5.37 1.498-8.488z"/></svg>