<?xml version="1.0" encoding="UTF-8"?>
<svg width="1024" height="1024" version="1.1" viewBox="0 0 64 64" xmlns="http://www.w3.org/2000/svg">
<path d="m31.46 0.86142c-5.5325 0.2407-11.358 2.0342-15.069 6.3551-2.0415 2.3738-3.3692 5.3855-3.7152 8.4954-0.06181 2.1371 1.9548 3.8358 4.0193 3.7997 2.4104 0.24362 4.8186 0.54548 7.2304 0.7529-4.7827 1.3191-9.1911 4.5545-11.165 9.202-1.8578 4.3671-1.8822 9.5171-0.05665 13.898 1.6978 4.076 5.6554 6.9652 9.9843 7.6348 3.4275 0.51255 7.0268 0.30471 10.303-0.87136 2.0482-0.77046 3.8922-2.0084 5.5239-3.4539 1.1642 1.5078 2.5013 2.9605 4.1374 3.9527 1.3316 0.60603 2.989 0.41533 4.1285-0.51019 0.44067-0.29313 1.1339-0.96184 1.6647-1.4091 1.6619-1.5185 3.4539-2.8993 5.0782-4.4531 1.3139-1.5472 0.86462-3.8826-0.42034-5.2992-1.264-1.5461-2.3132-3.401-2.2132-5.4636-0.04203-5.8736 0.06279-11.75-0.04776-17.622-0.1041-3.8045-1.2862-7.7784-4.1924-10.392-4.0218-3.7374-9.8693-4.8337-15.19-4.6168zm0.78667 13.174c1.2325 0.03396 2.4578 0.8546 2.5664 2.1582 0.12612 0.74972 0.14953 1.5117 0.1422 2.2706-3.0913 0.32598-6.197 0.63088-9.2314 1.3302 1.337-0.70528 1.8617-2.1981 2.1949-3.5733 0.65934-1.7075 2.6447-2.3294 4.3279-2.1857zm2.7063 15.809c0.05658 2.7221-0.26295 5.7977-2.4059 7.736-1.1531 1.1329-3.5311 1.3994-4.337-0.26605-0.77916-1.8624-0.65036-4.3072 0.76603-5.8393 1.5846-1.517 3.8854-1.8395 5.9769-2.0435-2e-6 0.13761 0 0.27522 0 0.41283z" fill="#fff" fill-opacity=".92549" stroke-width="1.1743"/>
<path d="m54.095 52.975c1.0564-0.44104 1.7958 0.29574 0.7496 1.6308-1.053 1.3462-9.4712 9.0652-23.621 9.0652-14.141 0-24.974-9.6584-28.279-13.665-0.90601-1.0402 0.13761-1.5094 0.75216-1.1291 9.9217 6.0386 25.423 15.981 50.399 4.0976zm7.0139-3.8728c0.51027 0.66498-0.01624 3.6531-0.88037 5.795-0.86926 2.1308-2.165 3.636-2.8813 4.2172-0.72566 0.58207-1.2599 0.35642-0.87353-0.51626 0.40001-0.87353 2.5898-6.2874 1.7223-7.4242-0.86413-1.1282-5.0087-0.60515-6.4882-0.45813-1.4753 0.13334-1.7693 0.26497-1.9129-0.02992-0.28035-0.78806 2.9437-2.1001 5.0916-2.3556 2.1445-0.26411 5.5523-0.10086 6.2233 0.77182z" fill="#ff9000" stroke-width="1.1743"/>
<path d="m43.483 48.426c-2.6573-2.206-3.13-3.23-4.5942-5.3352-4.3907 4.4805-7.4985 5.8198-13.196 5.8198-6.7335 0-11.981-4.154-11.981-12.472 0-6.4942 3.5249-10.918 8.5353-13.079 4.3463-1.9137 10.415-2.2514 15.054-2.7804v-1.0359c0-1.9026 0.14616-4.1531-0.96841-5.7968-0.97952-1.4744-2.8488-2.0821-4.4933-2.0821-3.0505 0-5.7754 1.5642-6.4404 4.8061-0.13505 0.72054-0.66412 1.43-1.3847 1.4633l-7.7695-0.8325c-0.65301-0.14701-1.3735-0.67609-1.1932-1.6778 1.7907-9.4097 10.291-12.247 17.902-12.247 3.8958 0 8.9857 1.0359 12.059 3.9847 3.8958 3.636 3.524 8.4874 3.524 13.766v12.471c0 3.7488 1.5539 5.3916 3.018 7.4182 0.51796 0.72053 0.63079 1.5872-0.02307 2.1274-1.6325 1.3616-4.5377 3.895-6.1361 5.313l-0.02223-0.02222c-0.52908 0.47266-1.2949 0.506-1.8915 0.1906zm-6.1814-21.431c-5.7882 0-11.902 1.2385-11.902 8.0592 0 3.4557 1.7907 5.7968 4.8643 5.7968 2.2522 0 4.2677-1.3838 5.5403-3.6352 1.5761-2.7693 1.4975-5.3694 1.4975-8.4874z" fill-rule="evenodd" stroke-width="1.1743"/>
<path d="m31.871 1.0262c-5.5325 0.2407-11.358 2.0342-15.069 6.3551-2.0415 2.3738-3.3692 5.3855-3.7152 8.4954-0.06181 2.1371 1.9548 3.8358 4.0193 3.7997 2.4104 0.24362 4.8186 0.54548 7.2304 0.7529-4.7827 1.3191-9.1911 4.5545-11.165 9.202-1.8578 4.3671-1.8822 9.5171-0.05665 13.898 1.6978 4.076 5.6554 6.9652 9.9843 7.6348 3.4275 0.51255 7.0268 0.30471 10.303-0.87136 2.0482-0.77046 3.8922-2.0084 5.5239-3.4539 1.1642 1.5078 2.5013 2.9605 4.1374 3.9527 1.3316 0.60603 2.989 0.41533 4.1285-0.51019 0.44067-0.29313 1.1339-0.96184 1.6647-1.4091 1.6619-1.5185 3.4539-2.8993 5.0782-4.4531 1.3139-1.5472 0.86462-3.8826-0.42034-5.2992-1.264-1.5461-2.3132-3.401-2.2132-5.4636-0.04203-5.8736 0.06279-11.75-0.04776-17.622-0.1041-3.8045-1.2862-7.7784-4.1924-10.392-4.0218-3.7374-9.8693-4.8337-15.19-4.6168zm0.78667 13.174c1.2325 0.03396 2.4578 0.8546 2.5664 2.1582 0.12612 0.74972 0.14953 1.5117 0.1422 2.2706-3.0913 0.32598-6.197 0.63088-9.2314 1.3302 1.337-0.70528 1.8617-2.1981 2.1949-3.5733 0.65934-1.7075 2.6447-2.3294 4.3279-2.1857zm2.7063 15.809c0.05658 2.7221-0.26295 5.7977-2.4059 7.736-1.1531 1.1329-3.5311 1.3994-4.337-0.26605-0.77916-1.8624-0.65036-4.3072 0.76603-5.8393 1.5846-1.517 3.8854-1.8395 5.9769-2.0435-2e-6 0.13761 0 0.27522 0 0.41283z" fill="#fff" fill-opacity=".92549" stroke-width="1.1743"/>
<path d="m54.506 53.139c1.0564-0.44104 1.7958 0.29574 0.7496 1.6308-1.053 1.3462-9.4712 9.0652-23.621 9.0652-14.141 0-24.974-9.6584-28.279-13.665-0.90601-1.0402 0.13761-1.5094 0.75216-1.1291 9.9217 6.0386 25.423 15.981 50.399 4.0976zm7.0139-3.8728c0.51027 0.66498-0.01624 3.6531-0.88037 5.795-0.86926 2.1308-2.165 3.636-2.8813 4.2172-0.72566 0.58207-1.2599 0.35642-0.87353-0.51626 0.40001-0.87353 2.5898-6.2874 1.7223-7.4242-0.86413-1.1282-5.0087-0.60515-6.4882-0.45813-1.4753 0.13334-1.7693 0.26497-1.9129-0.02992-0.28035-0.78806 2.9437-2.1001 5.0916-2.3556 2.1445-0.26411 5.5523-0.10086 6.2233 0.77182z" fill="#ff9000" stroke-width="1.1743"/>
<path d="m43.894 48.591c-2.6573-2.206-3.13-3.23-4.5942-5.3352-4.3907 4.4805-7.4985 5.8198-13.196 5.8198-6.7335 0-11.981-4.154-11.981-12.472 0-6.4942 3.5249-10.918 8.5353-13.079 4.3463-1.9137 10.415-2.2514 15.054-2.7804v-1.0359c0-1.9026 0.14616-4.1531-0.96841-5.7968-0.97952-1.4744-2.8488-2.0821-4.4933-2.0821-3.0505 0-5.7754 1.5642-6.4404 4.8061-0.13505 0.72054-0.66412 1.43-1.3847 1.4633l-7.7695-0.8325c-0.65301-0.14701-1.3735-0.67609-1.1932-1.6778 1.7907-9.4097 10.291-12.247 17.902-12.247 3.8958 0 8.9857 1.0359 12.059 3.9847 3.8958 3.636 3.524 8.4874 3.524 13.766v12.471c0 3.7488 1.5539 5.3916 3.018 7.4182 0.51796 0.72053 0.63079 1.5872-0.02307 2.1274-1.6325 1.3616-4.5377 3.895-6.1361 5.313l-0.02223-0.02222c-0.52908 0.47266-1.2949 0.506-1.8915 0.1906zm-6.1814-21.431c-5.7882 0-11.902 1.2385-11.902 8.0592 0 3.4557 1.7907 5.7968 4.8643 5.7968 2.2522 0 4.2677-1.3838 5.5403-3.6352 1.5761-2.7693 1.4975-5.3694 1.4975-8.4874z" fill-rule="evenodd" stroke-width="1.1743"/>
<path d="m31.871 1.0262c-5.5325 0.2407-11.358 2.0342-15.069 6.3551-2.0415 2.3738-3.3692 5.3855-3.7152 8.4954-0.06181 2.1371 1.9548 3.8358 4.0193 3.7997 2.4104 0.24362 4.8186 0.54548 7.2304 0.7529-4.7827 1.3191-9.1911 4.5545-11.165 9.202-1.8578 4.3671-1.8822 9.5171-0.05665 13.898 1.6978 4.076 5.6554 6.9652 9.9843 7.6348 3.4275 0.51255 7.0268 0.30471 10.303-0.87136 2.0482-0.77046 3.8922-2.0084 5.5239-3.4539 1.1642 1.5078 2.5013 2.9605 4.1374 3.9527 1.3316 0.60603 2.989 0.41533 4.1285-0.51019 0.44067-0.29313 1.1339-0.96184 1.6647-1.4091 1.6619-1.5185 3.4539-2.8993 5.0782-4.4531 1.3139-1.5472 0.86462-3.8826-0.42034-5.2992-1.264-1.5461-2.3132-3.401-2.2132-5.4636-0.04203-5.8736 0.06279-11.75-0.04776-17.622-0.1041-3.8045-1.2862-7.7784-4.1924-10.392-4.0218-3.7374-9.8693-4.8337-15.19-4.6168zm0.78667 13.174c1.2325 0.03396 2.4578 0.8546 2.5664 2.1582 0.12612 0.74972 0.14953 1.5117 0.1422 2.2706-3.0913 0.32598-6.197 0.63088-9.2314 1.3302 1.337-0.70528 1.8617-2.1981 2.1949-3.5733 0.65934-1.7075 2.6447-2.3294 4.3279-2.1857zm2.7063 15.809c0.05658 2.7221-0.26295 5.7977-2.4059 7.736-1.1531 1.1329-3.5311 1.3994-4.337-0.26605-0.77916-1.8624-0.65036-4.3072 0.76603-5.8393 1.5846-1.517 3.8854-1.8395 5.9769-2.0435-2e-6 0.13761 0 0.27522 0 0.41283z" fill="#fff" fill-opacity=".92549" stroke-width="1.1743"/>
<path d="m54.506 53.139c1.0564-0.44104 1.7958 0.29574 0.7496 1.6308-1.053 1.3462-9.4712 9.0652-23.621 9.0652-14.141 0-24.974-9.6584-28.279-13.665-0.90601-1.0402 0.13761-1.5094 0.75216-1.1291 9.9217 6.0386 25.423 15.981 50.399 4.0976zm7.0139-3.8728c0.51027 0.66498-0.01624 3.6531-0.88037 5.795-0.86926 2.1308-2.165 3.636-2.8813 4.2172-0.72566 0.58207-1.2599 0.35642-0.87353-0.51626 0.40001-0.87353 2.5898-6.2874 1.7223-7.4242-0.86413-1.1282-5.0087-0.60515-6.4882-0.45813-1.4753 0.13334-1.7693 0.26497-1.9129-0.02992-0.28035-0.78806 2.9437-2.1001 5.0916-2.3556 2.1445-0.26411 5.5523-0.10086 6.2233 0.77182z" fill="#ff9000" stroke-width="1.1743"/>
<path d="m43.894 48.591c-2.6573-2.206-3.13-3.23-4.5942-5.3352-4.3907 4.4805-7.4985 5.8198-13.196 5.8198-6.7335 0-11.981-4.154-11.981-12.472 0-6.4942 3.5249-10.918 8.5353-13.079 4.3463-1.9137 10.415-2.2514 15.054-2.7804v-1.0359c0-1.9026 0.14616-4.1531-0.96841-5.7968-0.97952-1.4744-2.8488-2.0821-4.4933-2.0821-3.0505 0-5.7754 1.5642-6.4404 4.8061-0.13505 0.72054-0.66412 1.43-1.3847 1.4633l-7.7695-0.8325c-0.65301-0.14701-1.3735-0.67609-1.1932-1.6778 1.7907-9.4097 10.291-12.247 17.902-12.247 3.8958 0 8.9857 1.0359 12.059 3.9847 3.8958 3.636 3.524 8.4874 3.524 13.766v12.471c0 3.7488 1.5539 5.3916 3.018 7.4182 0.51796 0.72053 0.63079 1.5872-0.02307 2.1274-1.6325 1.3616-4.5377 3.895-6.1361 5.313l-0.02223-0.02222c-0.52908 0.47266-1.2949 0.506-1.8915 0.1906zm-6.1814-21.431c-5.7882 0-11.902 1.2385-11.902 8.0592 0 3.4557 1.7907 5.7968 4.8643 5.7968 2.2522 0 4.2677-1.3838 5.5403-3.6352 1.5761-2.7693 1.4975-5.3694 1.4975-8.4874z" fill-rule="evenodd" stroke-width="1.1743"/>
<path d="m31.871 1.0262c-5.5325 0.2407-11.358 2.0342-15.069 6.3551-2.0415 2.3738-3.3692 5.3855-3.7152 8.4954-0.06181 2.1371 1.9548 3.8358 4.0193 3.7997 2.4104 0.24362 4.8186 0.54548 7.2304 0.7529-4.7827 1.3191-9.1911 4.5545-11.165 9.202-1.8578 4.3671-1.8822 9.5171-0.05665 13.898 1.6978 4.076 5.6554 6.9652 9.9843 7.6348 3.4275 0.51255 7.0268 0.30471 10.303-0.87136 2.0482-0.77046 3.8922-2.0084 5.5239-3.4539 1.1642 1.5078 2.5013 2.9605 4.1374 3.9527 1.3316 0.60603 2.989 0.41533 4.1285-0.51019 0.44067-0.29313 1.1339-0.96184 1.6647-1.4091 1.6619-1.5185 3.4539-2.8993 5.0782-4.4531 1.3139-1.5472 0.86462-3.8826-0.42034-5.2992-1.264-1.5461-2.3132-3.401-2.2132-5.4636-0.04203-5.8736 0.06279-11.75-0.04776-17.622-0.1041-3.8045-1.2862-7.7784-4.1924-10.392-4.0218-3.7374-9.8693-4.8337-15.19-4.6168zm0.78667 13.174c1.2325 0.03396 2.4578 0.8546 2.5664 2.1582 0.12612 0.74972 0.14953 1.5117 0.1422 2.2706-3.0913 0.32598-6.197 0.63088-9.2314 1.3302 1.337-0.70528 1.8617-2.1981 2.1949-3.5733 0.65934-1.7075 2.6447-2.3294 4.3279-2.1857zm2.7063 15.809c0.05658 2.7221-0.26295 5.7977-2.4059 7.736-1.1531 1.1329-3.5311 1.3994-4.337-0.26605-0.77916-1.8624-0.65036-4.3072 0.76603-5.8393 1.5846-1.517 3.8854-1.8395 5.9769-2.0435-2e-6 0.13761 0 0.27522 0 0.41283z" fill="#fff" fill-opacity=".92549" stroke-width="1.1743"/>
<path d="m54.506 53.139c1.0564-0.44104 1.7958 0.29574 0.7496 1.6308-1.053 1.3462-9.4712 9.0652-23.621 9.0652-14.141 0-24.974-9.6584-28.279-13.665-0.90601-1.0402 0.13761-1.5094 0.75216-1.1291 9.9217 6.0386 25.423 15.981 50.399 4.0976zm7.0139-3.8728c0.51027 0.66498-0.01624 3.6531-0.88037 5.795-0.86926 2.1308-2.165 3.636-2.8813 4.2172-0.72566 0.58207-1.2599 0.35642-0.87353-0.51626 0.40001-0.87353 2.5898-6.2874 1.7223-7.4242-0.86413-1.1282-5.0087-0.60515-6.4882-0.45813-1.4753 0.13334-1.7693 0.26497-1.9129-0.02992-0.28035-0.78806 2.9437-2.1001 5.0916-2.3556 2.1445-0.26411 5.5523-0.10086 6.2233 0.77182z" fill="#ff9000" stroke-width="1.1743"/>
<path d="m43.894 48.591c-2.6573-2.206-3.13-3.23-4.5942-5.3352-4.3907 4.4805-7.4985 5.8198-13.196 5.8198-6.7335 0-11.981-4.154-11.981-12.472 0-6.4942 3.5249-10.918 8.5353-13.079 4.3463-1.9137 10.415-2.2514 15.054-2.7804v-1.0359c0-1.9026 0.14616-4.1531-0.96841-5.7968-0.97952-1.4744-2.8488-2.0821-4.4933-2.0821-3.0505 0-5.7754 1.5642-6.4404 4.8061-0.13505 0.72054-0.66412 1.43-1.3847 1.4633l-7.7695-0.8325c-0.65301-0.14701-1.3735-0.67609-1.1932-1.6778 1.7907-9.4097 10.291-12.247 17.902-12.247 3.8958 0 8.9857 1.0359 12.059 3.9847 3.8958 3.636 3.524 8.4874 3.524 13.766v12.471c0 3.7488 1.5539 5.3916 3.018 7.4182 0.51796 0.72053 0.63079 1.5872-0.02307 2.1274-1.6325 1.3616-4.5377 3.895-6.1361 5.313l-0.02223-0.02222c-0.52908 0.47266-1.2949 0.506-1.8915 0.1906zm-6.1814-21.431c-5.7882 0-11.902 1.2385-11.902 8.0592 0 3.4557 1.7907 5.7968 4.8643 5.7968 2.2522 0 4.2677-1.3838 5.5403-3.6352 1.5761-2.7693 1.4975-5.3694 1.4975-8.4874z" fill-rule="evenodd" stroke-width="1.1743"/>
</svg>
