<?xml version="1.0" encoding="UTF-8" standalone="no"?>
<svg
   height="64"
   viewBox="0 0 64 64"
   width="64"
   version="1.1"
   id="svg830"
   sodipodi:docname="amazon.svg"
   inkscape:version="1.1.1 (c3084ef, 2021-09-22)"
   xmlns:inkscape="http://www.inkscape.org/namespaces/inkscape"
   xmlns:sodipodi="http://sodipodi.sourceforge.net/DTD/sodipodi-0.dtd"
   xmlns="http://www.w3.org/2000/svg"
   xmlns:svg="http://www.w3.org/2000/svg">
  <defs
     id="defs834" />
  <sodipodi:namedview
     id="namedview832"
     pagecolor="#505050"
     bordercolor="#ffffff"
     borderopacity="1"
     inkscape:pageshadow="0"
     inkscape:pageopacity="0"
     inkscape:pagecheckerboard="1"
     showgrid="false"
     inkscape:zoom="9.765625"
     inkscape:cx="32"
     inkscape:cy="32"
     inkscape:window-width="1383"
     inkscape:window-height="847"
     inkscape:window-x="0"
     inkscape:window-y="25"
     inkscape:window-maximized="0"
     inkscape:current-layer="svg830" />
  <path
     d="M 31.45998,0.86142093 C 25.927522,1.1021173 20.101502,2.8955954 16.39131,7.2164773 14.349856,9.5903262 13.022105,12.60195 12.676136,15.711896 c -0.06181,2.137102 1.954761,3.835783 4.019266,3.799718 2.41042,0.243623 4.818563,0.54548 7.230398,0.752899 -4.782711,1.319141 -9.191114,4.554501 -11.165491,9.201997 -1.857751,4.367147 -1.882227,9.517118 -0.05665,13.898231 1.697792,4.076045 5.655353,6.965215 9.984256,7.63483 3.427541,0.51255 7.026848,0.30471 10.303048,-0.871361 2.048204,-0.77046 3.89224,-2.008407 5.523853,-3.453935 1.164192,1.50783 2.501297,2.960494 4.137351,3.952746 1.331574,0.606033 2.989021,0.415333 4.128457,-0.510188 0.440669,-0.293133 1.133882,-0.961837 1.664695,-1.409149 1.661861,-1.518547 3.453861,-2.899339 5.078224,-4.453062 1.313883,-1.547218 0.864618,-3.882613 -0.420343,-5.299207 -1.263973,-1.546147 -2.313208,-3.40096 -2.213179,-5.46362 -0.04203,-5.873628 0.06279,-11.749538 -0.04776,-17.621894 C 50.73816,12.065388 49.556051,8.0914956 46.649894,5.4782558 42.628113,1.7408625 36.780624,0.64456863 31.45998,0.86142093 Z M 32.246654,14.03534 c 1.232541,0.03396 2.457772,0.854601 2.566437,2.158193 0.126124,0.749719 0.149529,1.511707 0.142198,2.270575 -3.091335,0.325985 -6.196995,0.630885 -9.231377,1.330235 1.336995,-0.705282 1.861687,-2.19809 2.194889,-3.573288 0.659338,-1.707495 2.644723,-2.329376 4.327853,-2.185715 z m 2.706342,15.809162 c 0.05658,2.722121 -0.26295,5.797656 -2.405893,7.736008 -1.153111,1.132928 -3.531134,1.399436 -4.337026,-0.266048 -0.779158,-1.862363 -0.650358,-4.307191 0.766032,-5.839275 1.584551,-1.51695 3.885417,-1.83951 5.976887,-2.043517 -2e-6,0.137611 0,0.275221 0,0.412832 z"
     fill="#ffffff"
     fill-opacity="0.92549"
     id="path824"
     style="stroke-width:1.17428" />
  <path
     d="m 54.094931,52.974743 c 1.056443,-0.441039 1.795782,0.295735 0.749595,1.630819 -1.053023,1.346196 -9.47123,9.065236 -23.621236,9.065236 -14.140604,0 -24.9742685,-9.658416 -28.279498,-13.664522 -0.9060106,-1.040202 0.1376111,-1.509448 0.7521598,-1.129094 9.9216712,6.038646 25.4230012,15.980831 50.3989792,4.097561 z m 7.013891,-3.872768 c 0.510271,0.664978 -0.01624,3.653103 -0.88037,5.795049 -0.869257,2.130835 -2.165024,3.636009 -2.881284,4.217223 -0.725664,0.582069 -1.259868,0.356422 -0.873531,-0.516255 0.400012,-0.873531 2.589822,-6.287372 1.722274,-7.424159 -0.864129,-1.12824 -5.0087,-0.605146 -6.488233,-0.458134 -1.475258,0.133338 -1.769284,0.264966 -1.912878,-0.02992 -0.280351,-0.788059 2.94368,-2.100065 5.091608,-2.355628 2.14451,-0.264111 5.552308,-0.100859 6.223268,0.771818 z"
     fill="#ff9000"
     id="path826"
     style="stroke-width:1.17428" />
  <path
     d="m 43.48264,48.425886 c -2.657346,-2.20605 -3.13001,-3.230014 -4.594158,-5.335206 -4.390732,4.480478 -7.49852,5.819836 -13.19613,5.819836 -6.73354,0 -11.980709,-4.153974 -11.980709,-12.472177 0,-6.494216 3.524895,-10.918283 8.535304,-13.079033 4.346287,-1.913734 10.414849,-2.251351 15.054308,-2.780427 V 19.54295 c 0,-1.902622 0.146158,-4.153119 -0.968407,-5.796759 -0.979517,-1.474405 -2.848805,-2.082115 -4.4933,-2.082115 -3.05052,0 -5.775389,1.564151 -6.440367,4.80613 -0.135048,0.720535 -0.664123,1.429959 -1.384658,1.463293 L 16.245054,17.100994 C 15.592043,16.953982 14.871508,16.424905 15.051856,15.423165 16.842508,6.0134751 25.342769,3.1766362 32.954113,3.1766362 c 3.895846,0 8.985746,1.0359291 12.059344,3.984737 3.895845,3.6360098 3.524039,8.4874398 3.524039,13.7662348 V 33.39893 c 0,3.748832 1.553893,5.391617 3.018042,7.418176 0.517964,0.720534 0.630788,1.587228 -0.02307,2.127415 -1.632529,1.36158 -4.537745,3.894991 -6.136085,5.312983 l -0.02223,-0.02222 c -0.529077,0.472664 -1.294912,0.505998 -1.891511,0.190605 z M 37.301255,26.99446 c -5.788212,0 -11.902074,1.2385 -11.902074,8.059221 0,3.455661 1.790652,5.796759 4.864252,5.796759 2.252205,0 4.267651,-1.383803 5.54034,-3.635155 1.576116,-2.769314 1.497482,-5.369395 1.497482,-8.487438 z"
     fill-rule="evenodd"
     id="path828"
     style="stroke-width:1.17428" />
</svg>
