<svg width="512" height="512" viewBox="0 0 512 512" fill="none" xmlns="http://www.w3.org/2000/svg">
<rect width="512" height="512" rx="100" fill="#C4C4C4"/>
<rect width="512" height="512" rx="100" fill="url(#paint0_radial)"/>
<path d="M372.147 359.241C240.662 421.816 159.061 369.461 106.825 337.661C103.593 335.657 98.099 338.13 102.866 343.605C120.268 364.706 177.299 415.564 251.74 415.564C326.233 415.564 370.55 374.917 376.094 367.827C381.6 360.796 377.71 356.918 372.145 359.241H372.147ZM409.074 338.847C405.543 334.249 387.604 333.392 376.314 334.779C365.006 336.126 348.034 343.036 349.509 347.186C350.266 348.74 351.812 348.043 359.58 347.345C367.369 346.567 389.189 343.814 393.736 349.757C398.304 355.742 386.776 384.252 384.671 388.85C382.637 393.448 385.448 394.633 389.269 391.571C393.037 388.51 399.859 380.582 404.437 369.364C408.984 358.084 411.757 342.348 409.073 338.847H409.074Z" fill="#FF9900"/>
<path fill-rule="evenodd" clip-rule="evenodd" d="M283.737 231.555C283.737 247.974 284.152 261.667 275.853 276.248C269.155 288.104 258.545 295.394 246.69 295.394C230.507 295.394 221.083 283.065 221.083 264.868C221.083 228.946 253.268 222.427 283.737 222.427V231.555ZM326.237 334.279C323.451 336.768 319.42 336.947 316.279 335.286C302.29 323.669 299.8 318.275 292.095 307.19C268.978 330.782 252.617 337.835 222.625 337.835C187.178 337.835 159.555 315.962 159.555 272.158C159.555 237.957 178.109 214.661 204.485 203.281C227.366 193.203 259.316 191.425 283.737 188.64V183.187C283.737 173.169 284.507 161.314 278.64 152.66C273.482 144.895 263.643 141.694 254.988 141.694C238.925 141.694 224.58 149.933 221.083 167.004C220.371 170.798 217.586 174.533 213.792 174.71L172.892 170.325C169.455 169.553 165.661 166.768 166.61 161.491C176.034 111.938 220.785 97 260.855 97C281.365 97 308.156 102.454 324.339 117.984C344.849 137.13 342.892 162.677 342.892 190.477V256.154C342.892 275.893 351.072 284.546 358.778 295.217C361.504 299.01 362.097 303.575 358.659 306.419C350.064 313.591 334.771 326.929 326.355 334.398L326.236 334.279" fill="black"/>
<path d="M372.147 359.241C240.662 421.816 159.061 369.461 106.825 337.661C103.593 335.657 98.099 338.13 102.866 343.605C120.268 364.706 177.299 415.564 251.74 415.564C326.233 415.564 370.55 374.917 376.094 367.827C381.6 360.796 377.71 356.918 372.145 359.241H372.147ZM409.074 338.847C405.543 334.249 387.604 333.392 376.314 334.779C365.006 336.126 348.034 343.036 349.509 347.186C350.266 348.74 351.812 348.043 359.58 347.345C367.369 346.567 389.189 343.814 393.736 349.757C398.304 355.742 386.776 384.252 384.671 388.85C382.637 393.448 385.448 394.633 389.269 391.571C393.037 388.51 399.859 380.582 404.437 369.364C408.984 358.084 411.757 342.348 409.073 338.847H409.074Z" fill="#FF9900"/>
<path fill-rule="evenodd" clip-rule="evenodd" d="M283.737 231.555C283.737 247.974 284.152 261.667 275.853 276.248C269.155 288.104 258.545 295.394 246.69 295.394C230.507 295.394 221.083 283.065 221.083 264.868C221.083 228.946 253.268 222.427 283.737 222.427V231.555ZM326.237 334.279C323.451 336.768 319.42 336.947 316.279 335.286C302.29 323.669 299.8 318.275 292.095 307.19C268.978 330.782 252.617 337.835 222.625 337.835C187.178 337.835 159.555 315.962 159.555 272.158C159.555 237.957 178.109 214.661 204.485 203.281C227.366 193.203 259.316 191.425 283.737 188.64V183.187C283.737 173.169 284.507 161.314 278.64 152.66C273.482 144.895 263.643 141.694 254.988 141.694C238.925 141.694 224.58 149.933 221.083 167.004C220.371 170.798 217.586 174.533 213.792 174.71L172.892 170.325C169.455 169.553 165.661 166.768 166.61 161.491C176.034 111.938 220.785 97 260.855 97C281.365 97 308.156 102.454 324.339 117.984C344.849 137.13 342.892 162.677 342.892 190.477V256.154C342.892 275.893 351.072 284.546 358.778 295.217C361.504 299.01 362.097 303.575 358.659 306.419C350.064 313.591 334.771 326.929 326.355 334.398L326.236 334.279" fill="white"/>
<defs>
<radialGradient id="paint0_radial" cx="0" cy="0" r="1" gradientUnits="userSpaceOnUse" gradientTransform="translate(256) rotate(90) scale(512)">
<stop stop-color="#313339"/>
<stop offset="1" stop-color="#272D39"/>
</radialGradient>
</defs>
</svg>
