<svg xmlns="http://www.w3.org/2000/svg" xmlns:xlink="http://www.w3.org/1999/xlink" width="512" height="512"><defs><linearGradient id="d"><stop offset="0" style="stop-color:#525252;stop-opacity:1"/><stop offset="1" style="stop-color:#3d3d3d;stop-opacity:1"/></linearGradient><linearGradient xlink:href="#a" id="p" x1="993.439" x2="988.786" y1="51.512" y2="363.738" gradientTransform="translate(778.6 -360.56)" gradientUnits="userSpaceOnUse"/><linearGradient id="a"><stop offset="0" style="stop-color:#fff;stop-opacity:1"/><stop offset="1" style="stop-color:#fff;stop-opacity:0"/></linearGradient><linearGradient xlink:href="#b" id="q" x1="1764.649" x2="1763.69" y1="155.597" y2="-55.941" gradientUnits="userSpaceOnUse"/><linearGradient id="b"><stop offset="0" style="stop-color:#000;stop-opacity:1"/><stop offset="1" style="stop-color:#fff;stop-opacity:.2"/></linearGradient><linearGradient xlink:href="#c" id="f" x1="1012.513" x2="1006.808" y1="484.417" y2="20.626" gradientTransform="translate(-830.864 592.678)scale(1.03178)" gradientUnits="userSpaceOnUse"/><linearGradient id="c" x1="45.448" x2="45.448" y1="92.54" y2="7.017" gradientTransform="matrix(1.00587 0 0 .99417 100 0)" gradientUnits="userSpaceOnUse"><stop offset="0" style="stop-color:#000;stop-opacity:1"/><stop offset="1" style="stop-color:#000;stop-opacity:.58823532"/></linearGradient><linearGradient xlink:href="#c" id="g" x1="1012.513" x2="1006.808" y1="484.417" y2="20.626" gradientTransform="translate(-837.951 592.518)scale(1.04025)" gradientUnits="userSpaceOnUse"/><linearGradient xlink:href="#c" id="j" x1="1012.513" x2="1006.808" y1="484.417" y2="20.626" gradientTransform="translate(-823.777 592.838)scale(1.0233)" gradientUnits="userSpaceOnUse"/><linearGradient xlink:href="#c" id="k" x1="1012.513" x2="1006.808" y1="484.417" y2="20.626" gradientTransform="translate(-816.69 592.997)scale(1.01483)" gradientUnits="userSpaceOnUse"/><linearGradient xlink:href="#c" id="l" x1="1012.513" x2="1006.808" y1="484.417" y2="20.626" gradientTransform="translate(-810.489 593.137)scale(1.00742)" gradientUnits="userSpaceOnUse"/><linearGradient id="e"><stop offset="0" style="stop-color:#7bb8f0;stop-opacity:1"/><stop offset="1" style="stop-color:#b5d5f2;stop-opacity:.1221374"/></linearGradient><linearGradient xlink:href="#d" id="n" x1="926.095" x2="930.095" y1="160.35" y2="616.35" gradientTransform="translate(-666.095 -134.35)" gradientUnits="userSpaceOnUse"/><radialGradient xlink:href="#e" id="o" cx="63.98" cy="61.949" r="58.02" fx="63.98" fy="61.949" gradientTransform="matrix(6.12483 0 0 4.48079 -135.866 -29.233)" gradientUnits="userSpaceOnUse"/></defs><g transform="translate(-11.985 -592.117)"><rect width="487" height="487" x="31.985" y="612.117" ry="101.458" style="opacity:.1;color:#000;fill:url(#f);fill-opacity:1;fill-rule:nonzero;stroke:none;stroke-width:1.5;marker:none;visibility:visible;display:inline;overflow:visible"/><rect width="491" height="491" x="31.985" y="612.117" ry="102.292" style="opacity:.07999998;color:#000;fill:url(#g);fill-opacity:1;fill-rule:nonzero;stroke:none;stroke-width:1.5;marker:none;visibility:visible;display:inline;overflow:visible"/><rect width="483" height="483" x="31.985" y="612.117" ry="100.625" style="opacity:.2;color:#000;fill:url(#j);fill-opacity:1;fill-rule:nonzero;stroke:none;stroke-width:1.5;marker:none;visibility:visible;display:inline;overflow:visible"/><rect width="479" height="479" x="31.985" y="612.117" ry="99.792" style="opacity:.25;color:#000;fill:url(#k);fill-opacity:1;fill-rule:nonzero;stroke:none;stroke-width:1.5;marker:none;visibility:visible;display:inline;overflow:visible"/><rect width="475.5" height="475.5" x="31.985" y="612.117" ry="99.063" style="opacity:.25;color:#000;fill:url(#l);fill-opacity:1;fill-rule:nonzero;stroke:none;stroke-width:1.5;marker:none;visibility:visible;display:inline;overflow:visible"/></g><rect width="472" height="472" x="20" y="20" ry="98.333" style="color:#000;fill:url(#n);fill-opacity:1;fill-rule:nonzero;stroke:none;stroke-width:1.5;marker:none;visibility:visible;display:inline;overflow:visible"/><path d="M-318.676 550.357c-54.476 0-98.343 43.868-98.343 98.344v275.313c0 54.476 43.867 98.343 98.343 98.343h275.313c54.477 0 98.344-43.867 98.344-98.343V648.7c0-54.476-43.867-98.344-98.344-98.344z" style="color:#000;fill:#777;fill-opacity:1;fill-rule:evenodd;stroke:none;marker:none;visibility:visible;display:inline;overflow:visible" transform="translate(437.02 -530.357)"/><path d="M270.626 32c-2.07.022-3.962.215-5.375.532h-75.125c9.272 11.812.608 31.54 14.593 31.343 6.81 9.134-13.56 2.71 1.157 9.75 8.463 6.323-8.95 9.951 1.53 15.625-12.078 5.914 1.967 30.927 10.938 37.188 14.767 11.793 6.524-24.963 23-26.875 8.954-9.697 24.677-15.933 35.844-25.688-10.914-.84-17.305-7.289-6.969-11.28 19.023 18.492 4.78-8.749-5.75-13.063 10.19-3.075 20.102-.836 18.688-8.813 8.749-6.072-3.567-8.814-12.531-8.719M98.219 41.313c-7.935 11.805 1.148 21.274 7.75 6.875 4.674-6.013-3.468-6.655-7.75-6.875m19.813 2.656c-15.333 6.742-3.786 22.472-3.406 25.969 16.152 5.301 25.14-3.453 31.25 11.531 14.559 7.96 1.283 21.458-5.063 26.094 10.614-5.949 29.198 23.529 24.125 7.187-6.247-4.327 16.787 6.94 4.844-7.125-10.991-16.8.866-7.514 5.5-3.593 15.76-13.408-17.823-15.046-9.438-28.844-7.348-5.646-16.987-22.75-30-19.406-8.71 10.687-1.22-23.282-14-6.282-.662 9.504-.244 21.558-3.968 5.094-2.496-2.882 4.295-9.581.156-10.625m22.781 63.594a6.7 6.7 0 0 0-1 .687c.304-.2.647-.43 1-.687M86.782 44.094c-10.292 3.255-9.749 16.46 2.906 17.875 4.335-4.687 1.732-16.987-2.906-17.875m-21.031 4.844c-4.52-.618 1.232 20.533-5.938 2.781-2.233 4.707-8.266 2.598-11.406-.594-3.098 3.13-6 6.446-8.656 9.97.882 1.427 1.999 2.617 3.03 3.343-16.547 3.932 25.277 5.01 4.47 7.5-17.311 6.559 16.644 14.277 22.218 6.5 21.377 4.96.783-16.23-1.093-27.719-1.133-1.153-1.98-1.693-2.625-1.781m400.437 4.875c-3.617 7.16 7.849 17.937 9.969 12.844a98 98 0 0 0-9.969-12.844M96.813 59.782c-12.89 11.492 16.369 20.97-3.719 29.53-3.012-10.672-8.164 5.34-19.656-3.28-18.283 7.222-28.31-2.39-42.812-10.313-6.005 11.825-9.693 25.046-10.47 39.063v56.125c9.741 9.722 3.801 4.306 0 1.625 5.347 17.274-2.354 42.514 18.72 52.562 3.582 6.304 18.62 33.161 19.312 25.125-7.536-7.487-15.283-29.943-2.531-9.937 11.422 19.017 26.835 31.35 49.344 35.875 12.306 3.97 22.428 17.628 33.25 14.625 6.12 15.304-18.137 30.007.812 44.28 9.893 14.451 26.523 23.932 17.531 44.22-6.288 19.814-3.624 41.383-9.062 59.843-1.688 11.237 16.514 39.777 14.937 16.938 5.314-15.871 5.175-33.323 17.688-44.563 17.122.13 3.286-17.486 20.281-15.187 10.37-12.896 13.374-28.286 30.875-33.406 2.09-15.654 29.09-39.624 1.188-45.72-7.584-3.545-27.118-4.812-25.625-6.562 3.023-15.532-25.221-19.957-37.25-26.312-15.794-10.635-39.53 17.669-45.094-6.719-3.32-7.673-15.485-7.785-9.906-19.625-10.055 9.487-29.712 6.603-24.563-11.719 7.82-15.43 37.852-16.184 42.969 2.375-7.105-20.468 13.745-36.406 25.312-50.968 2.356-6.96 16.348-12.939 11.532-3.688 8.204-.28 20.637-14.327 6.062-7.844-.206-12.81-12.77-9.162-16.844-7.343 7.551-11.37 46.333-5.135 30.094-23.72-12.583-4.836-11.554-33.067-24.281-17.343 1.07-9.688-25.901-28.653-25.313-12.406 3.293 14.538.601 31.283-6.406 40.812-1.462-21.302-39.767-16.612-34.844-39.312 7.134-10.819 15.488-25.752 16.282-24.406 12.783-4.63 23.066-18.115 8.25-26.97-.792 7.718-11.145 23.633-9.688 4.376-9.585 10.781-7.398-17.134-16.375-20.031m306.875 7.093c-.42.023-.739.156-.906.375-22.453 5.211-31.361 25.555-42.469 42.407-16.373 7.003-15.76 37.074 2.531 27.468 4.896 8.112-3.416 20.888 10.844 10.282 11.502-14.44 2.02-37.801 21.594-46.907 1.426 7.08-18.072 33.533 4.687 29.188 20.575.736-14.944 1.938-4.937 14.406-10.397-5.852-4.992 15.988-18.563 10.906-11.756 6.067-19.474-2.83-16.78-12.562-9.25 5.119 2.898 19.57-13.157 20.437-3.597 12.116-33.163 10.288-16.344 22.625 7.467 18.36-27.831 1.156-17.812 23.188 8.571 21.786 26.524-7.209 33.812-12.813 13.622-10.024 33.612 15.922 23.344 18.5 12.928-2.315 9.877-14.582-1.188-19.406-6.14-15.107 19.45 7.426 18.032 15 9.024 16.031 5.317-16.426 14.5-2.062-1.072 15.151 36.93 3.564 18.78 22.875-15.603 2.981-30.972-3.792-44.405.562-12.503-.105-11.855-12.795-16.407-15.969-15.904 1.226-35.571 1.093-46.218 13.282-11.514 14.986-28.112 35.926-15.563 55.062 12.558 28.357 43.693 1.472 61.594 18.219 5.32 6.983-4.616 15.28 7.281 22.844 4.477 16.111-5.089 31.41 5.906 46.812 5.686 14.485 9.245 36.173 30.407 22.938 22.396-12.786 16.426-36.351 34.906-49.407-14.622-26.846 17.888-38.611 26-60.406-17.722 2.462-33.53-14.315-37.813-31.187-7.444-8.195-5.503-20.27 2.813-4.875 11.43 10.508 11.668 41.665 32.812 25.625 9.667-3.836 36.066-18.467 15.032-25.125-13.56 9.317-28.536-27.833-8.625-6.282 14.474 5.826 24.625 9.316 24.625-10V120.344c0-13.8-2.817-26.915-7.907-38.812-4.89 2.787-10.5 4.458-14.03 1.218-10.061 1.33-23.35 19.92-20.188 1.97-8.745-.55-1.549 16.096-13.563 16.562-1.21 8.557-12.135 1.56-8.031 9.687-8.432-5.674-15.583-23.589 1.031-12.344 24.674-7.022-16.277-22.858-19.437-26.687 4.648-1.057-3.24-5.219-6.188-5.063m-204.562 5.063c-8.213 6.491 15.612 7.714 0 0m-109.688 3.5c-9.185 9.115 14.628 8.38 0 0m53.25 9.031c-6.955 10.81 10.278 3.991 0 0M294.969 97.25c-8.143 8.895-18.887-2.332-19.062 5.313 1.476 2.31 7.393 18.791 20.344 6.625 6.95-2.78 4.204-9.792-1.282-11.938m-173.375 5.313c-15.445 12.797 26.241 13.977 3.282 1.469zm203.563 35.562c-10.717 6.932 5.511 21.398-.031 28.22-6.968 11.517 25.896-.811 8.343-10-1.203-7.595-9.616-16.796-8.312-18.22m-7.313 13.75c-15.493 4.156-3.519 25.615 1.97 5.407.308-1.172.728-5.446-1.97-5.407m-124.062 15.532c-14.414 9.324-2.22 18.633 8.344 14.437-2.17-5.626-8.246-9.172-8.344-14.437m272.281 15.686c7.192 3.444-13.181 9.315-.281 15.375 7.507 8.375 4.67 26.35-7.531 13.625 2.267-14.206-16.533-24.8 7.812-29m-36.969.125c-.975 9.127 20.739 23.286-2.687 18.656-12.389 1.38-30.951-.354-15.344-15 4.932-2.808 17.894 9.715 11.156-1.968 2.39-.145 4.625-1 6.875-1.688m-71.562 19.75c-9.036 5.523 6.248 9.758 0 0m-226.906 51.469c-1.524 4.821 28.584 9.725 7.812 2l-3.094-1.031zm23.375 6.875c-9.13 8.794 18.811 2.627 0 0m305.343 80.656c-19.839.486-17.204 49.039-3.375 20.313 1.312-6.234 6.571-14.467 3.375-20.313" style="display:inline;opacity:.8;fill:url(#o);fill-opacity:1;stroke:none"/><path d="M1650.5-310.416c-54.477 0-98.313 43.836-98.313 98.312V63.24c0 54.477 43.836 98.344 98.312 98.344h2.938c-53.323 0-96.25-42.928-96.25-96.25v-269.5c0-53.323 42.927-96.25 96.25-96.25h269.5c53.323 0 96.25 42.927 96.25 96.25v269.5c0 53.322-42.927 96.25-96.25 96.25h2.906c54.477 0 98.344-43.867 98.344-98.344v-275.344c0-54.476-43.867-98.312-98.344-98.312z" style="opacity:.3;color:#000;fill:url(#p);fill-opacity:1;fill-rule:nonzero;stroke:none;stroke-width:1.5;marker:none;visibility:visible;display:inline;overflow:visible" transform="translate(-1532.187 330.416)"/><path d="M1650.5 161.584c-54.477 0-98.313-43.836-98.313-98.313v-275.343c0-54.477 43.836-98.344 98.312-98.344h2.938c-53.323 0-96.25 42.927-96.25 96.25v269.5c0 53.322 42.927 96.25 96.25 96.25h269.5c53.323 0 96.25-42.928 96.25-96.25v-269.5c0-53.323-42.927-96.25-96.25-96.25h2.906c54.477 0 98.344 43.867 98.344 98.344V63.27c0 54.477-43.867 98.313-98.344 98.313z" style="opacity:.2;color:#000;fill:url(#q);fill-opacity:1;fill-rule:nonzero;stroke:none;stroke-width:1.5;marker:none;visibility:visible;display:inline;overflow:visible" transform="translate(-1532.187 330.416)"/><path d="M359.75 148.409c18.52 19.579 29.906 45.952 29.906 74.875 0 60.025-49.031 109.125-109.125 109.125-22.856 0-44.396-7.098-62-19.22l-73.156 73.158a19.95 19.95 0 0 1-27.781.094l104.844 105.562h171.218c54.477 0 98.344-43.867 98.344-98.344V281.566zM117.594 386.44a20 20 0 0 1-1-1.063l-.031.03z" style="fill:#000;fill-opacity:.313725;fill-rule:nonzero;stroke:none"/><path fill="#f0f0f0" d="M274.99 104.157c-60.095 0-109.743 49.096-109.743 109.12 0 22.815 7.722 43.805 19.84 61.382l-73.16 73.16a19.949 19.949 0 0 0 27.9 28.52l73.16-73.16c17.605 12.12 39.146 19.22 62.002 19.22 60.093 0 109.121-49.096 109.121-109.121s-49.028-109.121-109.12-109.121m0 39.68c38.635 0 69.44 30.849 69.44 69.44 0 38.593-30.805 69.442-69.44 69.442-38.637 0-69.442-30.85-69.442-69.44 0-38.593 30.805-69.442 69.44-69.442"/></svg>