<?xml version="1.0" encoding="UTF-8"?>
<svg width="960" height="960" version="1.1" viewBox="0 0 96 96" xmlns="http://www.w3.org/2000/svg" xmlns:xlink="http://www.w3.org/1999/xlink">
<defs>
<linearGradient id="ad" x1="32.251" x2="32.251" y1="6.1317" y2="90.239" gradientTransform="matrix(1.0238 0 0 -1.0119 -1.1429 98.071)" gradientUnits="userSpaceOnUse" xlink:href="#ac"/>
<radialGradient id="ar" cx="74.375" cy="67.125" r="3.125" gradientTransform="matrix(1.3572 0 0 1.3554 -73.268 -53.872)" gradientUnits="userSpaceOnUse" xlink:href="#aa"/>
<radialGradient id="aq" cx="74.375" cy="67.125" r="3.125" gradientTransform="matrix(1.0745 0 0 1.0731 -39.514 -14.091)" gradientUnits="userSpaceOnUse" xlink:href="#aa"/>
<radialGradient id="ap" cx="74.375" cy="67.125" r="3.125" gradientTransform="matrix(1.5834 0 0 1.5813 -53.334 -72.389)" gradientUnits="userSpaceOnUse" xlink:href="#aa"/>
<radialGradient id="ao" cx="74.375" cy="67.125" r="3.125" gradientTransform="matrix(1.0219 0 0 1.0206 -15.636 -16.922)" gradientUnits="userSpaceOnUse" xlink:href="#aa"/>
<radialGradient id="an" cx="74.375" cy="67.125" r="3.125" gradientTransform="matrix(.79409 0 0 .79303 -44.285 -21.768)" gradientUnits="userSpaceOnUse" xlink:href="#aa"/>
<radialGradient id="am" cx="74.375" cy="67.125" r="3.125" gradientTransform="matrix(.56552 0 0 .56477 38.457 3.2615)" gradientUnits="userSpaceOnUse" xlink:href="#aa"/>
</defs>
<linearGradient id="a">
<stop stop-color="#fff" offset="0"/>
<stop stop-color="#fff" stop-opacity="0" offset="1"/>
</linearGradient>
<linearGradient id="bf" x1="36.357" x2="36.357" y1="6" y2="63.893" gradientUnits="userSpaceOnUse" xlink:href="#a"/>
<filter id="be" x="-.19579" y="-.19579" width="1.3916" height="1.3916" color-interpolation-filters="sRGB">
<feGaussianBlur stdDeviation="5.28"/>
</filter>
<linearGradient id="bd" x1="48" x2="48" y1="20.221" y2="138.66" gradientUnits="userSpaceOnUse" xlink:href="#a"/>
<radialGradient id="bc" cx="48" cy="90.172" r="42" gradientTransform="matrix(1.1573 0 0 .99591 -7.551 .19713)" gradientUnits="userSpaceOnUse" xlink:href="#a"/>
<clipPath id="bb">
<rect x="6" y="6" width="84" height="84" rx="6"/>
</clipPath>
<linearGradient id="ba" x1="48" x2="48" y1="90" y2="5.9877" gradientUnits="userSpaceOnUse">
<stop stop-color="#1567b3" offset="0"/>
<stop stop-color="#67aeed" offset="1"/>
</linearGradient>
<radialGradient id="az" cx="63.98" cy="61.949" r="58.02" gradientTransform="matrix(1.09 0 0 .83885 -21.739 -5.466)" gradientUnits="userSpaceOnUse" xlink:href="#a"/>
<radialGradient id="ay" cx="69.75" cy="75.974" r="58.5" gradientTransform="matrix(.7069 0 0 .26398 2.9353 34.088)" gradientUnits="userSpaceOnUse" xlink:href="#a"/>
<radialGradient id="ax" cx="49.234" cy="70.608" r="25.484" gradientTransform="matrix(.51922 -.47906 1.2027 1.3 -72.744 -19.888)" gradientUnits="userSpaceOnUse" xlink:href="#a"/>
<radialGradient id="aw" cx="64.23" cy="68.449" r="43.77" gradientTransform="matrix(.97474 0 0 .92611 -14.268 -12.601)" gradientUnits="userSpaceOnUse" xlink:href="#a"/>
<radialGradient id="av" cx="63.875" cy="2.2173" r="58.375" gradientTransform="matrix(.84391 0 0 .33117 -5.8162 32.793)" gradientUnits="userSpaceOnUse" xlink:href="#a"/>
<radialGradient id="aa" cx="74.375" cy="67.125" r="3.125" gradientUnits="userSpaceOnUse">
<stop stop-color="#fff" offset="0"/>
<stop stop-color="#fff" offset=".30645"/>
<stop stop-color="#fff" stop-opacity=".64062" offset=".51899"/>
<stop stop-color="#fff" stop-opacity="0" offset="1"/>
</radialGradient>
<linearGradient id="ac" x1="45.448" x2="45.448" y1="92.54" y2="7.0165" gradientTransform="matrix(1.0059 0 0 .99417 100 0)" gradientUnits="userSpaceOnUse">
<stop offset="0"/>
<stop stop-opacity=".58824" offset="1"/>
</linearGradient>
<linearGradient id="au" x1="32.251" x2="32.251" y1="6.1317" y2="90.239" gradientTransform="matrix(1.0238 0 0 1.0119 -1.1429 -98.071)" gradientUnits="userSpaceOnUse" xlink:href="#ac"/>
<linearGradient id="at" x1="32.251" x2="32.251" y1="6.1317" y2="90.239" gradientTransform="translate(0,-97)" gradientUnits="userSpaceOnUse" xlink:href="#ac"/>
<linearGradient id="ab">
<stop offset="0"/>
<stop stop-opacity="0" offset="1"/>
</linearGradient>
<filter id="as" x="-.093734" y="-.086552" width="1.1875" height="1.1731" color-interpolation-filters="sRGB">
<feGaussianBlur stdDeviation="1.9857422"/>
</filter>
<filter id="ae" x="-.09373" y="-.16673" width="1.1875" height="1.3335" color-interpolation-filters="sRGB">
<feGaussianBlur stdDeviation=".31930287"/>
</filter>
<linearGradient id="al" x1="22.221" x2="83.447" y1="14.908" y2="78.168" gradientTransform="rotate(-4.9054 187.64 2.2317)" gradientUnits="userSpaceOnUse" xlink:href="#ab"/>
<radialGradient id="ak" cx="63.938" cy="95.866" r="20.688" gradientTransform="matrix(.14332 -.14331 .83745 .8374 38.232 -15.648)" gradientUnits="userSpaceOnUse">
<stop stop-color="#d0d0d0" offset="0"/>
<stop stop-color="#a1a1a1" offset="1"/>
</radialGradient>
<linearGradient id="aj" x1="40.113" x2="40.113" y1="2.6025" y2="75.04" gradientUnits="userSpaceOnUse">
<stop stop-color="#5496b4" stop-opacity=".61832" offset="0"/>
<stop stop-color="#dfecf2" stop-opacity=".30534" offset="1"/>
</linearGradient>
<linearGradient id="ai" x1="12.75" x2="63.25" y1="11.75" y2="64" gradientUnits="userSpaceOnUse">
<stop stop-color="#404040" offset="0"/>
<stop stop-color="#b7b7b7" offset=".5"/>
<stop stop-color="#404040" offset="1"/>
</linearGradient>
<linearGradient id="ah" x1="31.917" x2="25.221" y1="-3.9123" y2="48.498" gradientUnits="userSpaceOnUse" xlink:href="#a"/>
<linearGradient id="ag" x1="124.34" x2="10.007" y1="42.894" y2="21.098" gradientUnits="userSpaceOnUse" xlink:href="#a"/>
<radialGradient id="af" cx="31.357" cy="22.818" r="7.357" gradientTransform="matrix(1 5e-8 -3e-8 .72085 -6.52e-6 6.3697)" gradientUnits="userSpaceOnUse" xlink:href="#a"/>
<linearGradient id="bj" x1="53.797" x2="61.487" y1="73.685" y2="81.817" gradientTransform="matrix(.68752 -.68749 .68752 .68749 23.861 39.569)" gradientUnits="userSpaceOnUse" xlink:href="#ab"/>
<linearGradient id="bi" x1="58.896" x2="43.282" y1="170.4" y2="170.4" gradientUnits="userSpaceOnUse">
<stop offset="0"/>
<stop stop-color="#646464" offset=".2"/>
<stop stop-color="#c8c8c8" offset=".3"/>
<stop stop-color="#646464" offset=".4"/>
<stop offset="1"/>
</linearGradient>
<linearGradient id="bh" x1="64.414" x2="64.414" y1="87.406" y2="75.818" gradientTransform="matrix(.68752 -.68749 .68752 .68749 23.861 39.569)" gradientUnits="userSpaceOnUse" xlink:href="#a"/>
<linearGradient id="bg" x1="22.221" x2="83.447" y1="14.908" y2="78.168" gradientTransform="rotate(7.9563 -53.04 47.305)" gradientUnits="userSpaceOnUse" xlink:href="#ab"/>
<path d="m12 95.031c-5.5111 0-10.031-4.5202-10.031-10.031v-71c0-5.5111 4.5202-10.031 10.031-10.031h72c5.5111 0 10.031 4.5202 10.031 10.031v71c0 5.5111-4.5202 10.031-10.031 10.031z" fill="url(#ad)" opacity=".08"/>
<path d="m12 94.031c-4.9716 0-9.0312-4.0596-9.0312-9.0312v-71c0-4.9716 4.0596-9.0312 9.0312-9.0312h72c4.9716 0 9.0312 4.0596 9.0312 9.0312v71c0 4.9716-4.0596 9.0312-9.0312 9.0312z" fill="url(#ad)" opacity=".1"/>
<path d="m12 93c-4.4091 0-8-3.5909-8-8v-71c0-4.4091 3.5909-8 8-8h72c4.4091 0 8 3.5909 8 8v71c0 4.4091-3.5909 8-8 8z" fill="url(#ad)" opacity=".2"/>
<rect transform="scale(1,-1)" x="5" y="-92" width="86" height="85" rx="7" fill="url(#au)" opacity=".3"/>
<rect transform="scale(1,-1)" x="6" y="-91" width="84" height="84" rx="6" fill="url(#at)" opacity=".45"/>
<rect x="6" y="6" width="84" height="84" rx="6" fill="url(#ba)"/>
<path d="m12 6c-3.324 0-6 2.676-6 6v72c0 0.33472 0.04135 0.6507 0.09375 0.96875 0.0487 0.2956 0.09704 0.59692 0.1875 0.875 0.00988 0.03038 0.020892 0.0636 0.03125 0.09375 0.098865 0.28777 0.23488 0.54745 0.375 0.8125 0.14459 0.27351 0.31562 0.53562 0.5 0.78125s0.37378 0.47347 0.59375 0.6875c0.43995 0.42806 0.94291 0.81453 1.5 1.0938 0.27854 0.13961 0.57347 0.24695 0.875 0.34375-0.2562-0.10022-0.48671-0.23627-0.71875-0.375-0.00741-0.0044-0.023866 0.0045-0.03125 0-0.031933-0.0193-0.062293-0.04251-0.09375-0.0625-0.1204-0.0767-0.23102-0.16351-0.34375-0.25-0.10617-0.0808-0.21328-0.16111-0.3125-0.25-0.17793-0.16143-0.34746-0.34539-0.5-0.53125-0.10758-0.13026-0.21839-0.26528-0.3125-0.40625-0.025089-0.03838-0.038446-0.08587-0.0625-0.125-0.064763-0.10303-0.13023-0.20452-0.1875-0.3125-0.10101-0.19471-0.20567-0.4157-0.28125-0.625-0.00796-0.02181-0.023589-0.04055-0.03125-0.0625-0.031825-0.09195-0.035804-0.18683-0.0625-0.28125-0.030332-0.10662-0.070389-0.20303-0.09375-0.3125-0.072879-0.34151-0.125-0.6982-0.125-1.0625v-72c0-2.7818 2.2182-5 5-5h72c2.7818 0 5 2.2182 5 5v72c0 0.3643-0.05212 0.72099-0.125 1.0625-0.04415 0.20689-0.08838 0.39766-0.15625 0.59375-0.0077 0.02195-0.0233 0.04069-0.03125 0.0625-0.06274 0.17374-0.13838 0.36745-0.21875 0.53125-0.04158 0.0828-0.07904 0.16995-0.125 0.25-0.0546 0.09721-0.12677 0.18835-0.1875 0.28125-0.09411 0.14096-0.20492 0.276-0.3125 0.40625-0.14317 0.17445-0.30314 0.347-0.46875 0.5-0.01117 0.0102-0.01998 0.02115-0.03125 0.03125-0.13839 0.12556-0.28509 0.23444-0.4375 0.34375-0.10257 0.07315-0.20432 0.15336-0.3125 0.21875-0.0074 0.0045-0.02384-0.0044-0.03125 0-0.23204 0.13873-0.46255 0.27478-0.71875 0.375 0.30153-0.0968 0.59646-0.20414 0.875-0.34375 0.55709-0.27922 1.0601-0.66569 1.5-1.0938 0.21997-0.21403 0.40937-0.44186 0.59375-0.6875s0.35541-0.50774 0.5-0.78125c0.14012-0.26505 0.27614-0.52473 0.375-0.8125 0.01041-0.03078 0.02133-0.06274 0.03125-0.09375 0.09046-0.27808 0.1388-0.5794 0.1875-0.875 0.0524-0.31805 0.09375-0.63403 0.09375-0.96875v-72c0-3.324-2.676-6-6-6z" fill="url(#bf)" opacity=".4"/>
<path d="m12 90c-3.324 0-6-2.676-6-6v-72c0-0.33472 0.04135-0.6507 0.09375-0.96875 0.0487-0.2956 0.09704-0.59692 0.1875-0.875 0.00988-0.03038 0.020892-0.0636 0.03125-0.09375 0.098865-0.28777 0.23488-0.54745 0.375-0.8125 0.14459-0.27351 0.31562-0.53562 0.5-0.78125s0.37378-0.47347 0.59375-0.6875c0.43995-0.42806 0.94291-0.81453 1.5-1.0938 0.27854-0.13961 0.57347-0.24695 0.875-0.34375-0.2562 0.10022-0.48671 0.23627-0.71875 0.375-0.00741 0.0044-0.023866-0.0045-0.03125 0-0.031933 0.0193-0.062293 0.04251-0.09375 0.0625-0.1204 0.0767-0.23102 0.16351-0.34375 0.25-0.10617 0.0808-0.21328 0.16111-0.3125 0.25-0.17793 0.16143-0.34746 0.34539-0.5 0.53125-0.10758 0.13026-0.21839 0.26528-0.3125 0.40625-0.025089 0.03838-0.038446 0.08587-0.0625 0.125-0.064763 0.10303-0.13023 0.20452-0.1875 0.3125-0.10101 0.19471-0.20567 0.4157-0.28125 0.625-0.00796 0.02181-0.023589 0.04055-0.03125 0.0625-0.031825 0.09195-0.035804 0.18683-0.0625 0.28125-0.030332 0.10662-0.070389 0.20303-0.09375 0.3125-0.072879 0.34151-0.125 0.6982-0.125 1.0625v72c0 2.7818 2.2182 5 5 5h72c2.7818 0 5-2.2182 5-5v-72c0-0.3643-0.05212-0.72099-0.125-1.0625-0.04415-0.20689-0.08838-0.39766-0.15625-0.59375-0.0077-0.02195-0.0233-0.04069-0.03125-0.0625-0.06274-0.17374-0.13838-0.36745-0.21875-0.53125-0.04158-0.0828-0.07904-0.16995-0.125-0.25-0.0546-0.09721-0.12677-0.18835-0.1875-0.28125-0.09411-0.14096-0.20492-0.276-0.3125-0.40625-0.14317-0.17445-0.30314-0.347-0.46875-0.5-0.01117-0.0102-0.01998-0.02115-0.03125-0.03125-0.13839-0.12556-0.28509-0.23444-0.4375-0.34375-0.10257-0.07315-0.20432-0.15336-0.3125-0.21875-0.0074-0.0045-0.02384 0.0044-0.03125 0-0.23204-0.13873-0.46255-0.27478-0.71875-0.375 0.30153 0.0968 0.59646 0.20414 0.875 0.34375 0.55709 0.27922 1.0601 0.66569 1.5 1.0938 0.21997 0.21403 0.40937 0.44186 0.59375 0.6875s0.35541 0.50774 0.5 0.78125c0.14012 0.26505 0.27614 0.52473 0.375 0.8125 0.01041 0.03078 0.02133 0.06274 0.03125 0.09375 0.09046 0.27808 0.1388 0.5794 0.1875 0.875 0.0524 0.31805 0.09375 0.63403 0.09375 0.96875v72c0 3.324-2.676 6-6 6z" fill="url(#bc)" opacity=".2"/>
<path d="m36.274 6.0962c1.6501 2.2114 0.11258 5.9042 2.6015 5.8675 1.2119 1.7099-2.4155 0.51007 0.20359 1.828 1.5061 1.1837-1.5934 1.8601 0.27179 2.9224-2.1497 1.107 0.34845 5.7901 1.9451 6.9621 2.628 2.2079 1.1622-4.6745 4.0945-5.0325 1.5934-1.8153 4.3918-2.9807 6.3793-4.8069-1.9423-0.15736-3.0765-1.3639-1.237-2.1112 3.3855 3.4621 0.8489-1.6396-1.0251-2.4474 1.8134-0.57567 3.577-0.15411 3.3254-1.6474 1.9163-1.3992-1.8423-1.8509-3.1839-1.5346h-13.375zm-27.802 1.4443c-2.4498 0.69652-2.6206 6.5392-0.15835 3.2948 0.60434-1.3322 3.3971-2.9376 0.15835-3.2948zm11.446 0.20311c-1.4123 2.21 0.20492 3.9819 1.3799 1.2863 0.83171-1.1256-0.61793-1.2451-1.3799-1.2863zm3.529 0.49648c-2.7288 1.2622-0.6726 4.2055-0.60506 4.8601 2.8746 0.99245 4.4732-0.64888 5.5607 2.1563 2.7352 1.5732-0.05382 4.3067-1.0805 5.0186 1.8493-1.6073 5.4042 4.37 4.4723 1.212-1.1118-0.81013 2.9852 1.3014 0.85962-1.3315-1.9561-3.1451 0.15527-1.408 0.97995-0.67399 2.8049-2.5101-3.1736-2.8135-1.6812-5.3966-1.3078-1.057-3.0229-4.2593-5.3387-3.6333-1.5502 2.0008-0.21415-4.3595-2.4886-1.1767-0.11789 1.7791-0.04285 4.0368-0.70571 0.95454-0.44407-0.53958 0.764-1.794 0.0273-1.9894zm-5.5649 0.022569c-1.8316 0.60939-1.7332 3.0791 0.51896 3.3439 0.77143-0.87753 0.30649-3.1777-0.51896-3.3439zm-7.1484 0.78986c-2.3791 0.56253-1.408 2.4769-0.67957 3.0161-2.9449 0.73616 4.4957 0.94087 0.79268 1.4071-3.0808 1.2279 2.9667 2.6745 3.9588 1.2186 3.8044 0.92851 0.13691-3.0393-0.19704-5.1901-1.6128-1.7273-0.06366 3.982-1.5219 0.18397-0.50879 1.1278-2.1265 0.1662-2.353-0.63573zm75.601 0.24824c-3.1924 1.2469 1.9842 5.9522 0.69764 1.6715-0.12816-0.51689 0.2882-1.8826-0.69764-1.6715zm-66.666 1.8957c-2.2941 2.1515 2.916 3.9308-0.6589 5.5336-0.53602-1.9981-1.4583 0.99971-3.5035-0.61395-3.5159 1.461-5.3139-0.761-8.2575-2.2841-1.768-0.21964-1.1038 1.6765-1.2209 3.4519v14.72c1.7335 1.8201 0.67633 0.80305 0 0.30103 0.95147 3.2339-0.41957 7.9611 3.3309 9.8422 0.63756 1.1802 3.3129 6.2082 3.4362 4.7038-1.3412-1.4017-2.7174-5.6039-0.4479-1.8586 2.0328 3.5603 4.7748 5.8694 8.7805 6.7166 2.1901 0.74344 3.9912 3.2991 5.9171 2.7368 1.0891 2.8651-3.2274 5.6164 0.14491 8.2887 1.7605 2.7053 4.7162 4.4797 3.116 8.2777-1.1191 3.7094-0.63993 7.7512-1.6078 11.207-0.30039 2.1037 2.938 7.4432 2.6575 3.1675 0.94557-2.9713 0.92064-6.2407 3.1476-8.3448 3.0471 0.02407 0.58237-3.2699 3.607-2.8396 1.8456-2.4143 2.3802-5.2944 5.4949-6.2531 0.37204-2.9306 5.1788-7.4188 0.21314-8.5598-1.3496-0.66386-4.8245-0.90257-4.5589-1.2301 0.53803-2.9079-4.4935-3.7357-6.6342-4.9255-2.8108-1.9911-7.0342 3.3077-8.0245-1.258-0.59088-1.4365-2.7513-1.4598-1.7584-3.6764-1.7894 1.7761-5.2893 1.2363-4.373-2.1937 1.3916-2.8887 6.7356-3.0253 7.6463 0.4492-1.2644-3.832 2.4439-6.8151 4.5025-9.5413 0.41916-1.3031 2.9097-2.4226 2.0527-0.69076 1.4602-0.05256 3.6733-2.6822 1.0794-1.4685-0.03668-2.3981-2.273-1.7162-2.998-1.3756 1.3438-2.1285 8.245-0.96481 5.3551-4.4439-2.2393-0.90551-2.053-6.1896-4.318-3.2458 0.19059-1.8138-4.61-5.3643-4.5053-2.3227 0.58599 2.7216 0.10713 5.8568-1.1399 7.6408-0.26024-3.9881-7.0757-3.1066-6.1994-7.3563 1.2694-2.0254 2.7528-4.8263 2.8942-4.5744 2.275-0.86686 4.1046-3.3884 1.4678-5.046-0.14092 1.4447-1.983 4.4255-1.7237 0.82036-1.7058 2.0183-1.3162-3.2117-2.9138-3.7541zm54.45 1.3992c-3.9959 0.9755-5.5801 4.7844-7.5568 7.9391-2.9139 1.3111-2.8029 6.9417 0.45241 5.1433 0.87128 1.5186-0.60951 3.9123 1.9283 1.9266 2.047-2.7034 0.35794-7.0758 3.8414-8.7805 0.25373 1.3255-3.2133 6.2748 0.837 5.4613 3.6616 0.13788-2.6619 0.3641-0.881 2.6983-1.8503-1.0956-0.88883 2.9922-3.304 2.0409-2.0923 1.1358-3.4643-0.52736-2.985-2.3493-1.646 0.95827 0.5177 3.6617-2.3396 3.8241-0.64005 2.2682-5.9034 1.9263-2.9102 4.236 1.3289 3.4371-4.9515 0.21547-3.1685 4.3401 1.5254 4.0787 4.7224-1.3515 6.0194-2.4006 2.5025-1.9372 6.2107 3.3032 3.9588 3.4979 2.5251-0.3381 2.0062-2.7347-0.01696-3.6625-1.0927-2.8282 3.459 1.387 3.2066 2.805 1.6059 3.0011 0.94462-3.0727 2.5789-0.38364-0.1908 2.8366 6.5742 0.66696 3.3444 4.2821-2.7769 0.55818-5.5101-0.71443-7.9008 0.10068-2.2251-0.01964-2.1135-2.3922-2.9236-2.9864-2.8304 0.22949-6.3279 0.20354-8.2228 2.4854-2.049 2.8056-5.0038 6.7277-2.7705 10.31 2.2349 5.3087 7.7772 0.27537 10.963 3.4106 0.94693 1.3072-0.8206 2.8612 1.2967 4.2772 0.79671 3.0163-0.90449 5.8802 1.0523 8.7636 1.0118 2.7117 1.6398 6.7704 5.4058 4.2925 3.9858-2.3937 2.9242-6.8064 6.2129-9.2505-2.6023-5.026 3.1836-7.2298 4.6272-11.31-3.1539 0.4608-5.9638-2.6773-6.7258-5.8359-1.3249-1.5342-0.98367-3.7964 0.49633-0.91428 2.0343 1.9672 2.0782 7.8043 5.8413 4.8015 1.7203-0.71811 6.4186-3.4574 2.6751-4.704-2.413 1.7442-5.0752-5.2118-1.5318-1.1771 2.576 1.0907 4.38 1.7405 4.38-1.8757v-29.426c-0.8024 0.81832-2.8638 2.3297-3.9043 1.3254-1.7904 0.24881-4.1539 3.7253-3.5912 0.36466-1.5562-0.10285-0.27858 3.0133-2.4166 3.1005-0.21528 1.602-2.1599 0.29667-1.4294 1.818-1.5007-1.0623-2.7707-4.4164 0.18614-2.3112 4.391-1.3147-2.8956-4.2801-3.458-4.9969 0.94546-0.22607-1.0286-1.2093-1.2668-0.88013zm-36.24 0.88013c-1.4615 1.2153 2.7785 1.4441 0 0zm-19.522 0.65445c-1.6347 1.7064 2.6033 1.5687 0 0zm9.4784 1.6926c-1.2379 2.0237 1.829 0.74715 0 0zm27.101 2.3921c-1.4492 1.6651-3.362-0.43821-3.3932 0.99296 0.26264 0.43244 1.3147 3.5189 3.6194 1.2412 1.237-0.52046 0.74996-1.8325-0.22622-2.2342zm-30.856 0.99296c-2.7488 2.3957 4.6683 2.6165 0.58232 0.27477zm36.262 6.6348c-1.9791 1.288 0.94944 4.0232-0.04308 5.308-1.2401 2.1563 4.6083-0.15189 1.4846-1.8723-0.22257-1.4781-1.83-3.2815-1.4415-3.4357zm-1.3347 2.5952c-2.7574 0.77799-0.62596 4.7947 0.35066 1.0116 0.05497-0.21933 0.12936-1.0189-0.35066-1.0116zm-22.079 2.9112c-2.5652 1.7456-0.39843 3.4881 1.4816 2.7026-0.38596-1.0532-1.4642-1.7168-1.4816-2.7026zm48.455 2.9338c1.2799 0.64465-2.3455 1.7459-0.04983 2.8804 1.336 1.5679 0.83231 4.9336-1.3392 2.5515 0.40344-2.6596-2.9436-4.6458 1.389-5.432zm-6.5829 0.02257c-0.17367 1.7087 3.694 4.3647-0.47505 3.4979-2.2047 0.25811-5.507-0.06723-2.7294-2.8089 0.87765-0.52582 3.1821 1.8141 1.9829-0.37306 0.42514-0.02707 0.82108-0.18722 1.2216-0.31594zm-12.736 3.701c-1.6081 1.0339 1.112 1.8267 0 0zm-40.379 9.6363c-0.2711 0.90264 5.086 1.8174 1.3893 0.37126l-0.55107-0.19358zm4.1624 1.2863c-1.6249 1.6463 3.3478 0.49184 0 0zm54.337 15.098c-3.5307 0.09092-3.0613 9.1796-0.60013 3.8017 0.23341-1.167 1.1689-2.7073 0.60013-3.8017z" fill="url(#az)" opacity=".6"/>
<path d="m31.918 37.112a4.2414 4.2357 0 1 1-8.4828 0 4.2414 4.2357 0 1 1 8.4828 0z" fill="url(#ar)" fill-rule="evenodd" stroke-width="1.3563"/>
<path d="m43.759 57.938a3.3578 3.3533 0 1 1-6.7155 0 3.3578 3.3533 0 1 1 6.7155 0z" fill="url(#aq)" fill-rule="evenodd" stroke-width="1.0738"/>
<path d="m69.384 33.759a4.9483 4.9417 0 1 1-9.8966 0 4.9483 4.9417 0 1 1 9.8966 0z" fill="url(#ap)" fill-rule="evenodd" stroke-width="1.5824"/>
<path d="m63.564 51.584a3.1935 3.1893 0 1 1-6.3871 0 3.1935 3.1893 0 1 1 6.3871 0z" fill="url(#ao)" fill-rule="evenodd" opacity=".6" stroke-width="1.0213"/>
<path d="m17.257 31.464a2.4815 2.4782 0 1 1-4.9631 0 2.4815 2.4782 0 1 1 4.9631 0z" fill="url(#an)" fill-rule="evenodd" opacity=".6" stroke-width=".79356"/>
<path d="m82.285 41.171a1.7672 1.7649 0 1 1-3.5345 0 1.7672 1.7649 0 1 1 3.5345 0z" fill="url(#am)" fill-rule="evenodd" opacity=".6" stroke-width=".56514"/>
<path d="m7.1767 47.702c28.099-19.414 65.211-20.473 81.823 1.5884" fill="none" stroke="url(#av)" stroke-width="2"/>
<path d="m27.677 88.824c-1.0603-15.531 28.453-60.183 61.147-67.948" fill="none" stroke="url(#aw)" stroke-width="2"/>
<path d="m7 29.523c51.25 8.8245 31.634 59.477 31.634 59.477" fill="none" stroke="url(#ax)" stroke-width="2"/>
<path d="m7.1767 67.821c51.25-11.472 82-30.18 82-30.18" fill="none" opacity=".6" stroke="url(#ay)" stroke-width="1.5"/>
<rect x="15" y="15" width="66" height="66" rx="12" clip-path="url(#bb)" fill="url(#bd)" filter="url(#be)" opacity=".1" stroke="#fff" stroke-linecap="round" stroke-width=".5"/>
<g transform="translate(-.81356 .40678)">
<path d="m57.812 52.125c-1.7549 3.6781-4.4549 6.6188-7.6482 8.6682 1.854-0.14369 3.9388 0.14128 5.8391 1.4578-0.33275 0.7906-0.27631 1.7223 0.40844 2.2962l25.974 21.757c0.8399 0.70388 2.1368 0.58285 2.8454-0.25478l3.5549-4.2014c0.70859-0.83775 0.58524-2.1415-0.25478-2.8454l-25.933-21.772c-0.70894-0.59412-1.7029-0.47882-2.4316 0.03446-1.5156-1.5534-2.1429-3.3993-2.3548-5.1401z" fill="url(#al)" opacity=".6"/>
<g transform="matrix(.50676 -.13587 .13587 .50676 -9.4191 45.629)">
<path d="m101.04 56.585s14.868-7.1322 24.665 2.6645l5.844-5.6718c-9.8966-9.8961-2.7505-24.75-2.7505-24.75-2.1751 6.4212-2.9688 10.531-10.055 17.617-7.1292 7.1288-17.704 10.14-17.704 10.14z" fill="url(#ak)" fill-rule="evenodd" stroke="#404141" stroke-width="1.906"/>
<path transform="matrix(.99114 0 0 .99108 55.641 -16.41)" d="m74.25 37.75c0 20.02-16.23 36.25-36.25 36.25s-36.25-16.23-36.25-36.25 16.23-36.25 36.25-36.25 36.25 16.23 36.25 36.25z" fill="url(#aj)" stroke="url(#ai)" stroke-width="3.8462"/>
<path transform="matrix(.99802 0 0 .99797 55.503 -16.793)" d="m56.375 13.757c5.1373 5.4535 8.3125 12.862 8.3125 21.031-2e-6 16.735-13.28 30.344-29.625 30.344-6.3178 0-12.159-2.0437-16.969-5.5 5.3809 5.6651 12.897 9.1875 21.219 9.1875 16.345 0 29.625-13.577 29.625-30.312 0-10.231-4.974-19.259-12.562-24.75z" fill="#b0cedd" filter="url(#as)" opacity=".6"/>
<g transform="rotate(-15 94.2 21.964)">
<path transform="matrix(.99802 0 0 .99797 54.75 -17.441)" d="m38.25 3.4688c-16.615 0-30.388 11.787-33.688 27.406a0.44507 0.44507 0 0 0 0.21875 0.5c8.1907 4.3501 19.485 7.1562 32.094 7.1562 13.928 0 26.283-3.443 34.562-8.5938a0.44507 0.44507 0 0 0 0.1875-0.5c-3.8192-14.901-17.269-25.969-33.375-25.969z" fill="url(#ah)" stroke="url(#ag)" stroke-width="1.9098"/>
<path transform="matrix(1.433 0 0 1.4329 36.223 -31.24)" d="m38.714 22.818c0 2.9289-3.2939 5.3033-7.357 5.3033s-7.357-2.3744-7.357-5.3033c0-2.9289 3.2939-5.3033 7.357-5.3033s7.357 2.3744 7.357 5.3033z" fill="url(#af)" opacity=".6"/>
</g>
<path d="m122.72 43.55c-9.3346 9.4619 0.48615 13.368 0.48615 13.368-4.2538-3.2814-15.314-3.0383-15.314-3.0383s3.6461-0.97226 14.828-10.33z" fill="url(#bj)" fill-rule="evenodd" opacity=".6"/>
<rect transform="matrix(.70713 -.70709 .70713 .70709 0 0)" x="43.826" y="130.9" width="14.584" height="69.032" rx="1.9446" fill="url(#bi)" stroke="#000" stroke-width="1.906"/>
<path d="m127.25 56.327-5.3812-5.2594s-1.3996-3.8332 2.4592-7.631c0.3507 6.974 5.092 10.763 5.092 10.763z" fill="url(#bh)" fill-rule="evenodd"/>
<path transform="matrix(.68752 -.68749 .68752 .68749 23.861 39.569)" d="m62.358 89.065 8.1759 0.04419s-2.9027 0.51644-3.403 4.552c-0.35355-4.0659-4.773-4.5962-4.773-4.5962z" fill="#fff" fill-rule="evenodd" filter="url(#ae)" opacity=".4"/>
<path transform="matrix(.68752 -.68749 -.68752 -.68749 194.53 210.23)" d="m62.358 89.065 8.1759 0.04419s-2.9027 0.51644-3.403 4.552c-0.35355-4.0659-4.773-4.5962-4.773-4.5962z" fill="#fff" fill-rule="evenodd" filter="url(#ae)" opacity=".4"/>
</g>
<path d="m53.885 55.721c-2.5296 3.1952-5.8165 5.4611-9.3859 6.7483 1.8394 0.2726 3.8086 1.0145 5.3681 2.721-0.50039 0.69669-0.65276 1.6176-0.11294 2.3295l20.479 26.993c0.66214 0.87318 1.9535 1.0439 2.8307 0.38499l4.4009-3.3047c0.87729-0.659 1.0472-1.9575 0.38499-2.8307l-20.436-26.999c-0.55891-0.73703-1.5536-0.84586-2.3783-0.50768-1.1318-1.8518-1.3325-3.7911-1.1515-5.5353z" fill="url(#bg)" opacity=".2"/>
</g>
</svg>
