<?xml version="1.0" encoding="UTF-8"?>
<svg clip-rule="evenodd" fill-rule="evenodd" image-rendering="optimizeQuality" shape-rendering="geometricPrecision" text-rendering="geometricPrecision" version="1.1" viewBox="0 0 2048 2048" xml:space="preserve" xmlns="http://www.w3.org/2000/svg"><defs><style type="text/css">
   <![CDATA[
    .fil9 {fill:none}
    .fil2 {fill:#FEFEFE}
    .fil7 {fill:#2C4F8E}
    .fil6 {fill:#43A144}
    .fil5 {fill:#64BB46}
    .fil1 {fill:#B5B5B5}
    .fil0 {fill:#DA4A26}
    .fil4 {fill:#FFCA28}
    .fil8 {fill:#FFFFFE}
    .fil3 {fill:#212121;fill-rule:nonzero}
   ]]>
  </style></defs><g transform="matrix(1.2104 0 0 1.2104 -215.41 -215.41)"><circle class="fil0" cx="1024" cy="1024" r="832"/><path class="fil1" d="m1087.2 991.64m-68.013-376.13c-8.087-10.14-18.028-19.965-29.889-29.408-13.292-10.582-29.001-20.759-47.224-30.443-35.069-18.624-74.483-31.61-115.26-38.046-39.777-6.2787-80.834-6.2563-120.39 0.91654l1.3748 31.563c1.8035 0.16417 7.7043 3.9 14.359 8.3209-20.678 5.9398-39.768 14.446-39.481 39.682l0.20079 17.483 17.3-1.7327c29.382-2.941 60.168-2.0504 90.322 2.6173 9.2102 1.4256 18.359 3.202 27.386 5.3244l-4.324 1.1528c-20.448 5.5843-38.929 12.521-54.249 20.61-46.279 24.319-75.513 60.849-90.141 108.37-14.146 45.956-14.275 101.82-2.7284 166.51l0.0626 0.0626c15.145 84.574 64.158 316.39 104.12 505.39 19.786 93.589 37.387 176.83 47.141 224.41 3.2658 15.844 5.0362 31.026 5.5205 45.52 0.30354 9.0792 0.0921 17.96-0.58111 26.627-0.45118 5.8028-1.1091 11.511-1.9571 17.119l31.625 11.626 338.65-1.6441 28.625-21.001c-2.1083-4.2685-4.2331-8.5488-6.3709-12.836-23.002-46.123-47.496-93.008-68.668-133.53-15.392-29.463-29.009-55.526-39.045-75.576-26.824-53.617-53.635-119.47-68.281-182.37-8.7791-37.704-13.126-74.098-10.305-105.63-15.311-6.2787-26.689-11.802-31.964-15.591l-9e-3 0.015c-14.219-10.199-31.111-28.118-41.822-49.717-8.6162-17.376-13.397-37.246-10.144-57.841 3.1713-19.84 27.334-46.714 57.843-67.458v-0.065c26.554-18.053 58.752-32.505 86.319-34.313 7.8354-0.50906 16.312-1.0051 23.992-1.4516 33.449-1.95 50.242-2.9303 84.474-11.421 10.88-2.6906 26.189-6.5563 43.528-11.084 2.3646-40.701-5.9469-87.596-21.04-133.23-22.003-66.534-58.682-131.25-97.626-170.21-12.548-12.553-28.169-22.789-45.905-30.938-16.878-7.7539-35.641-13.616-55.435-17.783z"/><path class="fil2" d="m1105.2 991.64m-68.013-376.13c-8.087-10.14-18.028-19.965-29.889-29.408-13.292-10.582-29.001-20.759-47.224-30.443-35.069-18.624-74.483-31.61-115.26-38.046-39.777-6.2787-80.834-6.2563-120.39 0.91654l1.3748 31.563c1.8035 0.16417 7.7043 3.9 14.359 8.3209-20.678 5.9398-39.768 14.446-39.481 39.682l0.20079 17.483 17.3-1.7327c29.382-2.941 60.168-2.0504 90.322 2.6173 9.2102 1.4256 18.359 3.202 27.386 5.3244l-4.324 1.1528c-20.448 5.5843-38.929 12.521-54.249 20.61-46.279 24.319-75.513 60.849-90.141 108.37-14.146 45.956-14.275 101.82-2.7284 166.51l0.0626 0.0626c15.145 84.574 64.158 316.39 104.12 505.39 19.786 93.589 37.387 176.83 47.141 224.41 3.2658 15.844 5.0362 31.026 5.5205 45.52 0.30354 9.0792 0.0921 17.96-0.58111 26.627-0.45118 5.8028-1.1091 11.511-1.9571 17.119l31.625 11.626 338.65-1.6441 28.625-21.001c-2.1083-4.2685-4.2331-8.5488-6.3709-12.836-23.002-46.123-47.496-93.008-68.668-133.53-15.392-29.463-29.009-55.526-39.045-75.576-26.824-53.617-53.635-119.47-68.281-182.37-8.7791-37.704-13.126-74.098-10.305-105.63-15.311-6.2787-26.689-11.802-31.964-15.591l-0.01 0.015c-14.219-10.199-31.111-28.118-41.822-49.717-8.6162-17.376-13.397-37.246-10.144-57.841 3.1713-19.84 27.334-46.714 57.843-67.458v-0.065c26.554-18.053 58.752-32.505 86.319-34.313 7.8354-0.50906 16.312-1.0051 23.992-1.4516 33.449-1.95 50.242-2.9303 84.474-11.421 10.88-2.6906 26.189-6.5563 43.528-11.084 2.3646-40.701-5.9469-87.596-21.04-133.23-22.003-66.534-58.682-131.25-97.626-170.21-12.548-12.553-28.169-22.789-45.905-30.938-16.878-7.7539-35.641-13.616-55.435-17.783z"/><path class="fil2" d="m1776 1024c0-200.09-78.781-390.25-220.26-531.73-141.49-141.48-331.64-220.27-531.74-220.27s-390.25 78.784-531.73 220.27c-141.48 141.48-220.27 331.64-220.27 531.73 0 200.09 78.786 390.24 220.27 531.73 141.48 141.48 331.64 220.26 531.73 220.26s390.25-78.783 531.73-220.26c141.48-141.48 220.27-331.63 220.27-531.73zm-242.89 509.1c-135.46 135.46-317.53 210.89-509.11 210.89s-373.64-75.428-509.11-210.89c-135.46-135.46-210.89-317.52-210.89-509.1 0-191.58 75.428-373.64 210.89-509.11 135.46-135.46 317.53-210.89 509.11-210.89 191.58 0 373.65 75.426 509.11 210.89 135.46 135.46 210.89 317.53 210.89 509.11 0 191.58-75.43 373.64-210.89 509.1z"/><path class="fil3" d="m1438.6 1177.4c-0-0.031-0-0.017-0.011 0z"/><path class="fil3" d="m1499.8 976.88c0.031-0.15591-0.024-0.0484-0.111 0.10748z"/><path class="fil4" d="m1102.5 986.34m390.07-64.346c-28.917-11.341-74.891-12.679-93.319-3.7772-11.502 5.5665-35.744 13.482-63.566 21.706-25.741 7.6063-53.894 15.296-78.148 21.703-17.688 4.6701-33.302 8.6587-44.401 11.434-34.918 8.7602-52.048 9.7713-86.167 11.783-7.8331 0.46063-16.48 0.97205-24.472 1.4976-28.12 1.8661-60.964 16.775-88.05 35.4v0.067c-31.121 21.4-55.768 49.124-59.003 69.593-3.3177 21.248 1.5591 41.746 10.349 59.673 10.924 22.283 28.155 40.77 42.66 51.292l0.01-0.015c5.38 3.9083 16.987 9.6059 32.604 16.084 26.033 10.798 63.203 23.765 101.25 34.233 43.606 11.998 89.118 21.053 121.69 20.411 34.263-0.6909 77.733-10.516 114.54-24.672 22.147-8.5169 42.209-18.706 56.88-29.575 17.848-13.219 28.7-28.417 28.398-44.738-0.068-3.8846-0.7145-7.6299-1.9689-11.209l-0.021 0.01c-11.596-33.057-50.366-23.588-105.53-10.111-46.858 11.446-107.94 26.366-169.01 20.434-32.556-3.1654-54.444-10.611-67.876-20.132-5.9622-4.2248-9.9319-8.6681-12.181-13.109-1.9583-3.8669-2.674-7.8425-2.3303-11.715 0.3897-4.4197 2.1779-9.0484 5.1012-13.572l-0.044-0.031c7.8614-12.117 23.084-9.7205 43.928-6.4335 25.91 4.0843 58.201 9.176 99.018-3.6082 39.63-12.376 87.761-29.898 131.19-47.388 42.405-17.08 80.079-34.077 100.74-46.181 25.461-14.871 37.571-29.426 40.587-42.865 2.7259-12.154-0.8894-22.482-8.902-31.069-5.8713-6.2941-14.255-11.313-23.956-15.118z"/><path class="fil5" d="m856.5 1667.8-17.597-239.33c11.05-22.697 158.37 47.402 192.38 58.611l10.74 124.54c-31.514 16.841-166.04 112.19-185.52 56.182z"/><path class="fil6" d="m1005.9 1507.4s70.749-53.162 130.82-23.127c0 0 17.017 95.131 0 120.14 0 0-46.708 26.542-128.47 13.271l-2.3457-110.28z"/><path class="fil5" d="m1013.4 1498.2s70.749-53.162 130.82-23.127c0 0 17.018 95.132 0 120.14 0 0-46.707 26.542-128.47 13.271l-2.3457-110.28z"/><path class="fil5" d="m1129.9 1494.7c51.208-31.013 213.74-171.37 196.51-36.37l-3.8575 163.06c0.3118 6.4665-2.8157 9.0614-8.7614 8.4886l-197.97-48.368 14.078-86.816z"/><circle class="fil7" cx="839.42" cy="918.1" r="48.021"/><circle class="fil8" cx="861.18" cy="901.84" r="12.255"/><circle class="fil7" cx="1090" cy="871.85" r="41.145"/><circle class="fil8" cx="1108.7" cy="857.92" r="10.5"/><path class="fil7" d="m788.73 792.15c34.246-21.518 69.455-5.5902 69.455-5.5902s-23.613-31.152-72.109-11.298c-48.431 19.84-30.26 60.34-30.26 60.34s-1.2732-21.976 32.914-43.452z"/><path class="fil7" d="m1084.9 760.09c-51.617-8.5087-58.391 33.977-58.391 33.977s11.018-17.811 51.346-18.342c19.638-0.26102 44.943 14.198 44.943 14.198s-9.9319-25.179-37.898-29.832z"/></g><rect class="fil9" width="2048" height="2048"/></svg>
