<svg xmlns="http://www.w3.org/2000/svg" xml:space="preserve" fill-rule="evenodd" clip-rule="evenodd" image-rendering="optimizeQuality" shape-rendering="geometricPrecision" text-rendering="geometricPrecision" viewBox="0 0 2048 2048"><defs><style>.fil2{fill:#fefefe}.fil7{fill:#2c4f8e}.fil5{fill:#64bb46}.fil8{fill:#fffffe}.fil3{fill:#212121;fill-rule:nonzero}</style></defs><g transform="translate(-215.41 -215.41)scale(1.2104)"><circle cx="1024" cy="1024" r="832" style="fill:#da4a26"/><path d="M1019.187 615.51c-8.087-10.14-18.028-19.965-29.889-29.408-13.292-10.582-29.001-20.759-47.224-30.443-35.069-18.624-74.483-31.61-115.26-38.046-39.777-6.279-80.834-6.256-120.39.917l1.375 31.563c1.803.164 7.704 3.9 14.359 8.32-20.678 5.94-39.768 14.446-39.481 39.682l.2 17.483 17.3-1.732c29.383-2.941 60.169-2.05 90.323 2.617a361 361 0 0 1 27.386 5.324l-4.324 1.153c-20.448 5.585-38.93 12.521-54.25 20.61-46.278 24.32-75.512 60.85-90.14 108.37-14.146 45.956-14.275 101.82-2.729 166.51l.063.063c15.145 84.574 64.158 316.39 104.12 505.39 19.786 93.589 37.387 176.83 47.14 224.41 3.267 15.844 5.037 31.026 5.521 45.52.304 9.079.092 17.96-.58 26.627a238 238 0 0 1-1.958 17.119l31.625 11.626 338.65-1.644 28.625-21.001a3780 3780 0 0 0-6.37-12.836c-23.003-46.123-47.497-93.008-68.669-133.53-15.392-29.463-29.009-55.526-39.045-75.576-26.824-53.617-53.635-119.47-68.28-182.37-8.78-37.704-13.127-74.098-10.306-105.63-15.31-6.279-26.689-11.802-31.964-15.591l-.009.015c-14.219-10.2-31.11-28.118-41.822-49.717-8.616-17.376-13.397-37.246-10.144-57.841 3.171-19.84 27.334-46.714 57.843-67.458v-.065c26.554-18.053 58.752-32.505 86.32-34.313 7.835-.51 16.311-1.005 23.991-1.452 33.45-1.95 50.242-2.93 84.474-11.42a3562 3562 0 0 0 43.528-11.085c2.365-40.7-5.947-87.596-21.04-133.23-22.003-66.534-58.682-131.25-97.626-170.21-12.548-12.553-28.169-22.789-45.905-30.938-16.878-7.754-35.64-13.616-55.435-17.783z" style="fill:#b5b5b5"/><path d="M1037.187 615.51c-8.087-10.14-18.028-19.965-29.889-29.408-13.292-10.582-29.001-20.759-47.224-30.443-35.069-18.624-74.483-31.61-115.26-38.046-39.777-6.279-80.834-6.256-120.39.917l1.375 31.563c1.803.164 7.704 3.9 14.359 8.32-20.678 5.94-39.768 14.446-39.481 39.682l.2 17.483 17.3-1.732c29.383-2.941 60.169-2.05 90.323 2.617a361 361 0 0 1 27.386 5.324l-4.324 1.153c-20.448 5.585-38.93 12.521-54.25 20.61-46.278 24.32-75.512 60.85-90.14 108.37-14.146 45.956-14.275 101.82-2.729 166.51l.063.063c15.145 84.574 64.158 316.39 104.12 505.39 19.786 93.589 37.387 176.83 47.14 224.41 3.267 15.844 5.037 31.026 5.521 45.52.304 9.079.092 17.96-.58 26.627a238 238 0 0 1-1.958 17.119l31.625 11.626 338.65-1.644 28.625-21.001a3780 3780 0 0 0-6.37-12.836c-23.003-46.123-47.497-93.008-68.669-133.53-15.392-29.463-29.009-55.526-39.045-75.576-26.824-53.617-53.635-119.47-68.28-182.37-8.78-37.704-13.127-74.098-10.306-105.63-15.31-6.279-26.689-11.802-31.964-15.591l-.01.015c-14.219-10.2-31.11-28.118-41.822-49.717-8.616-17.376-13.397-37.246-10.144-57.841 3.171-19.84 27.334-46.714 57.843-67.458v-.065c26.554-18.053 58.752-32.505 86.32-34.313 7.835-.51 16.311-1.005 23.991-1.452 33.45-1.95 50.242-2.93 84.474-11.42a3562 3562 0 0 0 43.528-11.085c2.365-40.7-5.947-87.596-21.04-133.23-22.003-66.534-58.682-131.25-97.626-170.21-12.548-12.553-28.169-22.789-45.905-30.938-16.878-7.754-35.64-13.616-55.435-17.783z" class="fil2"/><path d="M1776 1024c0-200.09-78.781-390.25-220.26-531.73C1414.25 350.79 1224.1 272 1024 272s-390.25 78.784-531.73 220.27C350.79 633.75 272 823.91 272 1024s78.786 390.24 220.27 531.73c141.48 141.48 331.64 220.26 531.73 220.26s390.25-78.783 531.73-220.26C1697.21 1414.25 1776 1224.1 1776 1024m-242.89 509.1c-135.46 135.46-317.53 210.89-509.11 210.89s-373.64-75.428-509.11-210.89C379.43 1397.64 304 1215.58 304 1024s75.428-373.64 210.89-509.11C650.35 379.43 832.42 304 1024 304s373.65 75.426 509.11 210.89C1668.57 650.35 1744 832.42 1744 1024s-75.43 373.64-210.89 509.1" class="fil2"/><path d="M1438.6 1177.4c0-.031 0-.017-.011 0zM1499.8 976.88c.031-.156-.024-.048-.111.107z" class="fil3"/><path d="M1492.57 921.994c-28.917-11.341-74.891-12.679-93.319-3.777-11.502 5.566-35.744 13.482-63.566 21.706-25.741 7.606-53.894 15.296-78.148 21.703a3608 3608 0 0 1-44.401 11.434c-34.918 8.76-52.048 9.771-86.167 11.783-7.833.46-16.48.972-24.472 1.497-28.12 1.867-60.964 16.775-88.05 35.4v.067c-31.121 21.4-55.768 49.124-59.003 69.593-3.318 21.248 1.56 41.746 10.349 59.673 10.924 22.283 28.155 40.77 42.66 51.292l.01-.015c5.38 3.909 16.987 9.606 32.604 16.084 26.033 10.798 63.203 23.765 101.25 34.233 43.606 11.998 89.118 21.053 121.69 20.411 34.263-.69 77.733-10.516 114.54-24.672 22.147-8.517 42.209-18.706 56.88-29.575 17.848-13.219 28.7-28.417 28.398-44.738-.068-3.884-.714-7.63-1.969-11.209l-.02.01c-11.597-33.057-50.367-23.588-105.53-10.11-46.859 11.445-107.94 26.365-169.01 20.433-32.557-3.165-54.445-10.61-67.877-20.132-5.962-4.224-9.932-8.668-12.18-13.109-1.96-3.867-2.675-7.842-2.331-11.715.39-4.42 2.178-9.048 5.101-13.572l-.044-.03c7.861-12.118 23.084-9.721 43.928-6.434 25.91 4.084 58.201 9.176 99.018-3.608 39.63-12.376 87.761-29.898 131.19-47.388 42.405-17.08 80.079-34.077 100.74-46.181 25.461-14.871 37.571-29.426 40.587-42.865 2.726-12.154-.89-22.482-8.902-31.07-5.871-6.293-14.255-11.312-23.956-15.117z" style="fill:#ffca28"/><path d="m856.5 1667.8-17.597-239.33c11.05-22.697 158.37 47.402 192.38 58.611l10.74 124.54c-31.514 16.841-166.04 112.19-185.52 56.182z" class="fil5"/><path d="M1005.9 1507.4s70.749-53.162 130.82-23.127c0 0 17.017 95.131 0 120.14 0 0-46.708 26.542-128.47 13.271l-2.346-110.28z" style="fill:#43a144"/><path d="M1013.4 1498.2s70.749-53.162 130.82-23.127c0 0 17.018 95.132 0 120.14 0 0-46.707 26.542-128.47 13.271l-2.346-110.28z" class="fil5"/><path d="M1129.9 1494.7c51.208-31.013 213.74-171.37 196.51-36.37l-3.857 163.06c.311 6.467-2.816 9.061-8.762 8.489l-197.97-48.368 14.078-86.816z" class="fil5"/><circle cx="839.42" cy="918.1" r="48.021" class="fil7"/><circle cx="861.18" cy="901.84" r="12.255" class="fil8"/><circle cx="1090" cy="871.85" r="41.145" class="fil7"/><circle cx="1108.7" cy="857.92" r="10.5" class="fil8"/><path d="M788.73 792.15c34.246-21.518 69.455-5.59 69.455-5.59s-23.613-31.152-72.109-11.298c-48.431 19.84-30.26 60.34-30.26 60.34s-1.273-21.976 32.914-43.452zM1084.9 760.09c-51.617-8.509-58.391 33.977-58.391 33.977s11.018-17.811 51.346-18.342c19.638-.261 44.943 14.198 44.943 14.198s-9.932-25.179-37.898-29.832z" class="fil7"/></g><path d="M0 0h2048v2048H0z" style="fill:none"/></svg>