<svg xmlns="http://www.w3.org/2000/svg" width="800" height="800" viewBox="0 0 200 200"><path fill="#e53238" d="M60.912 28.133c-22.478 0-41.208 9.494-41.208 38.137 0 22.692 12.595 36.981 41.788 36.981 34.363 0 36.565-22.535 36.565-22.535h-16.65S77.836 92.85 60.475 92.85c-14.14 0-24.31-9.51-24.31-22.839h63.632v-8.364c0-13.186-8.408-33.514-38.886-33.514zm-.58 10.69c13.46 0 22.635 8.21 22.635 20.513H36.534c0-13.062 11.977-20.513 23.796-20.513z"/><path fill="#0064d2" d="M99.787.397v88.47c0 5.022-.36 12.074-.36 12.074h15.881s.57-5.065.57-9.693c0 0 7.846 12.22 29.18 12.22 22.467 0 37.726-15.528 37.726-37.776 0-20.697-14.016-37.343-37.69-37.343-22.167 0-29.055 11.918-29.055 11.918V.397zm41.208 38.896c15.256 0 24.957 11.273 24.957 26.4 0 16.222-11.205 26.833-24.849 26.833-16.283 0-25.066-12.657-25.066-26.69 0-13.073 7.881-26.543 24.957-26.543z"/><path fill="#f5af02" d="M61.223 100.433c-33.816 0-35.984 18.435-35.984 21.38H42.07s.883-10.762 17.992-10.762c11.118 0 19.734 5.067 19.734 14.807v3.467H60.062c-26.197 0-40.047 7.63-40.047 23.113 0 15.238 12.796 23.53 30.09 23.53 23.568 0 31.161-12.966 31.161-12.966 0 5.157.4 10.239.4 10.239h14.962s-.58-6.3-.58-10.33V128.08c0-22.84-18.505-27.646-34.824-27.646zm18.573 39.293v4.622c0 6.03-3.737 21.02-25.737 21.02-12.047 0-17.212-5.987-17.212-12.93 0-12.63 17.394-12.712 42.949-12.712"/><path fill="#86b817" d="M86.984 103.32h18.935l27.176 54.203 27.113-54.203h17.152l-49.386 96.5h-17.992l14.25-26.902z"/></svg>