<?xml version="1.0" encoding="UTF-8"?>
<svg width="800" height="800" version="1.1" viewBox="0 0 200 200" xmlns="http://www.w3.org/2000/svg">
<g transform="matrix(1.063 0 0 1.0583 -5.0314 -5.3672)">
<path d="m62.035 31.655c-21.146 0-38.766 8.9711-38.766 36.036 0 21.442 11.849 34.944 39.312 34.944 32.326 0 34.398-21.294 34.398-21.294h-15.664s-3.3584 11.466-19.69 11.466c-13.302 0-22.869-8.9858-22.869-21.581h59.861v-7.9035c0-12.46-7.9101-31.668-36.582-31.668zm-0.54601 10.101c12.662 0 21.294 7.757 21.294 19.383h-43.681c0-12.343 11.267-19.383 22.386-19.383z" fill="#e53238"/>
<path d="m98.606 5.4466v83.597c0 4.7452-0.33868 11.408-0.33868 11.408h14.94s0.53624-4.7854 0.53624-9.1587c0 0 7.3812 11.547 27.451 11.547 21.135 0 35.49-14.673 35.49-35.695 0-19.557-13.186-35.286-35.456-35.286-20.854 0-27.334 11.261-27.334 11.261v-37.674zm38.766 36.753c14.352 0 23.478 10.652 23.478 24.946 0 15.328-10.541 25.355-23.376 25.355-15.318 0-23.581-11.96-23.581-25.219 0-12.354 7.4144-25.082 23.478-25.082z" fill="#0064d2"/>
<path d="m62.328 99.972c-31.812 0-33.852 17.419-33.852 20.202h15.834s0.83034-10.169 16.926-10.169c10.459 0 18.564 4.7874 18.564 13.991v3.276h-18.564c-24.645 0-37.674 7.2097-37.674 21.84 0 14.399 12.038 22.233 28.307 22.233 22.171 0 29.314-12.251 29.314-12.251 0 4.8728 0.37568 9.6746 0.37568 9.6746h14.076s-0.54601-5.9519-0.54601-9.7599v-32.914c0-21.581-17.408-26.123-32.76-26.123zm17.472 37.128v4.368c0 5.6971-3.5155 19.861-24.212 19.861-11.333 0-16.192-5.6562-16.192-12.217 0-11.935 16.364-12.012 40.404-12.012z" fill="#f5af02"/>
<path d="m86.562 102.7h17.813l25.565 51.217 25.506-51.217h16.136l-46.459 91.183h-16.926l13.406-25.419z" fill="#86b817"/>
</g>
</svg>
