<?xml version="1.0" encoding="UTF-8" standalone="no"?>
<!--
  - Copyright (c) 2022 Manuel Schneider
  -->

<svg
   height="1024"
   viewBox="0 0 1024 1024"
   width="1024"
   version="1.1"
   id="svg828"
   sodipodi:docname="github.svg"
   inkscape:version="1.1.1 (c3084ef, 2021-09-22)"
   xmlns:inkscape="http://www.inkscape.org/namespaces/inkscape"
   xmlns:sodipodi="http://sodipodi.sourceforge.net/DTD/sodipodi-0.dtd"
   xmlns="http://www.w3.org/2000/svg"
   xmlns:svg="http://www.w3.org/2000/svg">
  <defs
     id="defs832" />
  <sodipodi:namedview
     id="namedview830"
     pagecolor="#505050"
     bordercolor="#ffffff"
     borderopacity="1"
     inkscape:pageshadow="0"
     inkscape:pageopacity="0"
     inkscape:pagecheckerboard="1"
     showgrid="false"
     inkscape:zoom="0.20594999"
     inkscape:cx="551.10465"
     inkscape:cy="721.04882"
     inkscape:window-width="1383"
     inkscape:window-height="847"
     inkscape:window-x="0"
     inkscape:window-y="25"
     inkscape:window-maximized="0"
     inkscape:current-layer="svg828" />
  <g
     id="g998">
    <path
       id="path824"
       style="fill:#ffffff;fill-opacity:1;stroke-width:0.875603"
       d="M 506.38298,13.998685 C 436.9906,14.519892 367.63497,29.404724 304.46824,58.236516 239.62175,87.703503 181.22624,131.30828 134.66835,185.22475 90.568007,236.18926 56.883689,296.19606 36.807678,360.55645 24.393757,400.09398 17.001032,441.19643 14.749174,482.57268 c -3.371706,62.32755 4.97398,125.29464 24.769804,184.50254 12.447511,37.20849 29.354014,72.9186 50.241698,106.13161 24.970934,39.75023 55.592954,75.95308 90.725904,107.09201 49.09593,43.59048 106.89504,77.4024 169.10277,98.45198 49.41081,16.81503 101.49697,25.70618 153.68292,26.34248 65.39402,0.8131 130.98734,-11.20353 191.64404,-35.72579 65.68037,-26.44627 125.57839,-67.16714 174.25173,-118.59706 40.91556,-43.11177 74.05529,-93.60576 97.11008,-148.3974 17.87446,-42.35112 29.77451,-87.21838 35.23528,-132.86192 5.3538,-44.30113 4.7349,-89.3177 -1.80192,-133.45874 -6.97853,-47.1016 -20.80744,-93.18686 -40.98955,-136.3159 C 931.75984,242.03343 893.57052,189.59622 846.85781,146.29422 801.15917,103.85686 747.42878,70.050981 689.24844,47.550995 645.65112,30.620282 599.63579,19.919496 553.03616,15.916081 537.52517,14.566331 521.95241,13.944238 506.38298,13.998685 Z" />
    <path
       d="m 957.88275,509.571 c 0,197.81616 -128.32836,365.93187 -305.41024,425.33279 -22.41544,4.48308 -30.82122,-9.52656 -30.82122,-21.29466 0,-15.13042 0.56038,-63.32362 0.56038,-123.28489 0,-42.02892 -14.00964,-68.92744 -30.26082,-82.93708 99.74866,-11.20771 204.54078,-49.31395 204.54078,-221.35236 0,-49.31394 -17.37195,-89.10133 -45.95162,-120.48294 4.48308,-11.20771 20.17388,-57.15934 -4.48309,-118.80177 0,0 -37.54585,-12.32848 -123.28486,45.95163 -35.86468,-10.08694 -73.97092,-15.13041 -112.07714,-15.13041 -38.10623,0 -76.21246,5.04347 -112.07715,15.13041 -85.73901,-57.71973 -123.28485,-45.95163 -123.28485,-45.95163 -24.65698,61.64243 -8.96618,107.59406 -4.48309,118.80177 -28.57967,31.38161 -45.95163,71.72938 -45.95163,120.48294 0,171.47802 104.23175,210.14465 203.98041,221.35236 -12.88888,11.20771 -24.65698,30.82121 -28.57968,59.96127 -25.77774,11.7681 -90.2221,30.82121 -130.56987,-36.98546 -8.40579,-13.44926 -33.62314,-46.51202 -68.92744,-45.95163 -37.54584,0.56039 -15.13042,21.29466 0.56038,29.70045 19.05311,10.64732 40.90816,50.43471 45.95163,63.32358 8.96618,25.21735 38.10623,73.41053 150.74376,52.67626 0,37.54585 0.56038,72.85017 0.56038,83.4975 0,11.7681 -8.40579,25.21736 -30.82121,21.29466 C 189.5939,875.50287 61.265567,707.94754 61.265567,509.571 c 0,-247.69049 200.618093,-448.308582 448.308573,-448.308582 247.69049,0 448.30861,200.618092 448.30861,448.308582 z"
       fill="#1b1f23"
       fill-rule="evenodd"
       id="path826"
       style="stroke-width:0.875603" />
  </g>
</svg>
