<?xml version="1.0" encoding="UTF-8"?>
<svg version="1.1" viewBox="0 0 1024 1024" xmlns="http://www.w3.org/2000/svg">
<g stroke-width=".8756">
<path d="m506.38 13.999c-69.392 0.52121-138.75 15.406-201.91 44.238-64.846 29.467-123.24 73.072-169.8 126.99-44.1 50.965-77.785 110.97-97.861 175.33-12.414 39.538-19.807 80.64-22.059 122.02-3.3717 62.328 4.974 125.29 24.77 184.5 12.448 37.208 29.354 72.919 50.242 106.13 24.971 39.75 55.593 75.953 90.726 107.09 49.096 43.59 106.9 77.402 169.1 98.452 49.411 16.815 101.5 25.706 153.68 26.342 65.394 0.8131 130.99-11.204 191.64-35.726 65.68-26.446 125.58-67.167 174.25-118.6 40.916-43.112 74.055-93.606 97.11-148.4 17.874-42.351 29.775-87.218 35.235-132.86 5.3538-44.301 4.7349-89.318-1.8019-133.46-6.9785-47.102-20.807-93.187-40.99-136.32-26.962-57.703-65.151-110.14-111.86-153.44-45.699-42.437-99.429-76.243-157.61-98.743-43.597-16.931-89.613-27.631-136.21-31.635-15.511-1.3498-31.084-1.9718-46.653-1.9174z" fill="#fff"/>
<path d="m957.88 509.57c0 197.82-128.33 365.93-305.41 425.33-22.415 4.4831-30.821-9.5266-30.821-21.295 0-15.13 0.56038-63.324 0.56038-123.28 0-42.029-14.01-68.927-30.261-82.937 99.749-11.208 204.54-49.314 204.54-221.35 0-49.314-17.372-89.101-45.952-120.48 4.4831-11.208 20.174-57.159-4.4831-118.8 0 0-37.546-12.328-123.28 45.952-35.865-10.087-73.971-15.13-112.08-15.13-38.106 0-76.212 5.0435-112.08 15.13-85.739-57.72-123.28-45.952-123.28-45.952-24.657 61.642-8.9662 107.59-4.4831 118.8-28.58 31.382-45.952 71.729-45.952 120.48 0 171.48 104.23 210.14 203.98 221.35-12.889 11.208-24.657 30.821-28.58 59.961-25.778 11.768-90.222 30.821-130.57-36.985-8.4058-13.449-33.623-46.512-68.927-45.952-37.546 0.56039-15.13 21.295 0.56038 29.7 19.053 10.647 40.908 50.435 45.952 63.324 8.9662 25.217 38.106 73.411 150.74 52.676 0 37.546 0.56038 72.85 0.56038 83.498 0 11.768-8.4058 25.217-30.821 21.295-178.2-59.401-306.53-226.96-306.53-425.33 0-247.69 200.62-448.31 448.31-448.31 247.69 0 448.31 200.62 448.31 448.31z" fill="#1b1f23" fill-rule="evenodd"/>
</g>
</svg>
