<svg xmlns="http://www.w3.org/2000/svg" width="1024" height="1024"><path fill="#4285f4" d="M861.23 899.84h-164.7v-128c53.76-36.27 90.03-89.6 102.4-152.75H522.88V426.67h482.13c5.12 31.14 8.11 63.14 8.11 96.85 0 155.73-55.47 287.15-151.89 376.32"/><path fill="#34a853" d="M65.92 741.55V609.71h169.81c40.54 121.6 153.6 211.62 287.15 211.62 69.12 0 127.57-18.77 173.65-49.49l164.7 128C776.75 977.92 661.12 1024 522.88 1024c-200.11 0-372.91-115.2-456.96-282.45"/><path fill="#fbbc05" d="M65.92 741.55C30.93 672.43 10.88 594.77 10.88 512s20.05-160.43 55.04-229.55h169.81v131.84c-10.24 30.72-16.21 63.58-16.21 97.71s5.55 66.99 16.21 97.71z"/><path fill="#ea4335" d="M235.73 414.29 65.92 282.45C149.97 115.2 322.77 0 522.88 0c138.24 0 253.87 50.77 342.19 133.55L719.15 279.47c-53.34-50.78-120.75-76.8-196.27-76.8-133.55 0-246.61 90.02-287.15 211.62"/></svg>