<svg width="76" height="76" viewBox="0 0 76 76" fill="none" xmlns="http://www.w3.org/2000/svg">
<path d="M60.8774 0H15.1226C6.77061 0 0 6.77061 0 15.1226V60.8774C0 69.2294 6.77061 76 15.1226 76H60.8774C69.2294 76 76 69.2294 76 60.8774V15.1226C76 6.77061 69.2294 0 60.8774 0Z" fill="#191919"/>
<path d="M44.1945 55.7814H31.3676C27.8421 55.7814 27.3055 52.0003 27.9627 50.4825C28.276 49.7623 28.9855 48.7198 29.6571 47.8681C32.21 49.2777 35.0791 50.0155 37.9952 50.0126C42.5892 50.0073 46.9935 48.1799 50.2417 44.9313C53.49 41.6828 55.3169 37.2783 55.3217 32.6843C55.3228 30.256 54.8122 27.8546 53.8232 25.6368C52.8341 23.4189 51.3889 21.4344 49.5816 19.8124L49.9795 19.4091C50.445 18.9356 51.0115 18.5734 51.6366 18.3496C52.2617 18.1257 52.9293 18.046 53.5896 18.1163L55.6746 18.3378V9.84473H52.0303C50.0551 9.84576 48.1254 10.4374 46.489 11.5437C44.8527 12.65 43.5846 14.2203 42.8477 16.0529C41.2686 15.5905 39.6316 15.3558 37.9863 15.3561C33.3922 15.3614 28.9877 17.1887 25.7391 20.4372C22.4906 23.6858 20.6633 28.0902 20.6581 32.6843C20.6535 36.378 21.835 39.9756 24.0286 42.9473L23.0023 43.7377C22.8492 43.8548 22.6746 44.0024 22.4946 44.1717C18.9836 47.445 17.3739 51.7339 18.2939 56.5034C18.7981 59.116 21.0163 61.8294 23.2742 63.268C24.8809 64.2782 26.7383 64.8183 28.6361 64.8273L43.0169 64.2439C43.8156 64.242 44.6018 64.4423 45.3023 64.8261C46.0027 65.2098 46.5947 65.7646 47.0231 66.4387L48.9028 69.8309L57.8172 66.851L56.2922 63.5309C55.2282 61.2173 53.5229 59.2575 51.3786 57.8839C49.2343 56.5103 46.741 55.7807 44.1945 55.7814ZM37.9952 24.3965C40.1907 24.4003 42.2952 25.2742 43.8476 26.8266C45.4 28.379 46.2738 30.4835 46.2776 32.6789C46.2738 34.8744 45.4 36.9788 43.8476 38.5313C42.2952 40.0837 40.1907 40.9575 37.9952 40.9613C35.7998 40.9575 33.6954 40.0837 32.1429 38.5313C30.5905 36.9788 29.7166 34.8744 29.7128 32.6789C29.7166 30.4835 30.5905 28.379 32.1429 26.8266C33.6954 25.2742 35.7998 24.4003 37.9952 24.3965Z" fill="white"/>
</svg>