<?xml version="1.0" encoding="UTF-8"?>
<svg version="1.1" viewBox="0 0 128 128" xmlns="http://www.w3.org/2000/svg">
<path d="m76.15 5.1c-4.0263-1.2811-8.4186-2.0131-12.902-2.0131-12.902 0-24.524 5.8564-32.302 15.099l19.948 16.746z" fill="#1a73e8" stroke-width=".91506"/>
<path d="m30.946 18.185c-6.1309 7.3205-9.8827 16.837-9.8827 27.086 0 7.961 1.5556 14.366 4.2093 20.131l25.622-30.472z" fill="#ea4335" stroke-width=".91506"/>
<path d="m63.339 29.166c8.9676 0 16.197 7.229 16.197 16.197 0 3.9348-1.4641 7.595-3.8433 10.432 0 0 12.719-15.19 25.164-29.923-5.1243-9.8827-14-17.386-24.707-20.772l-25.256 29.831c3.0197-3.4772 7.412-5.7649 12.445-5.7649" fill="#4285f4" stroke-width=".91506"/>
<path d="m63.339 61.468c-8.9676 0-16.197-7.229-16.197-16.197 0-3.9348 1.3726-7.595 3.7518-10.34l-25.622 30.472c4.3923 9.6997 11.713 17.569 19.216 27.36l31.204-37.06c-3.0197 3.5687-7.412 5.7649-12.353 5.7649" fill="#fbbc04" stroke-width=".91506"/>
<path d="m75.144 103.01c14.092-22.053 30.472-32.027 30.472-57.649 0-7.046-1.7386-13.634-4.7583-19.491l-56.368 66.891c2.3792 3.1112 4.8498 6.6799 7.229 10.34 8.6016 13.268 6.2224 21.138 11.713 21.138 5.4904 0 3.1112-7.961 11.713-21.229" fill="#34a853" stroke-width=".91506"/>
</svg>
