<svg xmlns="http://www.w3.org/2000/svg" viewBox="0 0 86 88.1"><path fill="#F16850" d="M85.8 57.7l-18.2 3.8 1.9 18.1-17.1-7.3L43 88l-9.4-15.7-17.1 7.3 1.9-18.1L.2 57.6l12.4-13.5L.2 30.5l18.2-3.9-1.9-18.1 17.1 7.3L43 .1l9.4 15.7 17.1-7.3-1.9 18.1 18.2 3.9-12.4 13.6"/><path fill="#FD694F" d="M43 27.5l-9.4-11.7-17.1-7.3 10.2 13.4"/><path fill="#FF3413" d="M18.4 26.6L.2 30.5 12.6 44l14.6-5.2"/><path fill="#DC1D23" d="M26.7 21.9L16.5 8.5l1.9 18.1 8.8 12.2"/><path fill="#FF9281" d="M52.4 15.8L43 .1l-9.4 15.7L43 27.5"/><path fill="#FF8B79" d="M73.4 44.1l12.4-13.6-18.2-3.9-8.8 12.2"/><path fill="#FD694F" d="M58.8 38.8l8.8-12.2 1.9-18.1-10.2 13.4"/><path fill="#EF5240" d="M59.3 21.9L69.5 8.5l-17.1 7.3L43 27.5"/><path fill="#FF482C" d="M69.4 52.2l16.4 5.4-12.4-13.5-14.6-5.3"/><path fill="#EC2101" d="M27.2 38.8L12.6 44 .2 57.6l16.4-5.4"/><path fill="#D21C22" d="M43 70.9V88l9.4-15.7.4-15.4"/><path fill="#C90901" d="M69.4 52.2l-16.6 4.7 14.8 4.6 18.2-3.9"/><path fill="#EC2101" d="M52.4 72.3l17.1 7.3-1.9-18.1-14.8-4.6"/><path fill="#B6171E" d="M16.6 52.2L.2 57.6l18.2 3.9 14.8-4.6"/><path fill="#B4151B" d="M33.2 56.9l.4 15.4L43 88V70.9"/><path fill="#D21C22" d="M18.4 61.5l-1.9 18.1 17.1-7.3-.4-15.4"/><path fill="#E63320" d="M58.8 38.8l.5-16.9L43 27.5V44"/><path fill="#FF4527" d="M43 27.5l-16.3-5.6.5 16.9L43 44"/><path fill="#FF9281" d="M33.2 56.9l9.8 14 9.8-14L43 44"/><path fill="#FD684D" d="M43 44l9.8 12.9 16.6-4.7-10.6-13.4"/><path fill="#FD745C" d="M27.2 38.8L16.6 52.2l16.6 4.7L43 44"/></svg>