<?xml version="1.0" encoding="utf-8"?>
<!--
  - Copyright (c) 2022 Manuel Schneider
  -->

<!-- Generator: Adobe Illustrator 19.2.0, SVG Export Plug-In . SVG Version: 6.00 Build 0)  -->
<svg version="1.1" id="Layer_1" xmlns="http://www.w3.org/2000/svg" xmlns:xlink="http://www.w3.org/1999/xlink" x="0px" y="0px"
	 viewBox="0 0 128 128" style="enable-background:new 0 0 128 128;" xml:space="preserve">
<style type="text/css">
	.st0{fill:url(#SVGID_1_);}
	.st1{fill:url(#SVGID_2_);}
</style>
<linearGradient id="SVGID_1_" gradientUnits="userSpaceOnUse" x1="119.5776" y1="-868.5078" x2="236.4797" y2="-767.929" gradientTransform="matrix(0.563 0 0 0.568 -66.36 500.697)">
	<stop  offset="0" style="stop-color:#5A9FD4"/>
	<stop  offset="1" style="stop-color:#306998"/>
</linearGradient>
<path class="st0" d="M62.8,3.9c-4.9,0-9.6,0.4-13.7,1.2C36.9,7.2,34.7,11.7,34.7,20v11h28.7v3.7H23.9c-8.4,0-15.7,5-18,14.6
	c-2.6,11-2.8,17.8,0,29.2C7.9,87,12.8,93,21.2,93h9.9V79.9c0-9.5,8.2-17.9,18-17.9h28.7c8,0,14.4-6.6,14.4-14.6V20
	c0-7.8-6.6-13.6-14.4-14.9C72.8,4.3,67.7,3.9,62.8,3.9z M47.2,12.7c3,0,5.4,2.5,5.4,5.5c0,3-2.4,5.5-5.4,5.5c-3,0-5.4-2.4-5.4-5.5
	C41.8,15.2,44.2,12.7,47.2,12.7z"/>
<linearGradient id="SVGID_2_" gradientUnits="userSpaceOnUse" x1="281.6097" y1="-707.0486" x2="239.8656" y2="-766.108" gradientTransform="matrix(0.563 0 0 0.568 -66.36 500.697)">
	<stop  offset="0" style="stop-color:#FFD43B"/>
	<stop  offset="1" style="stop-color:#FFE873"/>
</linearGradient>
<path class="st1" d="M95.7,34.6v12.8c0,9.9-8.4,18.2-18,18.2H49c-7.9,0-14.4,6.7-14.4,14.6v27.4c0,7.8,6.8,12.4,14.4,14.6
	c9.1,2.7,17.8,3.2,28.7,0c7.2-2.1,14.4-6.3,14.4-14.6v-11H63.4V93h43.1c8.4,0,11.5-5.8,14.4-14.6c3-9,2.9-17.7,0-29.2
	c-2.1-8.3-6-14.6-14.4-14.6L95.7,34.6L95.7,34.6z M79.6,104c3,0,5.4,2.4,5.4,5.5c0,3-2.4,5.5-5.4,5.5c-3,0-5.4-2.5-5.4-5.5
	C74.2,106.4,76.6,104,79.6,104z"/>
</svg>
